<?xml version="1.0" encoding="UTF-8"?>
<svg width="1280" height="960" xmlns="http://www.w3.org/2000/svg">
 <!-- Created with SVG-edit - http://svg-edit.googlecode.com/ -->
 <metadata id="metadata202">image/svg+xml</metadata>

 <g transform="matrix(2,0,0,2,1.5292582,4.9548757)" id="g4" display="inline">
  <title>outline</title>
  <path fill="#ffffff" stroke="#000000" stroke-width="3" d="m25.993832,77.361649l-17.967247,-11.243858l18.210043,-10.847061l-0.242796,22.090919z" id="svg_32"/>
  <path fill="#ffffff" stroke="#000000" stroke-width="3" d="m213.612045,426.401459l17.278732,-24.549927l17.279984,24.549927l-34.558716,0z" id="svg_36"/>
  <path fill="#ffffff" stroke="#000000" stroke-width="3" d="m248.174271,434.42038l-17.0168,24.732208l-17.539948,-24.364868l34.556747,-0.36734z" id="svg_37"/>
  <path fill="#ffffff" stroke="#000000" stroke-width="3" d="m582.649963,427.62442l17.278748,-24.549927l17.279968,24.549927l-34.558716,0z" id="svg_38"/>
  <path fill="#ffffff" stroke="#000000" stroke-width="3" d="m617.853271,435.643402l-17.016785,24.732178l-17.539978,-24.364868l34.556763,-0.36731z" id="svg_39"/>
  <rect fill="none" stroke="#000000" stroke-width="3" x="214.07816" y="297.26193" width="92.2155" height="82.634888" id="svg_46"/>
  <rect fill="none" stroke="#000000" stroke-width="3" x="213.78008" y="200.85457" width="92.2155" height="82.634888" id="svg_50"/>
  <rect fill="#ffffff" stroke="#000000" stroke-width="3" x="213.47948" y="106.24204" width="92.2155" height="82.634888" id="svg_51"/>
  <rect fill="none" stroke="#000000" stroke-width="3" x="213.18002" y="11.63187" width="92.2155" height="82.634888" id="svg_52"/>
  <rect fill="none" stroke="#000000" stroke-width="3" x="320.08502" y="296.49713" width="92.2155" height="82.634888" id="svg_53"/>
  <rect fill="none" stroke="#000000" stroke-width="3" x="319.78693" y="200.08978" width="92.2155" height="82.634888" id="svg_54"/>
  <rect fill="none" stroke="#000000" stroke-width="3" x="319.48633" y="105.47726" width="92.2155" height="82.634888" id="svg_55"/>
  <rect fill="none" stroke="#000000" stroke-width="3" x="319.18689" y="10.867088" width="92.2155" height="82.634888" id="svg_56"/>
  <rect fill="none" stroke="#000000" stroke-width="3" x="426.84277" y="296.49799" width="92.2155" height="82.634888" id="svg_65"/>
  <rect fill="none" stroke="#000000" stroke-width="3" x="426.54471" y="200.09062" width="92.2155" height="82.634888" id="svg_66"/>
  <rect fill="none" stroke="#000000" stroke-width="3" x="426.24408" y="105.4781" width="92.2155" height="82.634888" id="svg_67"/>
  <rect fill="none" stroke="#000000" stroke-width="3" x="425.94464" y="10.867931" width="92.2155" height="82.634888" id="svg_68"/>
  <rect fill="none" stroke="#000000" stroke-width="3" x="532.24811" y="296.49689" width="92.2155" height="82.634888" id="svg_77"/>
  <rect fill="none" stroke="#000000" stroke-width="3" x="531.95007" y="200.08951" width="92.2155" height="82.634888" id="svg_78"/>
  <rect fill="none" stroke="#000000" stroke-width="3" x="531.64941" y="105.477" width="92.2155" height="82.634888" id="svg_79"/>
  <rect fill="none" stroke="#000000" stroke-width="3" x="531.34998" y="10.866821" width="92.2155" height="82.634888" id="svg_80"/>
  <ellipse fill="#ffffff" stroke="#000000" stroke-width="3" cx="418.44342" cy="427.49484" id="svg_82" rx="16.684473" ry="152.49428" transform="matrix(1.3613568e-4,-0.99999999,0.99999999,1.3613568e-4,-9.1089611,845.8798)"/>
  <path fill="#ffffff" stroke="#000000" stroke-width="3" d="m36.100735,54.982372l18.045189,11.118282l-18.133911,10.973801l0.088722,-22.092083z" id="svg_86"/>
  <path fill="#ffffff" stroke="#000000" stroke-width="3" d="m25.087727,120.290649l-17.967251,-11.243851l18.210047,-10.847061l-0.242796,22.090912z" id="svg_90"/>
  <path fill="#ffffff" stroke="#000000" stroke-width="3" d="m35.849026,98.554184l18.045185,11.118271l-18.133907,10.973801l0.088722,-22.092072z" id="svg_91"/>
  <path fill="#ffffff" stroke="#000000" stroke-width="3" d="m25.087729,163.880493l-17.967266,-11.243851l18.210062,-10.847061l-0.242796,22.090912z" id="svg_92"/>
  <path fill="#ffffff" stroke="#000000" stroke-width="3" d="m35.837151,141.500687l18.045204,11.118271l-18.133926,10.973801l0.088722,-22.092072z" id="svg_93"/>
  <path fill="#ffffff" stroke="#000000" stroke-width="3" d="m25.742641,208.112518l-17.967266,-11.243851l18.210063,-10.847061l-0.242798,22.090912z" id="svg_94"/>
  <path fill="#ffffff" stroke="#000000" stroke-width="3" d="m35.836834,185.731628l18.045185,11.118271l-18.133907,10.973816l0.088722,-22.092087z" id="svg_95"/>
  <ellipse fill="#ffffff" stroke="#000000" stroke-width="3" cx="132.43585" cy="66.153801" id="svg_96" rx="73.076927" ry="10.89747"/>
  <ellipse fill="#ffffff" stroke="#000000" stroke-width="3" cx="132.11493" cy="109.74332" rx="73.076927" ry="10.89747" id="svg_98"/>
  <ellipse fill="#ffffff" stroke="#000000" stroke-width="3" cx="132.75729" cy="153.33333" rx="73.076927" ry="10.89747" id="svg_99"/>
  <ellipse fill="#ffffff" stroke="#000000" stroke-width="3" cx="132.75668" cy="197.56363" rx="73.076927" ry="10.89747" id="svg_100"/>
  <ellipse fill="#ffffff" stroke="#000000" stroke-width="3" cx="48.983242" cy="262.25113" id="svg_101" rx="41.647926" ry="37.173203"/>
  <ellipse fill="#ffffff" stroke="#000000" stroke-width="3" cx="152.82884" cy="261.90668" rx="40.994343" ry="37.173203" id="svg_105"/>
  <ellipse opacity="0.5" fill="#ffffff" stroke="#000000" stroke-width="3" cx="37.244404" cy="393.07611" rx="73.076927" ry="10.89747" id="svg_110" transform="matrix(-2.7925268e-5,-1,1,-2.7925268e-5,-355.83086,430.33108)"/>
  <ellipse opacity="0.5" fill="#ffffff" stroke="#000000" stroke-width="3" cx="82.115044" cy="394.36011" rx="73.076927" ry="10.89747" transform="matrix(-2.7925268e-5,-1,1,-2.7925268e-5,-312.24151,476.48521)" id="svg_111"/>
  <ellipse opacity="0.5" fill="#ffffff" stroke="#000000" stroke-width="3" cx="125.70629" cy="394.35898" rx="73.076927" ry="10.89747" transform="matrix(-2.7925268e-5,-1,1,-2.7925268e-5,-268.64849,520.07701)" id="svg_112"/>
  <ellipse opacity="0.5" fill="#ffffff" stroke="#000000" stroke-width="3" cx="168.01341" cy="393.66849" rx="73.076927" ry="10.89747" transform="matrix(-2.7925268e-5,-1,1,-2.7925268e-5,-225.64931,561.69299)" id="svg_113"/>
  <path opacity="0.5" fill="#ffffff" stroke="#000000" stroke-width="3" d="m84.90287,302.613342l17.042,-9.525421l17.042252,9.525421l-17.042252,9.525269l-17.042,-9.525269z" id="svg_114"/>
  <path fill="#ffffff" stroke="#000000" stroke-width="3" d="m79.541214,41.87944l-14.427483,-14.100756l14.427193,-14.101256l14.427254,14.100953l-14.426964,14.101059z" id="svg_116"/>
  <path fill="#ffffff" stroke="#000000" stroke-width="3" d="m136.192276,16.752413l0.403809,23.111029l-23.114716,-0.007504l-0.403458,-23.111006l23.114365,0.007481z" id="svg_117"/>
  <path fill="#ffffff" stroke="#000000" stroke-width="3" d="m159.647797,15.165904l21.317062,12.105147l-21.413605,11.934469l0.096542,-24.039617z" id="svg_118"/>
  <path fill="#ffffff" stroke="#000000" stroke-width="3" d="m17.4352,20.19718l3.67761,-6.36946l6.369511,-3.677649l7.35533,0l6.369499,3.677649l3.677711,6.36946l0,7.355381l-3.677711,6.369471l-6.369499,3.677689l-7.35533,0l-6.369511,-3.677689l-3.67761,-6.369471l0,-7.355381z" id="svg_119"/>
 </g>
 <g transform="matrix(2,0,0,2,1.5292582,4.9548757)" id="g52" display="inline">
  <title>shading</title>
  <rect opacity="0.5" fill="#007fff" stroke="#ffffff" stroke-width="3" x="205.75162" y="4.967277" width="213.07188" height="381.04578" id="svg_127"/>
  <rect opacity="0.5" fill="#007fff" stroke="#ffffff" stroke-width="3" x="207.05881" y="395.81726" width="48.366177" height="71.241531" id="svg_129"/>
  <rect opacity="0.5" fill="#007fff" stroke="#ffffff" stroke-width="3" x="4.117866" y="49.738876" width="27.45046" height="164.05203" id="svg_133"/>
  <rect opacity="0.5" fill="#ff7f00" stroke="#ffffff" stroke-width="3" x="30.588549" y="49.41053" width="26.796837" height="165.35921" id="svg_134"/>
  <rect opacity="0.5" fill="#ff7f00" stroke="#ffffff" stroke-width="3" x="577.31989" y="396.1445" width="48.366177" height="71.241531" id="svg_136"/>
  <rect opacity="0.5" fill="#ff7f00" stroke="#ffffff" stroke-width="3" x="419.47949" y="193.13692" width="211.76468" height="192.22279" id="svg_137"/>
  <ellipse opacity="0.5" fill="#007fff" stroke="#ffffff" stroke-width="3" cx="48.888882" cy="261.83005" id="svg_138" rx="43.790852" ry="38.562092"/>
  <ellipse opacity="0.5" fill="#ff7f00" stroke="#ffffff" stroke-width="3" cx="152.48387" cy="261.17642" rx="43.790852" ry="38.562092" id="svg_139"/>
  <ellipse opacity="0.45" fill="#7f00ff" stroke="#ffffff" cx="418.56229" cy="427.12408" id="svg_213" rx="165.35954" ry="23.529291"/>
  <ellipse opacity="0.5" fill="#ff7f00" stroke="#ffffff" stroke-width="3" cx="42.273676" cy="347.579059" rx="74.822449" ry="19.256752" id="svg_221" transform="matrix(0.00334055, 0.541262, -0.999994, 0.00180812, 429.867, 334.557)"/>
  <ellipse opacity="0.5" fill="#007fff" stroke="#ffffff" stroke-width="3" cx="86.672876" cy="349.559545" rx="74.822449" ry="19.256752" transform="matrix(0.00334055, 0.547723, -0.999994, 0.00182971, 475.145, 311.435)" id="svg_222"/>
  <ellipse opacity="0.5" fill="#ff7f00" stroke="#ffffff" stroke-width="3" cx="126.699017" cy="349.553533" rx="74.822449" ry="19.256752" transform="matrix(0.00334055, 0.541262, -0.999994, 0.00180812, 516.837, 288.837)" id="svg_223"/>
  <ellipse opacity="0.5" fill="#007fff" stroke="#ffffff" stroke-width="3" cx="165.606377" cy="523.193966" rx="74.822449" ry="19.256752" transform="matrix(0.00334055, 0.554173, -0.999994, 0.00185125, 560.484, 264.957)" id="svg_224"/>
  <ellipse opacity="0.45" fill="#7f00ff" stroke="#ffffff" cx="133.20459" cy="198.42946" rx="74.822449" ry="19.256752" transform="matrix(-1,-1.7453293e-5,1.7453293e-5,-1,266.40654,396.86232)" id="svg_225"/>
  <ellipse opacity="0.45" fill="#7f00ff" stroke="#ffffff" cx="133.85571" cy="153.33504" rx="74.822449" ry="19.256752" transform="matrix(-1,-1.7453293e-5,1.7453293e-5,-1,267.71132,306.67034)" id="svg_227"/>
  <ellipse opacity="0.45" fill="#7f00ff" stroke="#ffffff" cx="133.85571" cy="109.54418" rx="74.822449" ry="19.256752" transform="matrix(-1,-1.7453293e-5,1.7453293e-5,-1,267.71209,219.09234)" id="svg_228"/>
  <ellipse opacity="0.45" fill="#7f00ff" stroke="#ffffff" cx="131.24135" cy="65.099731" rx="74.822449" ry="19.256752" transform="matrix(-1,-1.7453293e-5,1.7453293e-5,-1,262.47886,130.20149)" id="svg_229"/>
  <ellipse opacity="0.15" fill="#7f00ff" stroke="#ffffff" cx="102.48366" cy="302.35291" id="svg_230" rx="18.954248" ry="11.764706"/>
  <rect opacity="0.5" fill="#007fff" stroke="#ffffff" stroke-width="3" x="280.0015" y="452.35239" width="82.352921" height="24.70649" id="svg_233"/>
  <rect opacity="0.5" fill="#ff7f00" stroke="#ffffff" stroke-width="3" x="464.11746" y="451.47031" width="84.11763" height="24.118362" id="svg_236"/>
  <rect opacity="0.5" fill="#7f00ff" stroke="#ffffff" stroke-width="3" x="375.29626" y="452.35315" width="82.352921" height="24.70649" id="svg_239"/>
  <rect opacity="0.45" fill="#7f00ff" stroke="#ffffff" id="svg_33" height="29.411762" width="30.588135" y="13.529405" x="109.41174"/>
  <rect opacity="0.45" fill="#7f00ff" stroke="#ffffff" transform="matrix(0.70710678,-0.70710678,0.70710678,0.70710678,3.3803083,64.628786)" id="svg_34" height="28.163858" width="28.710402" y="14.152843" x="65.350044"/>
  <path opacity="0.45" fill="#7f00ff" stroke="#ffffff" id="svg_42" d="m156.038956,8.149811l32.424576,18.52829l-32.424576,18.52832l0,-37.05661z"/>
  <rect opacity="0.5" fill="#007fff" stroke="#ffffff" stroke-width="3" id="svg_168" x="419.99854" y="3.888883" width="211.76468" height="192.22279"/>
  <ellipse id="svg_12" opacity="0.5" fill="#007fff" stroke="#ffffff" stroke-width="3" cx="242.707399" cy="378.626312" rx="74.822449" ry="19.256752" transform="rotate(90, 104.995, 410.5) matrix(0.00250563, 1.15334, -0.750062, 0.00385281, 388.383, 129.119)"/>
  <ellipse id="svg_20" opacity="0.5" fill="#ff7f00" stroke="#ffffff" stroke-width="3" cx="272.189454" cy="377.383758" rx="74.822449" ry="19.256752" transform="rotate(90, 105.998, 444.507) matrix(0.00250563, 1.15334, -0.750062, 0.00385281, 388.383, 129.119)"/>
 </g>
 <g transform="matrix(2,0,0,2,1.5292582,4.9548757)" id="g81" display="inline">
  <title>text</title>
  <text text-anchor="middle" fill="#000000" stroke="#ffffff" stroke-width="0" font-family="serif" x="641.2027" y="339.46524" font-size="24px" xml:space="preserve" transform="matrix(0.357556,0,0,0.468599,221.584,116.637)" id="svg_154">Kill Mids</text>
  <text text-anchor="middle" fill="#000000" stroke="#ffffff" stroke-width="0" font-family="serif" x="644.85718" y="225.64778" font-size="24px" xml:space="preserve" transform="matrix(0.350777,0,0,0.50571,223.995,101.206)" id="svg_155">Kill Highs</text>
  <text text-anchor="middle" fill="#000000" stroke="#ffffff" stroke-width="0" font-family="serif" x="663.14526" y="402.3468" font-size="24px" xml:space="preserve" transform="matrix(0.326585,0,0,0.50571,233.622,107.73)" id="svg_156">Kill Lows</text>
  <text text-anchor="middle" fill="#000000" stroke="#ffffff" stroke-width="0" font-family="serif" x="726.07971" y="249.41241" font-size="24px" xml:space="preserve" transform="matrix(0.382324,0,0,0.54913,222.43,76.5058)" id="svg_161">Double</text>
  <text text-anchor="middle" fill="#000000" stroke="#ffffff" stroke-width="0" font-family="serif" x="725.83331" y="327.23303" font-size="24px" xml:space="preserve" transform="matrix(0.383818,0,0,0.530249,221.924,92.2827)" id="svg_162">Halve</text>
  <text text-anchor="middle" fill="#000000" stroke="#ffffff" stroke-width="0" font-family="serif" x="16.932741" y="-149.73283" font-size="24px" xml:space="preserve" transform="matrix(0.374979,0,0,0.542271,224.566,107.626)" id="svg_166">Cue 1</text>
  <text text-anchor="middle" fill="#000000" stroke="#ffffff" stroke-width="0" font-family="serif" x="164.21507" y="-148.41624" font-size="24px" xml:space="preserve" transform="matrix(0.374979,0,0,0.542271,224.566,107.626)" id="svg_169">Cue 2</text>
  <text text-anchor="middle" fill="#000000" stroke="#ffffff" stroke-width="0" font-family="serif" x="307.14719" y="-150.27898" font-size="24px" xml:space="preserve" transform="matrix(0.374979,0,0,0.542271,224.566,107.626)" id="svg_170">Cue 3</text>
  <text text-anchor="middle" fill="#000000" stroke="#ffffff" stroke-width="0" font-family="serif" x="454.4295" y="-148.96239" font-size="24px" xml:space="preserve" transform="matrix(0.374979,0,0,0.542271,224.566,107.626)" id="svg_173">Cue 4</text>
  <text text-anchor="middle" fill="#000000" stroke="#ffffff" stroke-width="0" font-family="serif" x="16.412163" y="-39.273891" font-size="24px" xml:space="preserve" transform="matrix(0.374979,0,0,0.542271,224.566,107.626)" id="svg_174">Cue 5</text>
  <text text-anchor="middle" fill="#000000" stroke="#ffffff" stroke-width="0" font-family="serif" x="165.2632" y="-39.042061" font-size="24px" xml:space="preserve" transform="matrix(0.374979,0,0,0.542271,224.566,107.626)" id="svg_177">Cue 6</text>
  <text text-anchor="middle" fill="#000000" stroke="#ffffff" stroke-width="0" font-family="serif" x="301.91837" y="-40.599705" font-size="24px" xml:space="preserve" transform="matrix(0.374979,0,0,0.542271,224.566,107.626)" id="svg_178">Cue 7</text>
  <text text-anchor="middle" fill="#000000" stroke="#ffffff" stroke-width="0" font-family="serif" x="450.76941" y="-39.283112" font-size="24px" xml:space="preserve" transform="matrix(0.374979,0,0,0.542271,224.566,107.626)" id="svg_181">Cue 8</text>
  <text text-anchor="middle" fill="#000000" stroke="#ffffff" stroke-width="0" font-family="serif" x="597.96869" y="-151.78023" font-size="24px" xml:space="preserve" transform="matrix(0.374979,0,0,0.542271,224.566,107.626)" id="svg_182">Delete 1</text>
  <text text-anchor="middle" fill="#000000" stroke="#ffffff" stroke-width="0" font-family="serif" x="724.85773" y="-152.63315" font-size="24px" xml:space="preserve" transform="matrix(0.374979,0,0,0.542271,224.566,107.626)" id="svg_185">Delete 2</text>
  <text text-anchor="middle" fill="#000000" stroke="#7c6666" font-family="serif" x="166.28543" y="56.566044" id="svg_198" font-size="24px" xml:space="preserve" transform="matrix(0.333265,0,0,0.507533,-24.3719,23.2327)">Keylock</text>
  <text text-anchor="middle" fill="#000000" stroke="#7c6666" font-family="serif" x="175.50591" y="142.37183" font-size="24px" xml:space="preserve" transform="matrix(0.333265,0,0,0.507533,-24.3719,23.2327)" id="svg_199">Headphones</text>
  <text text-anchor="middle" fill="#000000" stroke="#7c6666" font-family="serif" x="162.95367" y="312.36008" font-size="24px" xml:space="preserve" transform="matrix(0.333265,0,0,0.507533,-24.3719,23.2327)" id="svg_200">Beatgrid</text>
  <text text-anchor="middle" fill="#3f7f00" stroke="#000000" font-family="serif" x="155.53096" y="94.01281" id="svg_202" font-size="24px" xml:space="preserve" transform="matrix(0.65796,0,0,0.476293,28.6996,23.6522)">Master</text>
  <text text-anchor="middle" fill="#3f7f00" stroke="#000000" font-family="serif" x="154.48235" y="281.32983" font-size="24px" xml:space="preserve" transform="matrix(0.65796,0,0,0.476293,28.6996,23.6522)" id="svg_203">Flanger LFO</text>
  <text text-anchor="middle" fill="#3f7f00" stroke="#000000" font-family="serif" x="165.12646" y="376.20187" font-size="24px" xml:space="preserve" transform="matrix(0.572687,0,0,0.404134,35.0417,48.564)" id="svg_204">Flanger Depth</text>
  <text text-anchor="middle" fill="#3f7f00" stroke="#000000" font-family="serif" x="160.93922" y="186.78157" font-size="24px" xml:space="preserve" transform="matrix(0.65796,0,0,0.476293,28.6996,23.6522)" id="svg_205">Headphones</text>
  <text text-anchor="middle" fill="#00007f" stroke="#ffffff" stroke-width="0" font-family="serif" x="63.108025" y="289.63586" font-size="24px" xml:space="preserve" id="svg_206" transform="matrix(0.667958,0,0,0.680806,6.96573,78.365)">Scratch</text>
  <text text-anchor="middle" fill="#7f0000" stroke="#ffffff" stroke-width="0" font-family="serif" x="180.51535" y="287.3483" font-size="24px" xml:space="preserve" id="svg_207" transform="matrix(0.742972,0,0,0.67711,21.0204,80.8891)">Scratch</text>
  <text text-anchor="middle" fill="#000000" stroke="#ffffff" stroke-width="0" font-family="serif" x="219.63539" y="546.66156" font-size="24px" xml:space="preserve" transform="matrix(0.474087,0,0,0.673817,147.29,30.699)" id="svg_209">Visual Scroll/Nudge</text>
  <text text-anchor="middle" fill="#000000" stroke="#ffffff" stroke-width="0" font-family="serif" x="119.875977" y="326.54297" id="svg_232" font-size="24px" xml:space="preserve" transform="matrix(0.652119, 0, 0, 0.486461, 23.0335, 136.924)">Bank</text>
  <text text-anchor="middle" fill="#00007f" stroke="#ffffff" stroke-width="0" font-family="serif" x="335.27655" y="478.04007" id="svg_235" font-size="24px" xml:space="preserve" transform="matrix(0.822304,0,0,0.936975,48.1244,24.2312)">DECK 1</text>
  <text text-anchor="middle" fill="#7f0000" stroke="#ffffff" stroke-width="0" font-family="serif" x="557.39441" y="476.97156" font-size="24px" xml:space="preserve" transform="matrix(0.822304,0,0,0.936975,48.1244,24.2312)" id="svg_238">DECK 2</text>
  <text text-anchor="middle" opacity="0.85" fill="#00007f" stroke="#ffffff" stroke-width="0" font-family="serif" x="420.52289" y="436.86273" id="svg_231" font-size="24px" xml:space="preserve">Xfader</text>
  <text text-anchor="middle" fill="#00007f" stroke="#ffffff" stroke-width="0" font-family="serif" x="450.10614" y="476.83606" font-size="24px" xml:space="preserve" transform="matrix(0.803417,0,0,0.844391,56.0228,69.2374)" id="svg_241">Misc</text>
  <text text-anchor="middle" fill="#000000" stroke="#ffffff" stroke-width="0" font-family="serif" id="svg_1" x="19.196341" y="31.298847" font-size="24px" xml:space="preserve" transform="matrix(0.374979,0,0,0.542271,224.566,107.626)">Cue 9</text>
  <text text-anchor="middle" fill="#000000" stroke="#ffffff" stroke-width="0" font-family="serif" id="svg_2" x="163.52092" y="31.298847" font-size="24px" xml:space="preserve" transform="matrix(0.374979,0,0,0.542271,224.566,107.626)">Cue 10</text>
  <text text-anchor="middle" fill="#000000" stroke="#ffffff" stroke-width="0" font-family="serif" id="svg_3" x="301.56146" y="29.129322" font-size="24px" xml:space="preserve" transform="matrix(0.374979,0,0,0.542271,224.566,107.626)">Cue 11</text>
  <text text-anchor="middle" fill="#000000" stroke="#ffffff" stroke-width="0" font-family="serif" id="svg_4" x="447.45352" y="28.043293" font-size="24px" xml:space="preserve" transform="matrix(0.374979,0,0,0.542271,224.566,107.626)">Cue 12</text>
  <text text-anchor="middle" fill="#000000" stroke="#ffffff" stroke-width="0" font-family="serif" id="svg_5" x="23.898861" y="139.77554" font-size="24px" xml:space="preserve" transform="matrix(0.374979,0,0,0.542271,224.566,107.626)">Cue 13</text>
  <text text-anchor="middle" fill="#000000" stroke="#ffffff" stroke-width="0" font-family="serif" id="svg_6" x="160.38414" y="139.7747" font-size="24px" xml:space="preserve" transform="matrix(0.374979,0,0,0.542271,224.566,107.626)">Cue 14</text>
  <text text-anchor="middle" fill="#000000" stroke="#ffffff" stroke-width="0" font-family="serif" id="svg_7" x="309.40753" y="135.43353" font-size="24px" xml:space="preserve" transform="matrix(0.374979,0,0,0.542271,224.566,107.626)">Cue 15</text>
  <text text-anchor="middle" fill="#000000" stroke="#ffffff" stroke-width="0" font-family="serif" id="svg_8" x="442.74741" y="133.26318" font-size="24px" xml:space="preserve" transform="matrix(0.374979,0,0,0.542271,224.566,107.626)">Cue 16</text>
  <text text-anchor="middle" fill="#000000" stroke="#ffffff" stroke-width="0" font-family="serif" id="svg_9" x="598.40491" y="-38.037853" font-size="24px" xml:space="preserve" transform="matrix(0.374979,0,0,0.542271,224.566,107.626)">Delete 5</text>
  <text text-anchor="middle" fill="#000000" stroke="#ffffff" stroke-width="0" font-family="serif" id="svg_10" x="726.86267" y="-36.72126" font-size="24px" xml:space="preserve" transform="matrix(0.374979,0,0,0.542271,224.566,107.626)">Delete 6</text>
  <text text-anchor="middle" fill="#000000" stroke="#ffffff" stroke-width="0" font-family="serif" id="svg_13" x="601.9129" y="25.011959" font-size="24px" xml:space="preserve" transform="matrix(0.343299,0,0,0.525225,241.598,107.584)">Delete 9</text>
  <text text-anchor="middle" fill="#000000" stroke="#ffffff" stroke-width="0" font-family="serif" id="svg_14" x="725.49896" y="21.68726" font-size="24px" xml:space="preserve" transform="matrix(0.34706,0,0,0.559317,242.914,107.687)">Delete 10</text>
  <text text-anchor="middle" fill="#000000" stroke="#ffffff" stroke-width="0" font-family="serif" id="svg_15" x="888.77905" y="20.844818" font-size="24px" xml:space="preserve" transform="matrix(0.337754,0,0,0.610454,255.104,107.795)">Delete 11</text>
  <text text-anchor="middle" fill="#000000" stroke="#ffffff" stroke-width="0" font-family="serif" id="svg_16" x="1001.2094" y="21.685993" font-size="24px" xml:space="preserve" transform="matrix(0.342407,0,0,0.576363,259.251,107.748)">Delete 12</text>
  <text text-anchor="middle" fill="#000000" stroke="#ffffff" stroke-width="0" font-family="serif" id="svg_17" x="601.18549" y="137.75729" font-size="24px" xml:space="preserve" transform="matrix(0.374979,0,0,0.542271,224.566,107.626)">Delete 13</text>
  <text text-anchor="middle" fill="#000000" stroke="#ffffff" stroke-width="0" font-family="serif" id="svg_21" x="951.17651" y="536.59467" font-size="24px" xml:space="preserve" transform="matrix(0.368329,0,0,0.556156,208.503,73.6581)">JumpSync</text>
  <text text-anchor="middle" fill="#000000" stroke="#ffffff" stroke-width="0" font-family="serif" id="svg_22" x="1093.3949" y="536.60034" font-size="24px" xml:space="preserve" transform="matrix(0.401343,0,0,0.589798,166.353,55.2865)">Reloop</text>
  <text text-anchor="middle" fill="#000000" stroke="#ffffff" stroke-width="0" font-family="serif" id="svg_23" x="816.83484" y="525.15344" font-size="24px" xml:space="preserve" transform="matrix(0.412071,0,0,0.657068,165.759,27.0783)">Sync</text>
  <text text-anchor="middle" fill="#000000" stroke="#ffffff" stroke-width="0" font-family="serif" id="svg_24" x="631.06213" y="525.02454" font-size="24px" xml:space="preserve" transform="matrix(0.469083,0,0,0.624265,146.921,44.7382)">Cue</text>
  <text text-anchor="middle" fill="#000000" stroke="#7c6666" font-family="serif" id="svg_26" x="171.97726" y="223.68852" font-size="24px" xml:space="preserve" transform="matrix(0.333265,0,0,0.507533,-24.3719,23.2327)">Quantize Cues</text>
  <text text-anchor="middle" fill="#000000" stroke="#7c6666" font-family="serif" id="svg_27" x="165.99461" y="9.26719" font-size="24px" xml:space="preserve" transform="matrix(0.333265,0,0,0.507533,-24.3719,23.2327)">Mode</text>
  <text text-anchor="middle" fill="#000000" stroke="#7c6666" font-family="serif" id="svg_28" x="268.63306" y="-30.989721" font-size="24px" xml:space="preserve" transform="matrix(0.415912,0,0,0.551472,-37.6103,28.0265)">Record</text>
  <text text-anchor="middle" fill="#000000" stroke="#7c6666" font-family="serif" id="svg_29" x="496.88925" y="-25.873112" font-size="24px" xml:space="preserve" transform="matrix(0.329296,0,0,0.572779,-37.7124,26.5506)">Assert LEDs</text>
  <text text-anchor="middle" fill="#000000" stroke="#7c6666" font-family="serif" id="svg_43" x="681.98578" y="-26.599615" font-size="24px" xml:space="preserve" transform="matrix(0.296584,0,0,0.521118,-17.9257,25.6454)">Play/Scratch</text>
  <text text-anchor="middle" fill="#000000" stroke="#ffffff" stroke-width="0" font-family="serif" id="svg_45" x="786.89056" y="343.22083" font-size="24px" xml:space="preserve" transform="matrix(0.357556,0,0,0.468599,221.584,116.637)">Loop</text>
  <text text-anchor="middle" fill="#000000" stroke="#ffffff" stroke-width="0" font-family="serif" id="svg_47" x="788.53375" y="232.75633" font-size="24px" xml:space="preserve" transform="matrix(0.357556,0,0,0.468599,221.584,116.637)">Loop</text>
  <text text-anchor="middle" fill="#000000" stroke="#ffffff" stroke-width="0" font-family="serif" id="svg_48" x="824.93158" y="439.80148" font-size="24px" xml:space="preserve" transform="matrix(0.373065,0,0,0.586555,194.903,56.0666)">Loop</text>
  <text text-anchor="middle" fill="#000000" stroke="#ffffff" stroke-width="0" font-family="serif" id="svg_49" x="954.7514" y="435.4162" font-size="24px" xml:space="preserve" transform="matrix(0.362743,0,0,0.570831,201.952,62.3563)">Jump</text>
  <text text-anchor="middle" fill="#000000" stroke="#ffffff" stroke-width="0" font-family="serif" id="svg_58" x="989.86639" y="463.73709" font-size="24px" xml:space="preserve" transform="matrix(0.280037,0,0,0.709232,276.404,-0.530643)">Backward</text>
  <text text-anchor="middle" fill="#000000" stroke="#ffffff" stroke-width="0" font-family="serif" id="svg_59" x="1100.1775" y="436.25424" font-size="24px" xml:space="preserve" transform="matrix(0.362743,0,0,0.570831,201.952,62.3563)">Jump</text>
  <text text-anchor="middle" fill="#000000" stroke="#ffffff" stroke-width="0" font-family="serif" id="svg_60" x="1170.2362" y="464.11404" font-size="24px" xml:space="preserve" transform="matrix(0.280037,0,0,0.709232,276.404,-0.530643)">Forward</text>
  <text text-anchor="middle" fill="#000000" stroke="#ffffff" stroke-width="0" font-family="serif" id="svg_63" x="937.50452" y="199.25014" font-size="24px" xml:space="preserve" transform="matrix(0.688214, 0, 0, 0.508179, -36.0864, 118.365)">4</text>
  <text text-anchor="middle" fill="#000000" stroke="#ffffff" stroke-width="0" font-family="serif" id="svg_64" x="935.537154" y="303.060889" font-size="24px" xml:space="preserve" transform="matrix(0.688214, 0, 0, 0.508179, -36.0864, 118.365)">16</text>
  <text text-anchor="middle" fill="#000000" stroke="#ffffff" stroke-width="0" font-family="serif" id="svg_69" x="843.91187" y="199.00363" font-size="24px" xml:space="preserve" transform="matrix(0.688214, 0, 0, 0.508179, -36.0864, 118.365)">1</text>
  <text text-anchor="middle" fill="#000000" stroke="#ffffff" stroke-width="0" font-family="serif" id="svg_70" x="845.62048" y="303.18393" font-size="24px" xml:space="preserve" transform="matrix(0.688214, 0, 0, 0.508179, -36.0864, 118.365)">8</text>
  <text text-anchor="middle" fill="#000000" stroke="#ffffff" stroke-width="0" font-family="serif" id="svg_71" x="469.55481" y="337.09634" font-size="24px" xml:space="preserve" transform="matrix(0.357556,0,0,0.468599,221.584,116.637)">Kill Mids</text>
  <text text-anchor="middle" fill="#000000" stroke="#ffffff" stroke-width="0" font-family="serif" id="svg_72" x="469.89206" y="223.45271" font-size="24px" xml:space="preserve" transform="matrix(0.350777,0,0,0.50571,223.995,101.206)">Kill Highs</text>
  <text text-anchor="middle" fill="#000000" stroke="#ffffff" stroke-width="0" font-family="serif" id="svg_73" x="475.21951" y="400.15173" font-size="24px" xml:space="preserve" transform="matrix(0.326585,0,0,0.50571,233.622,107.73)">Kill Lows</text>
  <text text-anchor="middle" fill="#000000" stroke="#ffffff" stroke-width="0" font-family="serif" id="svg_74" x="532.82874" y="524.18866" font-size="24px" xml:space="preserve" transform="matrix(0.469083,0,0,0.624265,146.921,44.7382)">Cue</text>
  <text text-anchor="middle" fill="#000000" stroke="#ffffff" stroke-width="0" font-family="serif" id="svg_75" x="304.43274" y="248.89479" font-size="24px" xml:space="preserve" transform="matrix(0.382324,0,0,0.54913,222.43,76.5058)">Double</text>
  <text text-anchor="middle" fill="#000000" stroke="#ffffff" stroke-width="0" font-family="serif" id="svg_76" x="299.69717" y="330.02502" font-size="24px" xml:space="preserve" transform="matrix(0.383818,0,0,0.530249,221.924,92.2827)">Halve</text>
  <text text-anchor="middle" fill="#000000" stroke="#ffffff" stroke-width="0" font-family="serif" id="svg_81" x="418.48856" y="524.72083" font-size="24px" xml:space="preserve" transform="matrix(0.412071,0,0,0.657068,165.759,27.0783)">Sync</text>
  <text text-anchor="middle" fill="#000000" stroke="#ffffff" stroke-width="0" font-family="serif" id="svg_83" x="321.22955" y="343.86957" font-size="24px" xml:space="preserve" transform="matrix(0.357556,0,0,0.468599,221.584,116.637)">Loop</text>
  <text text-anchor="middle" fill="#000000" stroke="#ffffff" stroke-width="0" font-family="serif" id="svg_84" x="317.93729" y="232.14975" font-size="24px" xml:space="preserve" transform="matrix(0.357556,0,0,0.468599,221.584,116.637)">Loop</text>
  <text text-anchor="middle" fill="#000000" stroke="#ffffff" stroke-width="0" font-family="serif" id="svg_85" x="380.20572" y="438.31403" font-size="24px" xml:space="preserve" transform="matrix(0.373065,0,0,0.586555,194.903,56.0666)">Loop</text>
  <text text-anchor="middle" fill="#000000" stroke="#ffffff" stroke-width="0" font-family="serif" id="svg_87" x="88.212151" y="536.45258" font-size="24px" xml:space="preserve" transform="matrix(0.368329,0,0,0.556156,208.503,73.6581)">JumpSync</text>
  <text text-anchor="middle" fill="#000000" stroke="#ffffff" stroke-width="0" font-family="serif" id="svg_88" x="301.41696" y="536.46631" font-size="24px" xml:space="preserve" transform="matrix(0.401343,0,0,0.589798,166.353,55.2865)">Reloop</text>
  <text text-anchor="middle" fill="#000000" stroke="#ffffff" stroke-width="0" font-family="serif" id="svg_89" x="78.497986" y="435.27771" font-size="24px" xml:space="preserve" transform="matrix(0.362743,0,0,0.570831,201.952,62.3563)">Jump</text>
  <text text-anchor="middle" fill="#000000" stroke="#ffffff" stroke-width="0" font-family="serif" id="svg_97" x="-145.17932" y="463.62564" font-size="24px" xml:space="preserve" transform="matrix(0.280037,0,0,0.709232,276.404,-0.530643)">Backward</text>
  <text text-anchor="middle" fill="#000000" stroke="#ffffff" stroke-width="0" font-family="serif" id="svg_102" x="223.92401" y="436.11578" font-size="24px" xml:space="preserve" transform="matrix(0.362743,0,0,0.570831,201.952,62.3563)">Jump</text>
  <text text-anchor="middle" fill="#000000" stroke="#ffffff" stroke-width="0" font-family="serif" id="svg_103" x="37.290993" y="464.00259" font-size="24px" xml:space="preserve" transform="matrix(0.280037,0,0,0.709232,276.404,-0.530643)">Forward</text>
  <text text-anchor="middle" fill="#000000" stroke="#ffffff" stroke-width="0" font-family="serif" id="svg_104" x="475.64993" y="199.09457" font-size="24px" xml:space="preserve" transform="matrix(0.688214, 0, 0, 0.508179, -36.0864, 118.365)">4</text>
  <text text-anchor="middle" fill="#000000" stroke="#ffffff" stroke-width="0" font-family="serif" id="svg_106" x="473.682604" y="304.873129" font-size="24px" xml:space="preserve" transform="matrix(0.688214, 0, 0, 0.508179, -36.0864, 118.365)">16</text>
  <text text-anchor="middle" fill="#000000" stroke="#ffffff" stroke-width="0" font-family="serif" id="svg_107" x="382.05731" y="198.84807" font-size="24px" xml:space="preserve" transform="matrix(0.688214, 0, 0, 0.508179, -36.0864, 118.365)">1</text>
  <text text-anchor="middle" fill="#000000" stroke="#ffffff" stroke-width="0" font-family="serif" id="svg_108" x="383.7659" y="303.02838" font-size="24px" xml:space="preserve" transform="matrix(0.688214, 0, 0, 0.508179, -36.0864, 118.365)">8</text>
  <text text-anchor="middle" opacity="0.85" fill="#000000" stroke="#ffffff" stroke-width="0" font-family="serif" id="svg_115" x="-19.597731" y="418.11301" font-size="24px" xml:space="preserve" transform="matrix(0.652119,0,0,0.486461,23.0335,136.924)">1:</text>
  <text text-anchor="middle" fill="#00007f" stroke="#ffffff" stroke-width="0" font-family="serif" id="svg_122" x="63.54937" y="262.11945" font-size="24px" xml:space="preserve" transform="matrix(0.667958,0,0,0.680806,6.96573,78.365)">Play/</text>
  <text text-anchor="middle" fill="#7f0000" stroke="#ffffff" stroke-width="0" font-family="serif" id="svg_124" x="179.13971" y="258.03238" font-size="24px" xml:space="preserve" transform="matrix(0.742972,0,0,0.67711,21.0204,80.8891)">Play/</text>
  <text text-anchor="middle" opacity="0.85" fill="#000000" stroke="#ffffff" stroke-width="0" font-family="serif" id="svg_128" x="-19.08363" y="493.07999" font-size="24px" xml:space="preserve" transform="matrix(0.652119,0,0,0.486461,23.0335,136.924)">2:</text>
  <text text-anchor="middle" opacity="0.85" fill="#000000" stroke="#ffffff" stroke-width="0" font-family="serif" id="svg_130" x="-19.083632" y="568.05121" font-size="24px" xml:space="preserve" transform="matrix(0.652119,0,0,0.486461,23.0335,136.924)">3:</text>
  <text text-anchor="middle" opacity="0.85" fill="#000000" stroke="#ffffff" stroke-width="0" font-family="serif" id="svg_132" x="-17.2806" y="641.81464" font-size="24px" xml:space="preserve" transform="matrix(0.652119,0,0,0.486461,23.0335,136.924)">4:</text>
  <text text-anchor="middle" fill="#000000" stroke="#ffffff" stroke-width="0" font-family="serif" id="svg_135" x="188.3824" y="419.3212" font-size="24px" xml:space="preserve" transform="matrix(0.652119,0,0,0.486461,23.0335,136.924)">Cursors</text>
  <text text-anchor="middle" fill="#000000" stroke="#ffffff" stroke-width="0" font-family="serif" id="svg_140" x="55.786388" y="419.31693" font-size="24px" xml:space="preserve" transform="matrix(0.652119,0,0,0.486461,23.0335,136.924)">Zooms</text>
  <text text-anchor="middle" fill="#000000" stroke="#ffffff" stroke-width="0" font-family="serif" id="svg_141" x="53.97879" y="493.07938" font-size="24px" xml:space="preserve" transform="matrix(0.652119,0,0,0.486461,23.0335,136.924)">Gains</text>
  <text text-anchor="middle" fill="#000000" stroke="#ffffff" stroke-width="0" font-family="serif" id="svg_143" x="189.28574" y="491.86969" font-size="24px" xml:space="preserve" transform="matrix(0.652119,0,0,0.486461,23.0335,136.924)">Rates</text>
  <text text-anchor="middle" fill="#000000" stroke="#ffffff" stroke-width="0" font-family="serif" id="svg_145" x="168.506016" y="570.889322" font-size="24px" xml:space="preserve" transform="matrix(0.464267, 0, 0, 0.461668, 46.8949, 151.293)">Mids</text>
  <text text-anchor="middle" fill="#000000" stroke="#ffffff" stroke-width="0" font-family="serif" id="svg_146" x="102.680767" y="574.899359" font-size="24px" xml:space="preserve" transform="matrix(0.467918, 0, 0, 0.517731, 33.9242, 117.834)">Highs</text>
  <text text-anchor="middle" fill="#000000" stroke="#ffffff" stroke-width="0" font-family="serif" id="svg_147" x="237.596552" y="571.110169" font-size="24px" xml:space="preserve" transform="matrix(0.541964, 0, 0, 0.461668, 44.6651, 151.191)">Lows</text>
  <text text-anchor="middle" fill="#000000" stroke="#ffffff" stroke-width="0" font-family="serif" id="svg_148" x="39.375961" y="561.713473" font-size="24px" xml:space="preserve" transform="matrix(0.427299, 0, 0, 0.66001, 23.1634, 45.1165)">Volume</text>
  <text text-anchor="middle" fill="#000000" stroke="#ffffff" stroke-width="0" font-family="serif" id="svg_149" x="152.742951" y="318.949308" font-size="24px" xml:space="preserve" transform="matrix(0.529758, 0, 0, 0.419723, 21.7909, 174.335)">Vertical Sliders</text>
  <text text-anchor="middle" fill="#00007f" stroke="#ffffff" stroke-width="0" font-family="serif" id="svg_150" x="80.041919" y="362.755252" font-size="24px" xml:space="preserve" transform="matrix(0.335962, 0, 0, 0.395227, 9.85516, 172.632)">Deck 1</text>
  <text text-anchor="middle" fill="#00007f" stroke="#ffffff" stroke-width="0" font-family="serif" id="svg_151" x="350.61115" y="370.319336" font-size="24px" xml:space="preserve" transform="matrix(0.335962, 0, 0, 0.395227, 9.85516, 172.632)">Deck 1</text>
  <text text-anchor="middle" fill="#7f0000" stroke="#ffffff" stroke-width="0" font-family="serif" id="svg_152" x="212.29568" y="369.274204" font-size="24px" xml:space="preserve" transform="matrix(0.335962, 0, 0, 0.395227, 9.85516, 172.632)">Deck 2</text>
  <text text-anchor="middle" fill="#7f0000" stroke="#ffffff" stroke-width="0" font-family="serif" id="svg_153" x="477.372124" y="369.273344" font-size="24px" xml:space="preserve" transform="matrix(0.335962, 0, 0, 0.395227, 9.85516, 172.632)">Deck 2</text>
  <text text-anchor="middle" fill="#000000" stroke="#ffffff" stroke-width="0" font-family="serif" id="svg_157" x="875.71283" y="-152.02809" font-size="24px" xml:space="preserve" transform="matrix(0.374979,0,0,0.542271,224.566,107.626)">Delete 3</text>
  <text text-anchor="middle" fill="#000000" stroke="#ffffff" stroke-width="0" font-family="serif" id="svg_158" x="1002.7787" y="-152.02809" font-size="24px" xml:space="preserve" transform="matrix(0.374979,0,0,0.542271,224.566,107.626)">Delete 4</text>
  <text text-anchor="middle" fill="#000000" stroke="#ffffff" stroke-width="0" font-family="serif" id="svg_159" x="880.41895" y="-37.043285" font-size="24px" xml:space="preserve" transform="matrix(0.374979,0,0,0.542271,224.566,107.626)">Delete 7</text>
  <text text-anchor="middle" fill="#000000" stroke="#ffffff" stroke-width="0" font-family="serif" id="svg_160" x="1009.0536" y="-35.958508" font-size="24px" xml:space="preserve" transform="matrix(0.374979,0,0,0.542271,224.566,107.626)">Delete 8</text>
  <text text-anchor="middle" fill="#000000" stroke="#ffffff" stroke-width="0" font-family="serif" id="svg_163" x="878.85022" y="139.77301" font-size="24px" xml:space="preserve" transform="matrix(0.374979,0,0,0.542271,224.566,107.626)">Delete 15</text>
  <text text-anchor="middle" fill="#000000" stroke="#ffffff" stroke-width="0" font-family="serif" id="svg_164" x="723.54742" y="136.51872" font-size="24px" xml:space="preserve" transform="matrix(0.374979,0,0,0.542271,224.566,107.626)">Delete 14</text>
  <text text-anchor="middle" fill="#000000" stroke="#ffffff" stroke-width="0" font-family="serif" id="svg_165" x="1001.2101" y="139.77301" font-size="24px" xml:space="preserve" transform="matrix(0.374979,0,0,0.542271,224.566,107.626)">Delete 16</text>
  <text text-anchor="middle" fill="#000000" stroke="#ffffff" stroke-width="0" font-family="serif" id="svg_172" x="929.60211" y="550.09265" font-size="24px" xml:space="preserve" transform="matrix(0.457603,0,0,0.61061,155.466,63.3268)">Visual Scroll/Nudge</text>
  <text id="svg_30" text-anchor="middle" fill="#00007f" stroke="#ffffff" stroke-width="0" font-family="serif" x="54.00896" y="640.853987" font-size="24px" xml:space="preserve" transform="matrix(0.335962, 0, 0, 0.395227, 9.85516, 172.632)">Deck 1</text>
  <text id="svg_31" text-anchor="middle" fill="#7f0000" stroke="#ffffff" stroke-width="0" font-family="serif" x="54.004878" y="734.46684" font-size="24px" xml:space="preserve" transform="matrix(0.335962, 0, 0, 0.395227, 9.85516, 172.632)">Deck 2</text>
  <text id="svg_40" text-anchor="middle" fill="#000000" stroke="#ffffff" stroke-width="0" font-family="serif" x="42.191592" y="613.440967" font-size="24px" xml:space="preserve" transform="matrix(0.427299, 0, 0, 0.66001, 23.1634, 45.1165)">Volume</text>
  <text id="svg_41" text-anchor="middle" fill="#000000" stroke="#ffffff" stroke-width="0" font-family="serif" x="107.01347" y="638.095801" font-size="24px" xml:space="preserve" transform="matrix(0.467918, 0, 0, 0.517731, 33.9242, 117.834)">Highs</text>
  <text id="svg_44" text-anchor="middle" fill="#000000" stroke="#ffffff" stroke-width="0" font-family="serif" x="170.382298" y="641.967325" font-size="24px" xml:space="preserve" transform="matrix(0.464267, 0, 0, 0.461668, 46.8949, 151.293)">Mids</text>
  <text id="svg_57" text-anchor="middle" fill="#000000" stroke="#ffffff" stroke-width="0" font-family="serif" x="234.95495" y="640.022095" font-size="24px" xml:space="preserve" transform="matrix(0.541964, 0, 0, 0.461668, 44.6651, 151.191)">Lows</text>
 </g>
</svg>