<?xml version="1.0" encoding="UTF-8"?>
<svg width="1280" height="960.0000000000001" xmlns="http://www.w3.org/2000/svg">
 <!-- Created with SVG-edit - http://svg-edit.googlecode.com/ -->

 <metadata id="metadata202">image/svg+xml</metadata>
 <g display="inline" id="g4" transform="matrix(2,0,0,2,1.5292582,4.9548757)">
  <title>outline</title>
  <path id="svg_32" d="m25.993832,77.361649l-17.967247,-11.243858l18.210043,-10.847061l-0.242796,22.090919z" stroke-width="3" stroke="#000000" fill="#ffffff"/>
  <path id="svg_36" d="m213.612045,426.401459l17.278732,-24.549927l17.279984,24.549927l-34.558716,0z" stroke-width="3" stroke="#000000" fill="#ffffff"/>
  <path id="svg_37" d="m248.174271,434.42038l-17.0168,24.732208l-17.539948,-24.364868l34.556747,-0.36734z" stroke-width="3" stroke="#000000" fill="#ffffff"/>
  <path id="svg_38" d="m582.649963,427.62442l17.278748,-24.549927l17.279968,24.549927l-34.558716,0z" stroke-width="3" stroke="#000000" fill="#ffffff"/>
  <path id="svg_39" d="m617.853271,435.643402l-17.016785,24.732178l-17.539978,-24.364868l34.556763,-0.36731z" stroke-width="3" stroke="#000000" fill="#ffffff"/>
  <rect id="svg_46" height="82.634888" width="92.2155" y="297.26193" x="214.07816" stroke-width="3" stroke="#000000" fill="none"/>
  <rect id="svg_50" height="82.634888" width="92.2155" y="200.85457" x="213.78008" stroke-width="3" stroke="#000000" fill="none"/>
  <rect id="svg_51" height="82.634888" width="92.2155" y="106.24204" x="213.47948" stroke-width="3" stroke="#000000" fill="#ffffff"/>
  <rect id="svg_52" height="82.634888" width="92.2155" y="11.63187" x="213.18002" stroke-width="3" stroke="#000000" fill="none"/>
  <rect id="svg_53" height="82.634888" width="92.2155" y="296.49713" x="320.08502" stroke-width="3" stroke="#000000" fill="none"/>
  <rect id="svg_54" height="82.634888" width="92.2155" y="200.08978" x="319.78693" stroke-width="3" stroke="#000000" fill="none"/>
  <rect id="svg_55" height="82.634888" width="92.2155" y="105.47726" x="319.48633" stroke-width="3" stroke="#000000" fill="none"/>
  <rect id="svg_56" height="82.634888" width="92.2155" y="10.867088" x="319.18689" stroke-width="3" stroke="#000000" fill="none"/>
  <rect id="svg_65" height="82.634888" width="92.2155" y="296.49799" x="426.84277" stroke-width="3" stroke="#000000" fill="none"/>
  <rect id="svg_66" height="82.634888" width="92.2155" y="200.09062" x="426.54471" stroke-width="3" stroke="#000000" fill="none"/>
  <rect id="svg_67" height="82.634888" width="92.2155" y="105.4781" x="426.24408" stroke-width="3" stroke="#000000" fill="none"/>
  <rect id="svg_68" height="82.634888" width="92.2155" y="10.867931" x="425.94464" stroke-width="3" stroke="#000000" fill="none"/>
  <rect id="svg_77" height="82.634888" width="92.2155" y="296.49689" x="532.24811" stroke-width="3" stroke="#000000" fill="none"/>
  <rect id="svg_78" height="82.634888" width="92.2155" y="200.08951" x="531.95007" stroke-width="3" stroke="#000000" fill="none"/>
  <rect id="svg_79" height="82.634888" width="92.2155" y="105.477" x="531.64941" stroke-width="3" stroke="#000000" fill="none"/>
  <rect id="svg_80" height="82.634888" width="92.2155" y="10.866821" x="531.34998" stroke-width="3" stroke="#000000" fill="none"/>
  <ellipse transform="matrix(1.3613568e-4,-0.99999999,0.99999999,1.3613568e-4,-9.1089611,845.8798)" ry="152.49428" rx="16.684473" id="svg_82" cy="427.49484" cx="418.44342" stroke-width="3" stroke="#000000" fill="#ffffff"/>
  <path id="svg_86" d="m36.100735,54.982372l18.045189,11.118282l-18.133911,10.973801l0.088722,-22.092083z" stroke-width="3" stroke="#000000" fill="#ffffff"/>
  <path id="svg_90" d="m25.087727,120.290649l-17.967251,-11.243851l18.210047,-10.847061l-0.242796,22.090912z" stroke-width="3" stroke="#000000" fill="#ffffff"/>
  <path id="svg_91" d="m35.849026,98.554184l18.045185,11.118271l-18.133907,10.973801l0.088722,-22.092072z" stroke-width="3" stroke="#000000" fill="#ffffff"/>
  <path id="svg_92" d="m25.087729,163.880493l-17.967267,-11.243851l18.210063,-10.847061l-0.242796,22.090912z" stroke-width="3" stroke="#000000" fill="#ffffff"/>
  <path id="svg_93" d="m35.837151,141.500687l18.045204,11.118271l-18.133926,10.973801l0.088722,-22.092072z" stroke-width="3" stroke="#000000" fill="#ffffff"/>
  <path id="svg_94" d="m25.742641,208.112518l-17.967267,-11.243851l18.210064,-10.847061l-0.242798,22.090912z" stroke-width="3" stroke="#000000" fill="#ffffff"/>
  <path id="svg_95" d="m35.836834,185.731628l18.045185,11.118271l-18.133907,10.973816l0.088722,-22.092087z" stroke-width="3" stroke="#000000" fill="#ffffff"/>
  <ellipse ry="10.89747" rx="73.076927" id="svg_96" cy="66.153801" cx="132.43585" stroke-width="3" stroke="#000000" fill="#ffffff"/>
  <ellipse id="svg_98" ry="10.89747" rx="73.076927" cy="109.74332" cx="132.11493" stroke-width="3" stroke="#000000" fill="#ffffff"/>
  <ellipse id="svg_99" ry="10.89747" rx="73.076927" cy="153.33333" cx="132.75729" stroke-width="3" stroke="#000000" fill="#ffffff"/>
  <ellipse id="svg_100" ry="10.89747" rx="73.076927" cy="197.56363" cx="132.75668" stroke-width="3" stroke="#000000" fill="#ffffff"/>
  <ellipse ry="37.173203" rx="41.647926" id="svg_101" cy="262.25113" cx="48.983242" stroke-width="3" stroke="#000000" fill="#ffffff"/>
  <ellipse id="svg_105" ry="37.173203" rx="40.994343" cy="261.90668" cx="152.82884" stroke-width="3" stroke="#000000" fill="#ffffff"/>
  <ellipse transform="matrix(-2.7925268e-5,-1,1,-2.7925268e-5,-355.83086,430.33108)" id="svg_110" ry="10.89747" rx="73.076927" cy="393.07611" cx="37.244404" stroke-width="3" stroke="#000000" fill="#ffffff" opacity="0.5"/>
  <ellipse id="svg_111" transform="matrix(-2.7925268e-5,-1,1,-2.7925268e-5,-312.24151,476.48521)" ry="10.89747" rx="73.076927" cy="394.36011" cx="82.115044" stroke-width="3" stroke="#000000" fill="#ffffff" opacity="0.5"/>
  <ellipse id="svg_112" transform="matrix(-2.7925268e-5,-1,1,-2.7925268e-5,-268.64849,520.07701)" ry="10.89747" rx="73.076927" cy="394.35898" cx="125.70629" stroke-width="3" stroke="#000000" fill="#ffffff" opacity="0.5"/>
  <ellipse id="svg_113" transform="matrix(-2.7925268e-5,-1,1,-2.7925268e-5,-225.64931,561.69299)" ry="10.89747" rx="73.076927" cy="393.66849" cx="168.01341" stroke-width="3" stroke="#000000" fill="#ffffff" opacity="0.5"/>
  <path id="svg_114" d="m84.90287,302.613342l17.042,-9.525421l17.042252,9.525421l-17.042252,9.525269l-17.042,-9.525269z" stroke-width="3" stroke="#000000" fill="#ffffff" opacity="0.5"/>
  <path id="svg_116" d="m79.541214,41.87944l-14.427483,-14.100756l14.427193,-14.101256l14.427254,14.100953l-14.426964,14.101059z" stroke-width="3" stroke="#000000" fill="#ffffff"/>
  <path id="svg_117" d="m136.192276,16.752413l0.403809,23.111029l-23.114716,-0.007504l-0.403458,-23.111006l23.114365,0.007481z" stroke-width="3" stroke="#000000" fill="#ffffff"/>
  <path id="svg_118" d="m159.647797,15.165904l21.317062,12.105147l-21.413605,11.934469l0.096542,-24.039618l0,0.000001z" stroke-width="3" stroke="#000000" fill="#ffffff"/>
  <path id="svg_119" d="m17.4352,20.19718l3.67761,-6.36946l6.369511,-3.677649l7.35533,0l6.369499,3.677649l3.677711,6.36946l0,7.355381l-3.677711,6.369471l-6.369499,3.677689l-7.35533,0l-6.369511,-3.677689l-3.67761,-6.369471l0,-7.355381z" stroke-width="3" stroke="#000000" fill="#ffffff"/>
 </g>
 <g display="inline" id="g52" transform="matrix(2,0,0,2,1.5292582,4.9548757)">
  <title>shading</title>
  <rect id="svg_127" height="381.04578" width="213.07188" y="3.538706" x="417.180194" stroke-width="3" stroke="#ffffff" fill="#ff7f00" opacity="0.5"/>
  <rect id="svg_129" height="71.241531" width="48.366177" y="395.81726" x="207.05881" stroke-width="3" stroke="#ffffff" fill="#007fff" opacity="0.5"/>
  <rect id="svg_133" height="164.05203" width="27.45046" y="49.738876" x="4.117866" stroke-width="3" stroke="#ffffff" fill="#007fff" opacity="0.5"/>
  <rect id="svg_134" height="165.35921" width="26.796837" y="49.41053" x="30.588549" stroke-width="3" stroke="#ffffff" fill="#ff7f00" opacity="0.5"/>
  <rect id="svg_136" height="71.241531" width="48.366177" y="396.1445" x="577.31989" stroke-width="3" stroke="#ffffff" fill="#ff7f00" opacity="0.5"/>
  <rect id="svg_137" height="192.22279" width="211.76468" y="193.13692" x="208.050897" stroke-width="3" stroke="#ffffff" fill="#007fff" opacity="0.5"/>
  <ellipse ry="38.562092" rx="43.790852" id="svg_138" cy="261.83005" cx="48.888882" stroke-width="3" stroke="#ffffff" fill="#007fff" opacity="0.5"/>
  <ellipse id="svg_139" ry="38.562092" rx="43.790852" cy="261.17642" cx="152.48387" stroke-width="3" stroke="#ffffff" fill="#ff7f00" opacity="0.5"/>
  <ellipse ry="23.529291" rx="165.35954" id="svg_213" cy="427.12408" cx="418.56229" stroke="#ffffff" fill="#7f00ff" opacity="0.45"/>
  <ellipse transform="matrix(0.00334055, 0.541262, -0.999994, 0.00180812, 429.867, 334.557)" id="svg_221" ry="19.256752" rx="74.822449" cy="347.579059" cx="42.273676" stroke-width="3" stroke="#ffffff" fill="#ff7f00" opacity="0.5"/>
  <ellipse id="svg_222" transform="matrix(0.00334055, 0.547723, -0.999994, 0.00182971, 475.145, 311.435)" ry="19.256752" rx="74.822449" cy="349.559545" cx="86.672876" stroke-width="3" stroke="#ffffff" fill="#007fff" opacity="0.5"/>
  <ellipse id="svg_223" transform="matrix(0.00334055, 0.541262, -0.999994, 0.00180812, 516.837, 288.837)" ry="19.256752" rx="74.822449" cy="349.553533" cx="126.699017" stroke-width="3" stroke="#ffffff" fill="#ff7f00" opacity="0.5"/>
  <ellipse id="svg_224" transform="matrix(0.00334055, 0.554173, -0.999994, 0.00185125, 560.484, 264.957)" ry="19.256752" rx="74.822449" cy="523.193966" cx="165.606377" stroke-width="3" stroke="#ffffff" fill="#007fff" opacity="0.5"/>
  <ellipse id="svg_225" transform="matrix(-1,-1.7453293e-5,1.7453293e-5,-1,266.40654,396.86232)" ry="19.256752" rx="74.822449" cy="198.42946" cx="133.20459" stroke="#ffffff" fill="#7f00ff" opacity="0.45"/>
  <ellipse id="svg_227" transform="matrix(-1,-1.7453293e-5,1.7453293e-5,-1,267.71132,306.67034)" ry="19.256752" rx="74.822449" cy="153.33504" cx="133.85571" stroke="#ffffff" fill="#7f00ff" opacity="0.45"/>
  <ellipse id="svg_228" transform="matrix(-1,-1.7453293e-5,1.7453293e-5,-1,267.71209,219.09234)" ry="19.256752" rx="74.822449" cy="109.54418" cx="133.85571" stroke="#ffffff" fill="#7f00ff" opacity="0.45"/>
  <ellipse id="svg_229" transform="matrix(-1,-1.7453293e-5,1.7453293e-5,-1,262.47886,130.20149)" ry="19.256752" rx="74.822449" cy="65.099731" cx="131.24135" stroke="#ffffff" fill="#7f00ff" opacity="0.45"/>
  <ellipse ry="11.764706" rx="18.954248" id="svg_230" cy="302.35291" cx="102.48366" stroke="#ffffff" fill="#7f00ff" opacity="0.15"/>
  <rect id="svg_233" height="24.70649" width="82.352921" y="452.35239" x="280.0015" stroke-width="3" stroke="#ffffff" fill="#007fff" opacity="0.5"/>
  <rect id="svg_236" height="24.118362" width="84.11763" y="451.47031" x="464.11746" stroke-width="3" stroke="#ffffff" fill="#ff7f00" opacity="0.5"/>
  <rect id="svg_239" height="24.70649" width="82.352921" y="452.35315" x="375.29626" stroke-width="3" stroke="#ffffff" fill="#7f00ff" opacity="0.5"/>
  <rect x="109.41174" y="13.529405" width="30.588135" height="29.411762" id="svg_33" stroke="#ffffff" fill="#7f00ff" opacity="0.45"/>
  <rect x="65.350044" y="14.152843" width="28.710402" height="28.163858" id="svg_34" transform="matrix(0.70710678,-0.70710678,0.70710678,0.70710678,3.3803083,64.628786)" stroke="#ffffff" fill="#7f00ff" opacity="0.45"/>
  <path d="m156.038956,8.149811l32.424576,18.52829l-32.424576,18.52832l0,-37.05661z" id="svg_42" stroke="#ffffff" fill="#7f00ff" opacity="0.45"/>
  <rect height="192.22279" width="211.76468" y="3.888883" x="207.141378" id="svg_168" stroke-width="3" stroke="#ffffff" fill="#ff7f00" opacity="0.5"/>
  <ellipse transform="rotate(90, 104.997, 410.504) matrix(0.00250563, 1.15334, -0.750062, 0.00385281, 388.383, 129.119)" ry="19.256752" rx="74.822449" cy="378.626312" cx="242.707399" stroke-width="3" stroke="#ffffff" fill="#007fff" opacity="0.5" id="svg_12"/>
  <ellipse transform="rotate(90, 106.003, 444.5) matrix(0.00250563, 1.15334, -0.750062, 0.00385281, 388.383, 129.119)" ry="19.256752" rx="74.822449" cy="377.383758" cx="272.189454" stroke-width="3" stroke="#ffffff" fill="#ff7f00" opacity="0.5" id="svg_20"/>
 </g>
 <g display="inline" id="g81" transform="matrix(2,0,0,2,1.5292582,4.9548757)">
  <title>text</title>
  <text id="svg_154" transform="matrix(0.357556,0,0,0.468599,221.584,116.637)" xml:space="preserve" font-size="24px" y="339.46524" x="641.2027" font-family="serif" stroke-width="0" stroke="#ffffff" fill="#000000" text-anchor="middle">Kill Mids</text>
  <text id="svg_155" transform="matrix(0.350777,0,0,0.50571,223.995,101.206)" xml:space="preserve" font-size="24px" y="225.64778" x="644.85718" font-family="serif" stroke-width="0" stroke="#ffffff" fill="#000000" text-anchor="middle">Kill Highs</text>
  <text id="svg_156" transform="matrix(0.326585,0,0,0.50571,233.622,107.73)" xml:space="preserve" font-size="24px" y="402.3468" x="663.14526" font-family="serif" stroke-width="0" stroke="#ffffff" fill="#000000" text-anchor="middle">Kill Lows</text>
  <text id="svg_161" transform="matrix(0.382324,0,0,0.54913,222.43,76.5058)" xml:space="preserve" font-size="24px" y="249.41241" x="726.07971" font-family="serif" stroke-width="0" stroke="#ffffff" fill="#000000" text-anchor="middle">Double</text>
  <text id="svg_162" transform="matrix(0.383818,0,0,0.530249,221.924,92.2827)" xml:space="preserve" font-size="24px" y="327.23303" x="725.83331" font-family="serif" stroke-width="0" stroke="#ffffff" fill="#000000" text-anchor="middle">Halve</text>
  <text transform="matrix(0.333265,0,0,0.507533,-24.3719,23.2327)" xml:space="preserve" font-size="24px" id="svg_198" y="56.566044" x="166.28543" font-family="serif" stroke="#7c6666" fill="#000000" text-anchor="middle">Keylock</text>
  <text id="svg_199" transform="matrix(0.333265,0,0,0.507533,-24.3719,23.2327)" xml:space="preserve" font-size="24px" y="142.37183" x="175.50591" font-family="serif" stroke="#7c6666" fill="#000000" text-anchor="middle">Headphones</text>
  <text id="svg_200" transform="matrix(0.333265,0,0,0.507533,-24.3719,23.2327)" xml:space="preserve" font-size="24px" y="312.36008" x="162.95367" font-family="serif" stroke="#7c6666" fill="#000000" text-anchor="middle">Beatgrid</text>
  <text transform="matrix(0.65796,0,0,0.476293,28.6996,23.6522)" xml:space="preserve" font-size="24px" id="svg_202" y="94.01281" x="155.53096" font-family="serif" stroke="#000000" fill="#3f7f00" text-anchor="middle">Master</text>
  <text id="svg_203" transform="matrix(0.65796,0,0,0.476293,28.6996,23.6522)" xml:space="preserve" font-size="24px" y="281.32983" x="154.48235" font-family="serif" stroke="#000000" fill="#3f7f00" text-anchor="middle">Flanger LFO</text>
  <text id="svg_204" transform="matrix(0.572687,0,0,0.404134,35.0417,48.564)" xml:space="preserve" font-size="24px" y="376.20187" x="165.12646" font-family="serif" stroke="#000000" fill="#3f7f00" text-anchor="middle">Flanger Depth</text>
  <text id="svg_205" transform="matrix(0.65796,0,0,0.476293,28.6996,23.6522)" xml:space="preserve" font-size="24px" y="186.78157" x="160.93922" font-family="serif" stroke="#000000" fill="#3f7f00" text-anchor="middle">Headphones</text>
  <text transform="matrix(0.667958,0,0,0.680806,6.96573,78.365)" id="svg_206" xml:space="preserve" font-size="24px" y="289.63586" x="63.108025" font-family="serif" stroke-width="0" stroke="#ffffff" fill="#00007f" text-anchor="middle">Scratch</text>
  <text transform="matrix(0.742972,0,0,0.67711,21.0204,80.8891)" id="svg_207" xml:space="preserve" font-size="24px" y="287.3483" x="180.51535" font-family="serif" stroke-width="0" stroke="#ffffff" fill="#7f0000" text-anchor="middle">Scratch</text>
  <text id="svg_209" transform="matrix(0.474087,0,0,0.673817,147.29,30.699)" xml:space="preserve" font-size="24px" y="546.66156" x="219.63539" font-family="serif" stroke-width="0" stroke="#ffffff" fill="#000000" text-anchor="middle">Visual Scroll/Nudge</text>
  <text transform="matrix(0.652119, 0, 0, 0.486461, 23.0335, 136.924)" xml:space="preserve" font-size="24px" id="svg_232" y="326.54297" x="119.875977" font-family="serif" stroke-width="0" stroke="#ffffff" fill="#000000" text-anchor="middle">Bank</text>
  <text transform="matrix(0.822304,0,0,0.936975,48.1244,24.2312)" xml:space="preserve" font-size="24px" id="svg_235" y="478.04007" x="335.27655" font-family="serif" stroke-width="0" stroke="#ffffff" fill="#00007f" text-anchor="middle">DECK 1</text>
  <text id="svg_238" transform="matrix(0.822304,0,0,0.936975,48.1244,24.2312)" xml:space="preserve" font-size="24px" y="476.97156" x="557.39441" font-family="serif" stroke-width="0" stroke="#ffffff" fill="#7f0000" text-anchor="middle">DECK 2</text>
  <text xml:space="preserve" font-size="24px" id="svg_231" y="436.86273" x="420.52289" font-family="serif" stroke-width="0" stroke="#ffffff" fill="#00007f" opacity="0.85" text-anchor="middle">Xfader</text>
  <text id="svg_241" transform="matrix(0.803417,0,0,0.844391,56.0228,69.2374)" xml:space="preserve" font-size="24px" y="476.83606" x="450.10614" font-family="serif" stroke-width="0" stroke="#ffffff" fill="#00007f" text-anchor="middle">Misc</text>
  <text transform="matrix(0.368329,0,0,0.556156,208.503,73.6581)" xml:space="preserve" font-size="24px" y="536.59467" x="951.17651" id="svg_21" font-family="serif" stroke-width="0" stroke="#ffffff" fill="#000000" text-anchor="middle">JumpSync</text>
  <text transform="matrix(0.401343,0,0,0.589798,166.353,55.2865)" xml:space="preserve" font-size="24px" y="536.60034" x="1093.3949" id="svg_22" font-family="serif" stroke-width="0" stroke="#ffffff" fill="#000000" text-anchor="middle">Reloop</text>
  <text transform="matrix(0.412071,0,0,0.657068,165.759,27.0783)" xml:space="preserve" font-size="24px" y="525.15344" x="816.83484" id="svg_23" font-family="serif" stroke-width="0" stroke="#ffffff" fill="#000000" text-anchor="middle">Sync</text>
  <text transform="matrix(0.469083,0,0,0.624265,146.921,44.7382)" xml:space="preserve" font-size="24px" y="525.02454" x="631.06213" id="svg_24" font-family="serif" stroke-width="0" stroke="#ffffff" fill="#000000" text-anchor="middle">Cue</text>
  <text transform="matrix(0.333265,0,0,0.507533,-24.3719,23.2327)" xml:space="preserve" font-size="24px" y="223.68852" x="171.97726" id="svg_26" font-family="serif" stroke="#7c6666" fill="#000000" text-anchor="middle">Quantize Cues</text>
  <text transform="matrix(0.333265,0,0,0.507533,-24.3719,23.2327)" xml:space="preserve" font-size="24px" y="9.26719" x="165.99461" id="svg_27" font-family="serif" stroke="#7c6666" fill="#000000" text-anchor="middle">Mode</text>
  <text transform="matrix(0.415912,0,0,0.551472,-37.6103,28.0265)" xml:space="preserve" font-size="24px" y="-30.989721" x="268.63306" id="svg_28" font-family="serif" stroke="#7c6666" fill="#000000" text-anchor="middle">Record</text>
  <text transform="matrix(0.329296,0,0,0.572779,-37.7124,26.5506)" xml:space="preserve" font-size="24px" y="-25.873112" x="496.88925" id="svg_29" font-family="serif" stroke="#7c6666" fill="#000000" text-anchor="middle">Assert LEDs</text>
  <text transform="matrix(0.296584,0,0,0.521118,-17.9257,25.6454)" xml:space="preserve" font-size="24px" y="-26.599615" x="681.98578" id="svg_43" font-family="serif" stroke="#7c6666" fill="#000000" text-anchor="middle">Play/Scratch</text>
  <text transform="matrix(0.357556,0,0,0.468599,221.584,116.637)" xml:space="preserve" font-size="24px" y="343.22083" x="786.89056" id="svg_45" font-family="serif" stroke-width="0" stroke="#ffffff" fill="#000000" text-anchor="middle">Loop</text>
  <text transform="matrix(0.357556,0,0,0.468599,221.584,116.637)" xml:space="preserve" font-size="24px" y="232.75633" x="788.53375" id="svg_47" font-family="serif" stroke-width="0" stroke="#ffffff" fill="#000000" text-anchor="middle">Loop</text>
  <text transform="matrix(0.373065,0,0,0.586555,194.903,56.0666)" xml:space="preserve" font-size="24px" y="439.80148" x="824.93158" id="svg_48" font-family="serif" stroke-width="0" stroke="#ffffff" fill="#000000" text-anchor="middle">Loop</text>
  <text transform="matrix(0.362743,0,0,0.570831,201.952,62.3563)" xml:space="preserve" font-size="24px" y="435.4162" x="954.7514" id="svg_49" font-family="serif" stroke-width="0" stroke="#ffffff" fill="#000000" text-anchor="middle">Jump</text>
  <text transform="matrix(0.280037,0,0,0.709232,276.404,-0.530643)" xml:space="preserve" font-size="24px" y="463.73709" x="989.86639" id="svg_58" font-family="serif" stroke-width="0" stroke="#ffffff" fill="#000000" text-anchor="middle">Backward</text>
  <text transform="matrix(0.362743,0,0,0.570831,201.952,62.3563)" xml:space="preserve" font-size="24px" y="436.25424" x="1100.1775" id="svg_59" font-family="serif" stroke-width="0" stroke="#ffffff" fill="#000000" text-anchor="middle">Jump</text>
  <text transform="matrix(0.280037,0,0,0.709232,276.404,-0.530643)" xml:space="preserve" font-size="24px" y="464.11404" x="1170.2362" id="svg_60" font-family="serif" stroke-width="0" stroke="#ffffff" fill="#000000" text-anchor="middle">Forward</text>
  <text transform="matrix(0.688214, 0, 0, 0.508179, -36.0864, 118.365)" xml:space="preserve" font-size="24px" y="199.25014" x="937.50452" id="svg_63" font-family="serif" stroke-width="0" stroke="#ffffff" fill="#000000" text-anchor="middle">4</text>
  <text transform="matrix(0.688214, 0, 0, 0.508179, -36.0864, 118.365)" xml:space="preserve" font-size="24px" y="303.060889" x="935.537154" id="svg_64" font-family="serif" stroke-width="0" stroke="#ffffff" fill="#000000" text-anchor="middle">16</text>
  <text transform="matrix(0.688214, 0, 0, 0.508179, -36.0864, 118.365)" xml:space="preserve" font-size="24px" y="199.00363" x="843.91187" id="svg_69" font-family="serif" stroke-width="0" stroke="#ffffff" fill="#000000" text-anchor="middle">1</text>
  <text transform="matrix(0.688214, 0, 0, 0.508179, -36.0864, 118.365)" xml:space="preserve" font-size="24px" y="303.18393" x="845.62048" id="svg_70" font-family="serif" stroke-width="0" stroke="#ffffff" fill="#000000" text-anchor="middle">8</text>
  <text transform="matrix(0.357556,0,0,0.468599,221.584,116.637)" xml:space="preserve" font-size="24px" y="337.09634" x="469.55481" id="svg_71" font-family="serif" stroke-width="0" stroke="#ffffff" fill="#000000" text-anchor="middle">Kill Mids</text>
  <text transform="matrix(0.350777,0,0,0.50571,223.995,101.206)" xml:space="preserve" font-size="24px" y="223.45271" x="469.89206" id="svg_72" font-family="serif" stroke-width="0" stroke="#ffffff" fill="#000000" text-anchor="middle">Kill Highs</text>
  <text transform="matrix(0.326585,0,0,0.50571,233.622,107.73)" xml:space="preserve" font-size="24px" y="400.15173" x="475.21951" id="svg_73" font-family="serif" stroke-width="0" stroke="#ffffff" fill="#000000" text-anchor="middle">Kill Lows</text>
  <text transform="matrix(0.469083,0,0,0.624265,146.921,44.7382)" xml:space="preserve" font-size="24px" y="524.18866" x="532.82874" id="svg_74" font-family="serif" stroke-width="0" stroke="#ffffff" fill="#000000" text-anchor="middle">Cue</text>
  <text transform="matrix(0.382324,0,0,0.54913,222.43,76.5058)" xml:space="preserve" font-size="24px" y="248.89479" x="304.43274" id="svg_75" font-family="serif" stroke-width="0" stroke="#ffffff" fill="#000000" text-anchor="middle">Double</text>
  <text transform="matrix(0.383818,0,0,0.530249,221.924,92.2827)" xml:space="preserve" font-size="24px" y="330.02502" x="299.69717" id="svg_76" font-family="serif" stroke-width="0" stroke="#ffffff" fill="#000000" text-anchor="middle">Halve</text>
  <text transform="matrix(0.412071,0,0,0.657068,165.759,27.0783)" xml:space="preserve" font-size="24px" y="524.72083" x="418.48856" id="svg_81" font-family="serif" stroke-width="0" stroke="#ffffff" fill="#000000" text-anchor="middle">Sync</text>
  <text transform="matrix(0.357556,0,0,0.468599,221.584,116.637)" xml:space="preserve" font-size="24px" y="343.86957" x="321.22955" id="svg_83" font-family="serif" stroke-width="0" stroke="#ffffff" fill="#000000" text-anchor="middle">Loop</text>
  <text transform="matrix(0.357556,0,0,0.468599,221.584,116.637)" xml:space="preserve" font-size="24px" y="232.14975" x="317.93729" id="svg_84" font-family="serif" stroke-width="0" stroke="#ffffff" fill="#000000" text-anchor="middle">Loop</text>
  <text transform="matrix(0.373065,0,0,0.586555,194.903,56.0666)" xml:space="preserve" font-size="24px" y="438.31403" x="380.20572" id="svg_85" font-family="serif" stroke-width="0" stroke="#ffffff" fill="#000000" text-anchor="middle">Loop</text>
  <text transform="matrix(0.368329,0,0,0.556156,208.503,73.6581)" xml:space="preserve" font-size="24px" y="536.45258" x="88.212151" id="svg_87" font-family="serif" stroke-width="0" stroke="#ffffff" fill="#000000" text-anchor="middle">JumpSync</text>
  <text transform="matrix(0.401343,0,0,0.589798,166.353,55.2865)" xml:space="preserve" font-size="24px" y="536.46631" x="301.41696" id="svg_88" font-family="serif" stroke-width="0" stroke="#ffffff" fill="#000000" text-anchor="middle">Reloop</text>
  <text transform="matrix(0.362743,0,0,0.570831,201.952,62.3563)" xml:space="preserve" font-size="24px" y="435.27771" x="78.497986" id="svg_89" font-family="serif" stroke-width="0" stroke="#ffffff" fill="#000000" text-anchor="middle">Jump</text>
  <text transform="matrix(0.280037,0,0,0.709232,276.404,-0.530643)" xml:space="preserve" font-size="24px" y="463.62564" x="-145.17932" id="svg_97" font-family="serif" stroke-width="0" stroke="#ffffff" fill="#000000" text-anchor="middle">Backward</text>
  <text transform="matrix(0.362743,0,0,0.570831,201.952,62.3563)" xml:space="preserve" font-size="24px" y="436.11578" x="223.92401" id="svg_102" font-family="serif" stroke-width="0" stroke="#ffffff" fill="#000000" text-anchor="middle">Jump</text>
  <text transform="matrix(0.280037,0,0,0.709232,276.404,-0.530643)" xml:space="preserve" font-size="24px" y="464.00259" x="37.290993" id="svg_103" font-family="serif" stroke-width="0" stroke="#ffffff" fill="#000000" text-anchor="middle">Forward</text>
  <text transform="matrix(0.688214, 0, 0, 0.508179, -36.0864, 118.365)" xml:space="preserve" font-size="24px" y="199.09457" x="475.64993" id="svg_104" font-family="serif" stroke-width="0" stroke="#ffffff" fill="#000000" text-anchor="middle">4</text>
  <text transform="matrix(0.688214, 0, 0, 0.508179, -36.0864, 118.365)" xml:space="preserve" font-size="24px" y="304.873129" x="473.682604" id="svg_106" font-family="serif" stroke-width="0" stroke="#ffffff" fill="#000000" text-anchor="middle">16</text>
  <text transform="matrix(0.688214, 0, 0, 0.508179, -36.0864, 118.365)" xml:space="preserve" font-size="24px" y="198.84807" x="382.05731" id="svg_107" font-family="serif" stroke-width="0" stroke="#ffffff" fill="#000000" text-anchor="middle">1</text>
  <text transform="matrix(0.688214, 0, 0, 0.508179, -36.0864, 118.365)" xml:space="preserve" font-size="24px" y="303.02838" x="383.7659" id="svg_108" font-family="serif" stroke-width="0" stroke="#ffffff" fill="#000000" text-anchor="middle">8</text>
  <text transform="matrix(0.652119,0,0,0.486461,23.0335,136.924)" xml:space="preserve" font-size="24px" y="418.11301" x="-19.597731" id="svg_115" font-family="serif" stroke-width="0" stroke="#ffffff" fill="#000000" opacity="0.85" text-anchor="middle">1:</text>
  <text transform="matrix(0.667958,0,0,0.680806,6.96573,78.365)" xml:space="preserve" font-size="24px" y="262.11945" x="63.54937" id="svg_122" font-family="serif" stroke-width="0" stroke="#ffffff" fill="#00007f" text-anchor="middle">Play/</text>
  <text transform="matrix(0.742972,0,0,0.67711,21.0204,80.8891)" xml:space="preserve" font-size="24px" y="258.03238" x="179.13971" id="svg_124" font-family="serif" stroke-width="0" stroke="#ffffff" fill="#7f0000" text-anchor="middle">Play/</text>
  <text transform="matrix(0.652119,0,0,0.486461,23.0335,136.924)" xml:space="preserve" font-size="24px" y="493.07999" x="-19.08363" id="svg_128" font-family="serif" stroke-width="0" stroke="#ffffff" fill="#000000" opacity="0.85" text-anchor="middle">2:</text>
  <text transform="matrix(0.652119,0,0,0.486461,23.0335,136.924)" xml:space="preserve" font-size="24px" y="568.05121" x="-19.083632" id="svg_130" font-family="serif" stroke-width="0" stroke="#ffffff" fill="#000000" opacity="0.85" text-anchor="middle">3:</text>
  <text transform="matrix(0.652119,0,0,0.486461,23.0335,136.924)" xml:space="preserve" font-size="24px" y="641.81464" x="-17.2806" id="svg_132" font-family="serif" stroke-width="0" stroke="#ffffff" fill="#000000" opacity="0.85" text-anchor="middle">4:</text>
  <text transform="matrix(0.652119,0,0,0.486461,23.0335,136.924)" xml:space="preserve" font-size="24px" y="419.3212" x="188.3824" id="svg_135" font-family="serif" stroke-width="0" stroke="#ffffff" fill="#000000" text-anchor="middle">Cursors</text>
  <text transform="matrix(0.652119,0,0,0.486461,23.0335,136.924)" xml:space="preserve" font-size="24px" y="419.31693" x="55.786388" id="svg_140" font-family="serif" stroke-width="0" stroke="#ffffff" fill="#000000" text-anchor="middle">Zooms</text>
  <text transform="matrix(0.652119,0,0,0.486461,23.0335,136.924)" xml:space="preserve" font-size="24px" y="493.07938" x="53.97879" id="svg_141" font-family="serif" stroke-width="0" stroke="#ffffff" fill="#000000" text-anchor="middle">Gains</text>
  <text transform="matrix(0.652119,0,0,0.486461,23.0335,136.924)" xml:space="preserve" font-size="24px" y="491.86969" x="189.28574" id="svg_143" font-family="serif" stroke-width="0" stroke="#ffffff" fill="#000000" text-anchor="middle">Rates</text>
  <text transform="matrix(0.464267, 0, 0, 0.461668, 46.8949, 151.293)" xml:space="preserve" font-size="24px" y="570.889322" x="168.506016" id="svg_145" font-family="serif" stroke-width="0" stroke="#ffffff" fill="#000000" text-anchor="middle">Mids</text>
  <text transform="matrix(0.467918, 0, 0, 0.517731, 33.9242, 117.834)" xml:space="preserve" font-size="24px" y="574.899359" x="102.680767" id="svg_146" font-family="serif" stroke-width="0" stroke="#ffffff" fill="#000000" text-anchor="middle">Highs</text>
  <text transform="matrix(0.541964, 0, 0, 0.461668, 44.6651, 151.191)" xml:space="preserve" font-size="24px" y="571.110169" x="237.596552" id="svg_147" font-family="serif" stroke-width="0" stroke="#ffffff" fill="#000000" text-anchor="middle">Lows</text>
  <text transform="matrix(0.427299, 0, 0, 0.66001, 23.1634, 45.1165)" xml:space="preserve" font-size="24px" y="561.713473" x="39.375961" id="svg_148" font-family="serif" stroke-width="0" stroke="#ffffff" fill="#000000" text-anchor="middle">Volume</text>
  <text transform="matrix(0.529758, 0, 0, 0.419723, 21.7909, 174.335)" xml:space="preserve" font-size="24px" y="318.949308" x="152.742951" id="svg_149" font-family="serif" stroke-width="0" stroke="#ffffff" fill="#000000" text-anchor="middle">Vertical Sliders</text>
  <text transform="matrix(0.335962, 0, 0, 0.395227, 9.85516, 172.632)" xml:space="preserve" font-size="24px" y="362.755252" x="80.041919" id="svg_150" font-family="serif" stroke-width="0" stroke="#ffffff" fill="#00007f" text-anchor="middle">Deck 1</text>
  <text transform="matrix(0.335962, 0, 0, 0.395227, 9.85516, 172.632)" xml:space="preserve" font-size="24px" y="370.319336" x="350.61115" id="svg_151" font-family="serif" stroke-width="0" stroke="#ffffff" fill="#00007f" text-anchor="middle">Deck 1</text>
  <text transform="matrix(0.335962, 0, 0, 0.395227, 9.85516, 172.632)" xml:space="preserve" font-size="24px" y="369.274204" x="212.29568" id="svg_152" font-family="serif" stroke-width="0" stroke="#ffffff" fill="#7f0000" text-anchor="middle">Deck 2</text>
  <text transform="matrix(0.335962, 0, 0, 0.395227, 9.85516, 172.632)" xml:space="preserve" font-size="24px" y="369.273344" x="477.372124" id="svg_153" font-family="serif" stroke-width="0" stroke="#ffffff" fill="#7f0000" text-anchor="middle">Deck 2</text>
  <text transform="matrix(0.457603,0,0,0.61061,155.466,63.3268)" xml:space="preserve" font-size="24px" y="550.09265" x="929.60211" id="svg_172" font-family="serif" stroke-width="0" stroke="#ffffff" fill="#000000" text-anchor="middle">Visual Scroll/Nudge</text>
  <text transform="matrix(0.335962, 0, 0, 0.395227, 9.85516, 172.632)" xml:space="preserve" font-size="24px" y="640.853987" x="54.00896" font-family="serif" stroke-width="0" stroke="#ffffff" fill="#00007f" text-anchor="middle" id="svg_30">Deck 1</text>
  <text transform="matrix(0.335962, 0, 0, 0.395227, 9.85516, 172.632)" xml:space="preserve" font-size="24px" y="734.46684" x="54.004878" font-family="serif" stroke-width="0" stroke="#ffffff" fill="#7f0000" text-anchor="middle" id="svg_31">Deck 2</text>
  <text transform="matrix(0.427299, 0, 0, 0.66001, 23.1634, 45.1165)" xml:space="preserve" font-size="24px" y="613.440967" x="42.191592" font-family="serif" stroke-width="0" stroke="#ffffff" fill="#000000" text-anchor="middle" id="svg_40">Volume</text>
  <text transform="matrix(0.467918, 0, 0, 0.517731, 33.9242, 117.834)" xml:space="preserve" font-size="24px" y="638.095801" x="107.01347" font-family="serif" stroke-width="0" stroke="#ffffff" fill="#000000" text-anchor="middle" id="svg_41">Highs</text>
  <text transform="matrix(0.464267, 0, 0, 0.461668, 46.8949, 151.293)" xml:space="preserve" font-size="24px" y="641.967325" x="170.382298" font-family="serif" stroke-width="0" stroke="#ffffff" fill="#000000" text-anchor="middle" id="svg_44">Mids</text>
  <text transform="matrix(0.541964, 0, 0, 0.461668, 44.6651, 151.191)" xml:space="preserve" font-size="24px" y="640.022095" x="234.95495" font-family="serif" stroke-width="0" stroke="#ffffff" fill="#000000" text-anchor="middle" id="svg_57">Lows</text>
  <text id="svg_166" transform="matrix(0.374979, 0, 0, 0.542271, 224.566, 107.626)" xml:space="preserve" font-size="24px" y="-149.709179" x="582.282961" font-family="serif" stroke-width="0" stroke="#ffffff" fill="#000000" text-anchor="middle">Cue 1</text>
  <text id="svg_169" transform="matrix(0.374979, 0, 0, 0.542271, 224.566, 107.626)" xml:space="preserve" font-size="24px" y="-148.392589" x="729.56529" font-family="serif" stroke-width="0" stroke="#ffffff" fill="#000000" text-anchor="middle">Cue 2</text>
  <text id="svg_170" transform="matrix(0.374979, 0, 0, 0.542271, 224.566, 107.626)" xml:space="preserve" font-size="24px" y="-150.255329" x="872.49741" font-family="serif" stroke-width="0" stroke="#ffffff" fill="#000000" text-anchor="middle">Cue 3</text>
  <text id="svg_173" transform="matrix(0.374979, 0, 0, 0.542271, 224.566, 107.626)" xml:space="preserve" font-size="24px" y="-148.938739" x="1019.77972" font-family="serif" stroke-width="0" stroke="#ffffff" fill="#000000" text-anchor="middle">Cue 4</text>
  <text id="svg_174" transform="matrix(0.374979, 0, 0, 0.542271, 224.566, 107.626)" xml:space="preserve" font-size="24px" y="-39.25024" x="581.762383" font-family="serif" stroke-width="0" stroke="#ffffff" fill="#000000" text-anchor="middle">Cue 5</text>
  <text id="svg_177" transform="matrix(0.374979, 0, 0, 0.542271, 224.566, 107.626)" xml:space="preserve" font-size="24px" y="-39.01841" x="730.61342" font-family="serif" stroke-width="0" stroke="#ffffff" fill="#000000" text-anchor="middle">Cue 6</text>
  <text id="svg_178" transform="matrix(0.374979, 0, 0, 0.542271, 224.566, 107.626)" xml:space="preserve" font-size="24px" y="-40.576054" x="867.26859" font-family="serif" stroke-width="0" stroke="#ffffff" fill="#000000" text-anchor="middle">Cue 7</text>
  <text id="svg_181" transform="matrix(0.374979, 0, 0, 0.542271, 224.566, 107.626)" xml:space="preserve" font-size="24px" y="-39.259461" x="1016.11963" font-family="serif" stroke-width="0" stroke="#ffffff" fill="#000000" text-anchor="middle">Cue 8</text>
  <text id="svg_1" transform="matrix(0.374979, 0, 0, 0.542271, 224.566, 107.626)" xml:space="preserve" font-size="24px" y="31.322498" x="584.546561" font-family="serif" stroke-width="0" stroke="#ffffff" fill="#000000" text-anchor="middle">Cue 9</text>
  <text id="svg_2" transform="matrix(0.374979, 0, 0, 0.542271, 224.566, 107.626)" xml:space="preserve" font-size="24px" y="31.322498" x="728.87114" font-family="serif" stroke-width="0" stroke="#ffffff" fill="#000000" text-anchor="middle">Cue 10</text>
  <text id="svg_3" transform="matrix(0.374979, 0, 0, 0.542271, 224.566, 107.626)" xml:space="preserve" font-size="24px" y="29.152973" x="866.91168" font-family="serif" stroke-width="0" stroke="#ffffff" fill="#000000" text-anchor="middle">Cue 11</text>
  <text id="svg_4" transform="matrix(0.374979, 0, 0, 0.542271, 224.566, 107.626)" xml:space="preserve" font-size="24px" y="28.066944" x="1012.80374" font-family="serif" stroke-width="0" stroke="#ffffff" fill="#000000" text-anchor="middle">Cue 12</text>
  <text id="svg_5" transform="matrix(0.374979, 0, 0, 0.542271, 224.566, 107.626)" xml:space="preserve" font-size="24px" y="139.799191" x="589.249081" font-family="serif" stroke-width="0" stroke="#ffffff" fill="#000000" text-anchor="middle">Cue 13</text>
  <text id="svg_6" transform="matrix(0.374979, 0, 0, 0.542271, 224.566, 107.626)" xml:space="preserve" font-size="24px" y="139.798351" x="725.73436" font-family="serif" stroke-width="0" stroke="#ffffff" fill="#000000" text-anchor="middle">Cue 14</text>
  <text id="svg_7" transform="matrix(0.374979, 0, 0, 0.542271, 224.566, 107.626)" xml:space="preserve" font-size="24px" y="135.457181" x="874.75775" font-family="serif" stroke-width="0" stroke="#ffffff" fill="#000000" text-anchor="middle">Cue 15</text>
  <text id="svg_8" transform="matrix(0.374979, 0, 0, 0.542271, 224.566, 107.626)" xml:space="preserve" font-size="24px" y="133.286831" x="1008.09763" font-family="serif" stroke-width="0" stroke="#ffffff" fill="#000000" text-anchor="middle">Cue 16</text>
  <text id="svg_182" transform="matrix(0.374979, 0, 0, 0.542271, 224.566, 107.626)" xml:space="preserve" font-size="24px" y="-149.66701" x="28.329545" font-family="serif" stroke-width="0" stroke="#ffffff" fill="#000000" text-anchor="middle">Delete 1</text>
  <text id="svg_185" transform="matrix(0.374979, 0, 0, 0.542271, 224.566, 107.626)" xml:space="preserve" font-size="24px" y="-150.51993" x="155.218585" font-family="serif" stroke-width="0" stroke="#ffffff" fill="#000000" text-anchor="middle">Delete 2</text>
  <text id="svg_9" transform="matrix(0.374979, 0, 0, 0.542271, 224.566, 107.626)" xml:space="preserve" font-size="24px" y="-35.924633" x="28.765765" font-family="serif" stroke-width="0" stroke="#ffffff" fill="#000000" text-anchor="middle">Delete 5</text>
  <text id="svg_10" transform="matrix(0.374979, 0, 0, 0.542271, 224.566, 107.626)" xml:space="preserve" font-size="24px" y="-34.60804" x="157.223525" font-family="serif" stroke-width="0" stroke="#ffffff" fill="#000000" text-anchor="middle">Delete 6</text>
  <text id="svg_13" transform="matrix(0.343299, 0, 0, 0.525225, 241.598, 107.584)" xml:space="preserve" font-size="24px" y="27.193722" x="-20.293124" font-family="serif" stroke-width="0" stroke="#ffffff" fill="#000000" text-anchor="middle">Delete 9</text>
  <text id="svg_14" transform="matrix(0.34706, 0, 0, 0.559317, 242.914, 107.687)" xml:space="preserve" font-size="24px" y="23.736027" x="110.035612" font-family="serif" stroke-width="0" stroke="#ffffff" fill="#000000" text-anchor="middle">Delete 10</text>
  <text id="svg_15" transform="matrix(0.337754, 0, 0, 0.610454, 255.104, 107.795)" xml:space="preserve" font-size="24px" y="22.722015" x="256.358152" font-family="serif" stroke-width="0" stroke="#ffffff" fill="#000000" text-anchor="middle">Delete 11</text>
  <text id="svg_16" transform="matrix(0.342407, 0, 0, 0.576363, 259.251, 107.748)" xml:space="preserve" font-size="24px" y="23.674213" x="377.382435" font-family="serif" stroke-width="0" stroke="#ffffff" fill="#000000" text-anchor="middle">Delete 12</text>
  <text id="svg_17" transform="matrix(0.374979, 0, 0, 0.542271, 224.566, 107.626)" xml:space="preserve" font-size="24px" y="139.87051" x="31.546345" font-family="serif" stroke-width="0" stroke="#ffffff" fill="#000000" text-anchor="middle">Delete 13</text>
  <text id="svg_157" transform="matrix(0.374979, 0, 0, 0.542271, 224.566, 107.626)" xml:space="preserve" font-size="24px" y="-149.91487" x="306.073685" font-family="serif" stroke-width="0" stroke="#ffffff" fill="#000000" text-anchor="middle">Delete 3</text>
  <text id="svg_158" transform="matrix(0.374979, 0, 0, 0.542271, 224.566, 107.626)" xml:space="preserve" font-size="24px" y="-149.91487" x="433.139555" font-family="serif" stroke-width="0" stroke="#ffffff" fill="#000000" text-anchor="middle">Delete 4</text>
  <text id="svg_159" transform="matrix(0.374979, 0, 0, 0.542271, 224.566, 107.626)" xml:space="preserve" font-size="24px" y="-34.930065" x="310.779805" font-family="serif" stroke-width="0" stroke="#ffffff" fill="#000000" text-anchor="middle">Delete 7</text>
  <text id="svg_160" transform="matrix(0.374979, 0, 0, 0.542271, 224.566, 107.626)" xml:space="preserve" font-size="24px" y="-33.845288" x="439.414455" font-family="serif" stroke-width="0" stroke="#ffffff" fill="#000000" text-anchor="middle">Delete 8</text>
  <text id="svg_163" transform="matrix(0.374979, 0, 0, 0.542271, 224.566, 107.626)" xml:space="preserve" font-size="24px" y="141.88623" x="309.211075" font-family="serif" stroke-width="0" stroke="#ffffff" fill="#000000" text-anchor="middle">Delete 15</text>
  <text id="svg_164" transform="matrix(0.374979, 0, 0, 0.542271, 224.566, 107.626)" xml:space="preserve" font-size="24px" y="138.63194" x="153.908275" font-family="serif" stroke-width="0" stroke="#ffffff" fill="#000000" text-anchor="middle">Delete 14</text>
  <text id="svg_165" transform="matrix(0.374979, 0, 0, 0.542271, 224.566, 107.626)" xml:space="preserve" font-size="24px" y="141.88623" x="431.570955" font-family="serif" stroke-width="0" stroke="#ffffff" fill="#000000" text-anchor="middle">Delete 16</text>
 </g>
</svg>