<?xml version="1.0" encoding="UTF-8"?>
<svg width="640" height="480" xmlns="http://www.w3.org/2000/svg">
 <!-- Created with SVG-edit - http://svg-edit.googlecode.com/ -->

 <g display="inline">
  <title>outline</title>
  <path fill="#ffffff" stroke="#000000" stroke-width="3" d="m6.02301,75.263474l11.04571,-18.089733l11.046539,18.089733l-22.092249,0z" transform="rotate(-89.3703, 17.0691, 66.2168)" id="svg_32"/>
  <path fill="#ffffff" stroke="#000000" stroke-width="3" d="m213.612045,426.401459l17.278717,-24.549927l17.279984,24.549927l-34.558701,0z" id="svg_36"/>
  <path fill="#ffffff" stroke="#000000" stroke-width="3" d="m213.744278,459.152618l17.278717,-24.549927l17.279984,24.549927l-34.558701,0z" transform="rotate(179.391, 231.025, 446.878)" id="svg_37"/>
  <path fill="#ffffff" stroke="#000000" stroke-width="3" d="m582.649963,427.62442l17.278748,-24.549927l17.279968,24.549927l-34.558716,0z" id="svg_38"/>
  <path fill="#ffffff" stroke="#000000" stroke-width="3" d="m583.423279,460.37561l17.278687,-24.549927l17.280029,24.549927l-34.558716,0z" transform="rotate(179.391, 600.704, 448.101)" id="svg_39"/>
  <rect fill="none" stroke="#000000" stroke-width="3" x="214.078154" y="297.261922" width="92.215502" height="82.63489" id="svg_46"/>
  <rect fill="none" stroke="#000000" stroke-width="3" x="213.780073" y="200.854562" width="92.215502" height="82.63489" id="svg_50"/>
  <rect fill="#ffffff" stroke="#000000" stroke-width="3" x="213.479473" y="106.242046" width="92.215502" height="82.63489" id="svg_51"/>
  <rect fill="none" stroke="#000000" stroke-width="3" x="213.180016" y="11.63187" width="92.215502" height="82.63489" id="svg_52"/>
  <rect fill="none" stroke="#000000" stroke-width="3" x="320.085016" y="296.49714" width="92.215502" height="82.63489" id="svg_53"/>
  <rect fill="none" stroke="#000000" stroke-width="3" x="319.786936" y="200.08978" width="92.215502" height="82.63489" id="svg_54"/>
  <rect fill="none" stroke="#000000" stroke-width="3" x="319.486335" y="105.477264" width="92.215502" height="82.63489" id="svg_55"/>
  <rect fill="none" stroke="#000000" stroke-width="3" x="319.186879" y="10.867088" width="92.215502" height="82.63489" id="svg_56"/>
  <rect fill="none" stroke="#000000" stroke-width="3" x="426.842776" y="296.497983" width="92.215502" height="82.63489" id="svg_65"/>
  <rect fill="none" stroke="#000000" stroke-width="3" x="426.544695" y="200.090623" width="92.215502" height="82.63489" id="svg_66"/>
  <rect fill="none" stroke="#000000" stroke-width="3" x="426.244094" y="105.478107" width="92.215502" height="82.63489" id="svg_67"/>
  <rect fill="none" stroke="#000000" stroke-width="3" x="425.944638" y="10.867931" width="92.215502" height="82.63489" id="svg_68"/>
  <rect fill="none" stroke="#000000" stroke-width="3" x="532.248125" y="296.496873" width="92.215502" height="82.63489" id="svg_77"/>
  <rect fill="none" stroke="#000000" stroke-width="3" x="531.950045" y="200.089513" width="92.215502" height="82.63489" id="svg_78"/>
  <rect fill="none" stroke="#000000" stroke-width="3" x="531.649444" y="105.476997" width="92.215502" height="82.63489" id="svg_79"/>
  <rect fill="none" stroke="#000000" stroke-width="3" x="531.349988" y="10.866821" width="92.215502" height="82.63489" id="svg_80"/>
  <ellipse fill="#ffffff" stroke="#000000" stroke-width="3" cx="418.443416" cy="427.494833" id="svg_82" rx="16.684473" ry="152.494271" transform="rotate(-89.9922, 418.443, 427.495)"/>
  <path fill="#ffffff" stroke="#000000" stroke-width="3" d="m34.056412,75.110497l11.045719,-18.089695l11.046539,18.089695l-22.092258,0z" transform="rotate(90.2301, 45.1023, 66.0645)" id="svg_86"/>
  <path fill="#ffffff" stroke="#000000" stroke-width="3" d="m5.11691,118.192863l11.045711,-18.089737l11.046539,18.089737l-22.09225,0l0,0z" transform="rotate(-89.3703, 16.1628, 109.146)" id="svg_90"/>
  <path fill="#ffffff" stroke="#000000" stroke-width="3" d="m33.803921,118.680908l11.045708,-18.089691l11.046543,18.089691l-22.092251,0z" transform="rotate(90.2301, 44.8495, 109.636)" id="svg_91"/>
  <path fill="#ffffff" stroke="#000000" stroke-width="3" d="m5.11707,161.782867l11.045711,-18.089752l11.046539,18.089752l-22.09225,0l0,0z" transform="rotate(-89.3703, 16.1628, 152.736)" id="svg_92"/>
  <path fill="#ffffff" stroke="#000000" stroke-width="3" d="m33.791512,161.629883l11.045719,-18.089706l11.046539,18.089706l-22.092258,0z" transform="rotate(90.2301, 44.8386, 152.584)" id="svg_93"/>
  <path fill="#ffffff" stroke="#000000" stroke-width="3" d="m5.77163,206.013184l11.045711,-18.089752l11.046539,18.089752l-22.09225,0l0,0z" transform="rotate(-89.3703, 16.8184, 196.967)" id="svg_94"/>
  <path fill="#ffffff" stroke="#000000" stroke-width="3" d="m33.792469,205.860199l11.045719,-18.089691l11.046543,18.089691l-22.092262,0z" transform="rotate(90.2301, 44.8386, 196.814)" id="svg_95"/>
  <ellipse fill="#ffffff" stroke="#000000" stroke-width="3" cx="132.43585" cy="66.153804" id="svg_96" rx="73.076926" ry="10.89747"/>
  <ellipse fill="#ffffff" stroke="#000000" stroke-width="3" cx="132.114927" cy="109.743322" rx="73.076926" ry="10.89747" id="svg_98"/>
  <ellipse fill="#ffffff" stroke="#000000" stroke-width="3" cx="132.757296" cy="153.333326" rx="73.076926" ry="10.89747" id="svg_99"/>
  <ellipse fill="#ffffff" stroke="#000000" stroke-width="3" cx="132.756689" cy="197.563633" rx="73.076926" ry="10.89747" id="svg_100"/>
  <ellipse fill="#ffffff" stroke="#000000" stroke-width="3" cx="48.983243" cy="262.251144" id="svg_101" rx="41.647928" ry="37.173201"/>
  <ellipse fill="#ffffff" stroke="#000000" stroke-width="3" cx="152.82884" cy="261.906684" rx="40.994341" ry="37.173201" id="svg_105"/>
  <ellipse opacity="0.5" fill="#ffffff" stroke="#000000" stroke-width="3" cx="37.244405" cy="393.076106" rx="73.076926" ry="10.89747" id="svg_110" transform="rotate(-90.0016, 37.2441, 393.076)"/>
  <ellipse opacity="0.5" fill="#ffffff" stroke="#000000" stroke-width="3" cx="82.115041" cy="394.360117" rx="73.076926" ry="10.89747" transform="rotate(-90.0016, 82.1152, 394.359)" id="svg_111"/>
  <ellipse opacity="0.5" fill="#ffffff" stroke="#000000" stroke-width="3" cx="125.706288" cy="394.358973" rx="73.076926" ry="10.89747" transform="rotate(-90.0016, 125.707, 394.359)" id="svg_112"/>
  <ellipse opacity="0.5" fill="#ffffff" stroke="#000000" stroke-width="3" cx="168.013417" cy="393.668483" rx="73.076926" ry="10.89747" transform="rotate(-90.0016, 168.014, 393.668)" id="svg_113"/>
  <path opacity="0.5" fill="#ffffff" stroke="#000000" stroke-width="3" d="m84.90287,302.613342l17.042,-9.525421l17.042252,9.525421l-17.042252,9.525269l-17.042,-9.525269z" id="svg_114"/>
  <path fill="#ffffff" stroke="#000000" stroke-width="3" d="m65.44136,27.77907l14.100906,-14.42734l14.101105,14.42734l-14.101105,14.427111l-14.100906,-14.427111z" id="svg_116" transform="rotate(-90.0006, 79.5414, 27.7794)"/>
  <path fill="#ffffff" stroke="#000000" stroke-width="3" d="m108.63916,28.30315l16.198326,-16.4893l16.198555,16.4893l-16.198555,16.489029l-16.198326,-16.489029z" transform="rotate(134.509, 124.837, 28.3035)" id="svg_117"/>
  <path fill="#ffffff" stroke="#000000" stroke-width="3" d="m158.262405,37.910858l12.01944,-21.365509l12.02037,21.365509l-24.03981,0z" transform="rotate(90.2301, 170.282, 27.2283)" id="svg_118"/>
  <path fill="#ffffff" stroke="#000000" stroke-width="3" d="m17.4352,20.19718l3.67761,-6.36946l6.369511,-3.677649l7.35533,0l6.369499,3.677649l3.677711,6.36946l0,7.355381l-3.677711,6.369471l-6.369499,3.677689l-7.35533,0l-6.369511,-3.677689l-3.67761,-6.369471l0,-7.355381z" id="svg_119"/>
 </g>
 <g display="inline">
  <title>shading</title>
  <rect fill="#007fff" stroke="#ffffff" stroke-width="3" x="205.751619" y="4.967277" width="213.071886" height="381.045768" id="svg_127" opacity="0.5"/>
  <rect fill="#007fff" stroke="#ffffff" stroke-width="3" opacity="0.5" x="207.058804" y="395.817274" width="48.366175" height="71.24153" id="svg_129"/>
  <rect fill="#007fff" stroke="#ffffff" stroke-width="3" opacity="0.5" x="4.117866" y="49.738878" width="27.45046" height="164.052029" id="svg_133"/>
  <rect fill="#ff7f00" stroke="#ffffff" stroke-width="3" opacity="0.5" x="30.588549" y="49.41053" width="26.796836" height="165.359211" id="svg_134"/>
  <rect fill="#ff7f00" stroke="#ffffff" stroke-width="3" opacity="0.5" x="577.319893" y="396.144498" width="48.366175" height="71.24153" id="svg_136"/>
  <rect fill="#ff7f00" stroke="#ffffff" stroke-width="3" x="419.479485" y="4.314269" width="211.764685" height="381.045768" opacity="0.5" id="svg_137"/>
  <ellipse fill="#007fff" stroke="#ffffff" stroke-width="3" opacity="0.5" cx="48.888882" cy="261.830035" id="svg_138" rx="43.790851" ry="38.562093"/>
  <ellipse fill="#ff7f00" stroke="#ffffff" stroke-width="3" opacity="0.5" cx="152.483868" cy="261.176429" rx="43.790851" ry="38.562093" id="svg_139"/>
  <ellipse fill="#7f00ff" stroke="#ffffff" cx="418.562289" cy="427.124088" id="svg_213" rx="165.359538" ry="23.529292" opacity="0.45"/>
  <ellipse fill="#ff7f00" stroke="#ffffff" cx="38.431665" cy="391.566479" rx="74.822449" ry="19.256752" opacity="0.5" id="svg_221" transform="rotate(89.8086, 38.4316, 391.566)" stroke-width="3"/>
  <ellipse fill="#007fff" stroke="#ffffff" cx="82.877792" cy="392.547114" rx="74.822449" ry="19.256752" opacity="0.5" transform="rotate(89.8086, 82.877, 392.547)" id="svg_222" stroke-width="3"/>
  <ellipse fill="#ff7f00" stroke="#ffffff" cx="124.707856" cy="392.547114" rx="74.822449" ry="19.256752" opacity="0.5" transform="rotate(89.8086, 124.709, 392.547)" id="svg_223" stroke-width="3"/>
  <ellipse fill="#007fff" stroke="#ffffff" cx="167.845119" cy="393.200709" rx="74.822449" ry="19.256752" opacity="0.5" transform="rotate(89.8086, 167.846, 393.201)" id="svg_224" stroke-width="3"/>
  <ellipse fill="#7f00ff" stroke="#ffffff" cx="133.20459" cy="198.429466" rx="74.822449" ry="19.256752" opacity="0.45" transform="rotate(-179.999, 133.205, 198.43)" id="svg_225"/>
  <ellipse fill="#7f00ff" stroke="#ffffff" cx="133.855717" cy="153.335033" rx="74.822449" ry="19.256752" opacity="0.45" transform="rotate(-179.999, 133.857, 153.334)" id="svg_227"/>
  <ellipse fill="#7f00ff" stroke="#ffffff" cx="133.855717" cy="109.544183" rx="74.822449" ry="19.256752" opacity="0.45" transform="rotate(-179.999, 133.857, 109.545)" id="svg_228"/>
  <ellipse fill="#7f00ff" stroke="#ffffff" cx="131.241348" cy="65.099735" rx="74.822449" ry="19.256752" opacity="0.45" transform="rotate(-179.999, 131.24, 65.0996)" id="svg_229"/>
  <ellipse fill="#7f00ff" stroke="#ffffff" opacity="0.15" cx="102.483655" cy="302.352913" id="svg_230" rx="18.954249" ry="11.764706"/>
  <rect fill="#007fff" stroke="#ffffff" stroke-width="3" opacity="0.5" x="280.0015" y="452.35238" width="82.352921" height="24.70649" id="svg_233"/>
  <rect fill="#ff7f00" stroke="#ffffff" stroke-width="3" opacity="0.5" x="464.117448" y="451.470317" width="84.117633" height="24.118362" id="svg_236"/>
  <rect fill="#7f00ff" stroke="#ffffff" stroke-width="3" opacity="0.5" x="375.296273" y="452.353159" width="82.352921" height="24.70649" id="svg_239"/>
  <rect opacity="0.45" id="svg_33" height="29.411763" width="30.588135" y="13.529405" x="109.411741" stroke="#ffffff" fill="#7f00ff"/>
  <rect transform="rotate(-45, 79.704, 28.234)" id="svg_34" opacity="0.45" height="28.163859" width="28.710402" y="14.152843" x="65.350048" stroke="#ffffff" fill="#7f00ff"/>
  <path transform="rotate(90, 172.251, 26.678)" id="svg_42" d="m153.722809,42.890041l18.52829,-32.424571l18.52832,32.424571l-37.05661,0z" opacity="0.45" stroke="#ffffff" fill="#7f00ff"/>
 </g>
 <g display="inline">
  <title>text</title>
  <text fill="#000000" stroke="#ffffff" stroke-width="0" x="641.202711" y="339.465243" font-size="24" font-family="serif" text-anchor="middle" xml:space="preserve" transform="matrix(0.357556, 0, 0, 0.468599, 221.584, 116.637)" id="svg_154">Kill Mids</text>
  <text fill="#000000" stroke="#ffffff" stroke-width="0" x="644.857158" y="225.647782" font-size="24" font-family="serif" text-anchor="middle" xml:space="preserve" transform="matrix(0.350777, 0, 0, 0.50571, 223.995, 101.206)" id="svg_155">Kill Highs</text>
  <text fill="#000000" stroke="#ffffff" stroke-width="0" x="663.145276" y="402.346789" font-size="24" font-family="serif" text-anchor="middle" xml:space="preserve" transform="matrix(0.326585, 0, 0, 0.50571, 233.622, 107.73)" id="svg_156">Kill Lows</text>
  <text fill="#000000" stroke="#ffffff" stroke-width="0" x="726.079717" y="249.412421" font-size="24" font-family="serif" text-anchor="middle" xml:space="preserve" transform="matrix(0.382324, 0, 0, 0.54913, 222.43, 76.5058)" id="svg_161">Double</text>
  <text fill="#000000" stroke="#ffffff" stroke-width="0" x="725.833301" y="327.233022" font-size="24" font-family="serif" text-anchor="middle" xml:space="preserve" transform="matrix(0.383818, 0, 0, 0.530249, 221.924, 92.2827)" id="svg_162">Halve</text>
  <text fill="#000000" stroke="#ffffff" stroke-width="0" x="16.932742" y="-149.732837" font-size="24" font-family="serif" text-anchor="middle" xml:space="preserve" transform="matrix(0.374979, 0, 0, 0.542271, 224.566, 107.626)" id="svg_166">Cue 1</text>
  <text fill="#000000" stroke="#ffffff" stroke-width="0" x="164.215068" y="-148.416244" font-size="24" font-family="serif" text-anchor="middle" xml:space="preserve" transform="matrix(0.374979, 0, 0, 0.542271, 224.566, 107.626)" id="svg_169">Cue 2</text>
  <text fill="#000000" stroke="#ffffff" stroke-width="0" x="307.147174" y="-150.27898" font-size="24" font-family="serif" text-anchor="middle" xml:space="preserve" transform="matrix(0.374979, 0, 0, 0.542271, 224.566, 107.626)" id="svg_170">Cue 3</text>
  <text fill="#000000" stroke="#ffffff" stroke-width="0" x="454.4295" y="-148.962386" font-size="24" font-family="serif" text-anchor="middle" xml:space="preserve" transform="matrix(0.374979, 0, 0, 0.542271, 224.566, 107.626)" id="svg_173">Cue 4</text>
  <text fill="#000000" stroke="#ffffff" stroke-width="0" x="16.412162" y="-39.273891" font-size="24" font-family="serif" text-anchor="middle" xml:space="preserve" transform="matrix(0.374979, 0, 0, 0.542271, 224.566, 107.626)" id="svg_174">Cue 5</text>
  <text fill="#000000" stroke="#ffffff" stroke-width="0" x="165.263203" y="-39.04206" font-size="24" font-family="serif" text-anchor="middle" xml:space="preserve" transform="matrix(0.374979, 0, 0, 0.542271, 224.566, 107.626)" id="svg_177">Cue 6</text>
  <text fill="#000000" stroke="#ffffff" stroke-width="0" x="301.918371" y="-40.599704" font-size="24" font-family="serif" text-anchor="middle" xml:space="preserve" transform="matrix(0.374979, 0, 0, 0.542271, 224.566, 107.626)" id="svg_178">Cue 7</text>
  <text fill="#000000" stroke="#ffffff" stroke-width="0" x="450.769411" y="-39.283111" font-size="24" font-family="serif" text-anchor="middle" xml:space="preserve" transform="matrix(0.374979, 0, 0, 0.542271, 224.566, 107.626)" id="svg_181">Cue 8</text>
  <text fill="#000000" stroke="#ffffff" stroke-width="0" x="583.850269" y="-153.949748" font-size="24" font-family="serif" text-anchor="middle" xml:space="preserve" transform="matrix(0.374979, 0, 0, 0.542271, 224.566, 107.626)" id="svg_182">Cue 1</text>
  <text fill="#000000" stroke="#ffffff" stroke-width="0" x="731.132594" y="-152.633155" font-size="24" font-family="serif" text-anchor="middle" xml:space="preserve" transform="matrix(0.374979, 0, 0, 0.542271, 224.566, 107.626)" id="svg_185">Cue 2</text>
  <text fill="#000000" stroke="#ffffff" stroke-width="0" x="874.0647" y="-154.495891" font-size="24" font-family="serif" text-anchor="middle" xml:space="preserve" transform="matrix(0.374979, 0, 0, 0.542271, 224.566, 107.626)" id="svg_186">Cue 3</text>
  <text fill="#000000" stroke="#ffffff" stroke-width="0" x="1021.347026" y="-153.179298" font-size="24" font-family="serif" text-anchor="middle" xml:space="preserve" transform="matrix(0.374979, 0, 0, 0.542271, 224.566, 107.626)" id="svg_189">Cue 4</text>
  <text fill="#000000" stroke="#7c6666" x="166.285435" y="56.566043" id="svg_198" font-size="24" font-family="serif" text-anchor="middle" xml:space="preserve" transform="matrix(0.333265, 0, 0, 0.507533, -24.3719, 23.2327)">Keylock</text>
  <text fill="#000000" stroke="#7c6666" x="175.505903" y="142.371827" font-size="24" font-family="serif" text-anchor="middle" xml:space="preserve" transform="matrix(0.333265, 0, 0, 0.507533, -24.3719, 23.2327)" id="svg_199">Headphones</text>
  <text fill="#000000" stroke="#7c6666" x="162.953676" y="312.36009" font-size="24" font-family="serif" text-anchor="middle" xml:space="preserve" transform="matrix(0.333265, 0, 0, 0.507533, -24.3719, 23.2327)" id="svg_200">Beatgrid</text>
  <text fill="#3f7f00" stroke="#000000" x="153.7429" y="94.012812" id="svg_202" font-size="24" font-family="serif" text-anchor="middle" xml:space="preserve" transform="matrix(0.65796, 0, 0, 0.476293, 28.6996, 23.6522)">Master</text>
  <text fill="#3f7f00" stroke="#000000" x="156.270408" y="187.467688" font-size="24" font-family="serif" text-anchor="middle" xml:space="preserve" transform="matrix(0.65796, 0, 0, 0.476293, 28.6996, 23.6522)" id="svg_203">Flanger LFO</text>
  <text fill="#3f7f00" stroke="#000000" x="165.126463" y="376.201889" font-size="24" font-family="serif" text-anchor="middle" xml:space="preserve" transform="matrix(0.572687, 0, 0, 0.404134, 35.0417, 48.564)" id="svg_204">Flanger Depth</text>
  <text fill="#3f7f00" stroke="#000000" x="158.257139" y="279.408676" font-size="24" font-family="serif" text-anchor="middle" xml:space="preserve" transform="matrix(0.65796, 0, 0, 0.476293, 28.6996, 23.6522)" id="svg_205">Headphones</text>
  <text fill="#00007f" stroke="#ffffff" stroke-width="0" x="63.108024" y="289.635875" font-size="24" font-family="serif" text-anchor="middle" xml:space="preserve" id="svg_206" transform="matrix(0.667958, 0, 0, 0.680806, 6.96573, 78.365)">Scratch</text>
  <text fill="#7f0000" stroke="#ffffff" stroke-width="0" x="180.51535" y="287.348288" font-size="24" font-family="serif" text-anchor="middle" xml:space="preserve" id="svg_207" transform="matrix(0.742972, 0, 0, 0.67711, 21.0204, 80.8891)">Scratch</text>
  <text fill="#000000" stroke="#ffffff" stroke-width="0" x="163.058901" y="557.945322" font-size="24" font-family="serif" text-anchor="middle" xml:space="preserve" transform="matrix(0.571783, 0, 0, 0.561031, 138.66, 88.2876)" id="svg_209">Nudge Up</text>
  <text fill="#000000" stroke="#ffffff" stroke-width="0" x="161.920803" y="677.938924" font-size="24" font-family="serif" text-anchor="middle" xml:space="preserve" transform="matrix(0.571783, 0, 0, 0.561031, 138.66, 88.2876)" id="svg_210">Nudge Down</text>
  <text fill="#000000" stroke="#ffffff" stroke-width="0" x="800.894563" y="556.197549" font-size="24" font-family="serif" text-anchor="middle" xml:space="preserve" transform="matrix(0.571783, 0, 0, 0.561031, 138.66, 88.2876)" id="svg_211">Nudge Up</text>
  <text fill="#000000" stroke="#ffffff" stroke-width="0" x="799.756466" y="676.191151" font-size="24" font-family="serif" text-anchor="middle" xml:space="preserve" transform="matrix(0.571783, 0, 0, 0.561031, 138.66, 88.2876)" id="svg_212">Nudge Down</text>
  <text fill="#000000" stroke="#ffffff" stroke-width="0" x="121.40944" y="338.876954" id="svg_232" font-size="24" font-family="serif" text-anchor="middle" xml:space="preserve" transform="matrix(0.652119, 0, 0, 0.486461, 23.0335, 136.924)">Bank</text>
  <text fill="#00007f" stroke="#ffffff" stroke-width="0" x="335.276553" y="478.040068" id="svg_235" font-size="24" font-family="serif" text-anchor="middle" xml:space="preserve" transform="matrix(0.822304, 0, 0, 0.936975, 48.1244, 24.2312)">DECK 1</text>
  <text fill="#7f0000" stroke="#ffffff" stroke-width="0" x="557.39441" y="476.971546" font-size="24" font-family="serif" text-anchor="middle" xml:space="preserve" transform="matrix(0.822304, 0, 0, 0.936975, 48.1244, 24.2312)" id="svg_238">DECK 2</text>
  <text fill="#00007f" stroke="#ffffff" stroke-width="0" opacity="0.85" x="420.52288" y="436.862722" id="svg_231" font-size="24" font-family="serif" text-anchor="middle" xml:space="preserve">Xfader</text>
  <text fill="#00007f" stroke="#ffffff" stroke-width="0" x="450.106148" y="476.83606" font-size="24" font-family="serif" text-anchor="middle" xml:space="preserve" transform="matrix(0.803417, 0, 0, 0.844391, 56.0228, 69.2374)" id="svg_241">Misc</text>
  <text id="svg_1" fill="#000000" stroke="#ffffff" stroke-width="0" x="19.196341" y="31.298847" font-size="24" font-family="serif" text-anchor="middle" xml:space="preserve" transform="matrix(0.374979, 0, 0, 0.542271, 224.566, 107.626)">Cue 9</text>
  <text id="svg_2" fill="#000000" stroke="#ffffff" stroke-width="0" x="163.520926" y="31.298847" font-size="24" font-family="serif" text-anchor="middle" xml:space="preserve" transform="matrix(0.374979, 0, 0, 0.542271, 224.566, 107.626)">Cue 10</text>
  <text id="svg_3" fill="#000000" stroke="#ffffff" stroke-width="0" x="301.561461" y="29.129322" font-size="24" font-family="serif" text-anchor="middle" xml:space="preserve" transform="matrix(0.374979, 0, 0, 0.542271, 224.566, 107.626)">Cue 11</text>
  <text id="svg_4" fill="#000000" stroke="#ffffff" stroke-width="0" x="447.453521" y="28.043293" font-size="24" font-family="serif" text-anchor="middle" xml:space="preserve" transform="matrix(0.374979, 0, 0, 0.542271, 224.566, 107.626)">Cue 12</text>
  <text id="svg_5" fill="#000000" stroke="#ffffff" stroke-width="0" x="23.89886" y="139.77554" font-size="24" font-family="serif" text-anchor="middle" xml:space="preserve" transform="matrix(0.374979, 0, 0, 0.542271, 224.566, 107.626)">Cue 13</text>
  <text id="svg_6" fill="#000000" stroke="#ffffff" stroke-width="0" x="160.384142" y="139.774699" font-size="24" font-family="serif" text-anchor="middle" xml:space="preserve" transform="matrix(0.374979, 0, 0, 0.542271, 224.566, 107.626)">Cue 14</text>
  <text id="svg_7" fill="#000000" stroke="#ffffff" stroke-width="0" x="309.407525" y="135.433537" font-size="24" font-family="serif" text-anchor="middle" xml:space="preserve" transform="matrix(0.374979, 0, 0, 0.542271, 224.566, 107.626)">Cue 15</text>
  <text id="svg_8" fill="#000000" stroke="#ffffff" stroke-width="0" x="442.747414" y="133.26318" font-size="24" font-family="serif" text-anchor="middle" xml:space="preserve" transform="matrix(0.374979, 0, 0, 0.542271, 224.566, 107.626)">Cue 16</text>
  <text id="svg_9" fill="#000000" stroke="#ffffff" stroke-width="0" x="587.423911" y="-40.207378" font-size="24" font-family="serif" text-anchor="middle" xml:space="preserve" transform="matrix(0.374979, 0, 0, 0.542271, 224.566, 107.626)">Cue 5</text>
  <text id="svg_10" fill="#000000" stroke="#ffffff" stroke-width="0" x="736.274952" y="-39.975547" font-size="24" font-family="serif" text-anchor="middle" xml:space="preserve" transform="matrix(0.374979, 0, 0, 0.542271, 224.566, 107.626)">Cue 6</text>
  <text id="svg_11" fill="#000000" stroke="#ffffff" stroke-width="0" x="872.93012" y="-41.533191" font-size="24" font-family="serif" text-anchor="middle" xml:space="preserve" transform="matrix(0.374979, 0, 0, 0.542271, 224.566, 107.626)">Cue 7</text>
  <text id="svg_12" fill="#000000" stroke="#ffffff" stroke-width="0" x="1021.78116" y="-40.216598" font-size="24" font-family="serif" text-anchor="middle" xml:space="preserve" transform="matrix(0.374979, 0, 0, 0.542271, 224.566, 107.626)">Cue 8</text>
  <text id="svg_13" fill="#000000" stroke="#ffffff" stroke-width="0" x="590.208091" y="30.36536" font-size="24" font-family="serif" text-anchor="middle" xml:space="preserve" transform="matrix(0.374979, 0, 0, 0.542271, 224.566, 107.626)">Cue 9</text>
  <text id="svg_14" fill="#000000" stroke="#ffffff" stroke-width="0" x="734.532675" y="30.36536" font-size="24" font-family="serif" text-anchor="middle" xml:space="preserve" transform="matrix(0.374979, 0, 0, 0.542271, 224.566, 107.626)">Cue 10</text>
  <text id="svg_15" fill="#000000" stroke="#ffffff" stroke-width="0" x="872.57321" y="28.195835" font-size="24" font-family="serif" text-anchor="middle" xml:space="preserve" transform="matrix(0.374979, 0, 0, 0.542271, 224.566, 107.626)">Cue 11</text>
  <text id="svg_16" fill="#000000" stroke="#ffffff" stroke-width="0" x="1018.46527" y="27.109806" font-size="24" font-family="serif" text-anchor="middle" xml:space="preserve" transform="matrix(0.374979, 0, 0, 0.542271, 224.566, 107.626)">Cue 12</text>
  <text id="svg_17" fill="#000000" stroke="#ffffff" stroke-width="0" x="594.910609" y="138.842053" font-size="24" font-family="serif" text-anchor="middle" xml:space="preserve" transform="matrix(0.374979, 0, 0, 0.542271, 224.566, 107.626)">Cue 13</text>
  <text id="svg_18" fill="#000000" stroke="#ffffff" stroke-width="0" x="731.395891" y="138.841212" font-size="24" font-family="serif" text-anchor="middle" xml:space="preserve" transform="matrix(0.374979, 0, 0, 0.542271, 224.566, 107.626)">Cue 14</text>
  <text id="svg_19" fill="#000000" stroke="#ffffff" stroke-width="0" x="880.419274" y="134.50005" font-size="24" font-family="serif" text-anchor="middle" xml:space="preserve" transform="matrix(0.374979, 0, 0, 0.542271, 224.566, 107.626)">Cue 15</text>
  <text id="svg_20" fill="#000000" stroke="#ffffff" stroke-width="0" x="1013.759164" y="132.329693" font-size="24" font-family="serif" text-anchor="middle" xml:space="preserve" transform="matrix(0.374979, 0, 0, 0.542271, 224.566, 107.626)">Cue 16</text>
  <text id="svg_21" fill="#000000" stroke="#ffffff" stroke-width="0" x="951.176509" y="536.594685" font-size="24" font-family="serif" text-anchor="middle" xml:space="preserve" transform="matrix(0.368329, 0, 0, 0.556156, 208.503, 73.6581)">JumpSync</text>
  <text id="svg_22" fill="#000000" stroke="#ffffff" stroke-width="0" x="1093.394878" y="536.600357" font-size="24" font-family="serif" text-anchor="middle" xml:space="preserve" transform="matrix(0.401343, 0, 0, 0.589798, 166.353, 55.2865)">Reloop</text>
  <text id="svg_23" fill="#000000" stroke="#ffffff" stroke-width="0" x="816.834842" y="525.153434" font-size="24" font-family="serif" text-anchor="middle" xml:space="preserve" transform="matrix(0.412071, 0, 0, 0.657068, 165.759, 27.0783)">Sync</text>
  <text id="svg_24" fill="#000000" stroke="#ffffff" stroke-width="0" x="631.062154" y="525.024552" font-size="24" font-family="serif" text-anchor="middle" xml:space="preserve" transform="matrix(0.469083, 0, 0, 0.624265, 146.921, 44.7382)">Cue</text>
  <text id="svg_26" fill="#000000" stroke="#7c6666" x="170.212202" y="226.006547" font-size="24" font-family="serif" text-anchor="middle" xml:space="preserve" transform="matrix(0.333265, 0, 0, 0.507533, -24.3719, 23.2327)">Slip Enabled</text>
  <text id="svg_27" fill="#000000" stroke="#7c6666" x="165.99461" y="9.26719" font-size="24" font-family="serif" text-anchor="middle" xml:space="preserve" transform="matrix(0.333265, 0, 0, 0.507533, -24.3719, 23.2327)">Mode</text>
  <text id="svg_28" fill="#000000" stroke="#7c6666" x="268.633059" y="-30.989721" font-size="24" font-family="serif" text-anchor="middle" xml:space="preserve" transform="matrix(0.415912, 0, 0, 0.551472, -37.6103, 28.0265)">Record</text>
  <text id="svg_29" fill="#000000" stroke="#7c6666" x="496.889263" y="-25.873111" font-size="24" font-family="serif" text-anchor="middle" xml:space="preserve" transform="matrix(0.329296, 0, 0, 0.572779, -37.7124, 26.5506)">Assert LEDs</text>
  <text id="svg_43" fill="#000000" stroke="#7c6666" x="681.985779" y="-26.599615" font-size="24" font-family="serif" text-anchor="middle" xml:space="preserve" transform="matrix(0.296584, 0, 0, 0.521118, -17.9257, 25.6454)">Play/Scratch</text>
  <text id="svg_45" fill="#000000" stroke="#ffffff" stroke-width="0" x="786.890562" y="343.220839" font-size="24" font-family="serif" text-anchor="middle" xml:space="preserve" transform="matrix(0.357556, 0, 0, 0.468599, 221.584, 116.637)">Loop</text>
  <text id="svg_47" fill="#000000" stroke="#ffffff" stroke-width="0" x="788.533779" y="232.756331" font-size="24" font-family="serif" text-anchor="middle" xml:space="preserve" transform="matrix(0.357556, 0, 0, 0.468599, 221.584, 116.637)">Loop</text>
  <text id="svg_48" fill="#000000" stroke="#ffffff" stroke-width="0" x="824.931565" y="439.801482" font-size="24" font-family="serif" text-anchor="middle" xml:space="preserve" transform="matrix(0.373065, 0, 0, 0.586555, 194.903, 56.0666)">Loop</text>
  <text id="svg_49" fill="#000000" stroke="#ffffff" stroke-width="0" x="954.751405" y="435.416192" font-size="24" font-family="serif" text-anchor="middle" xml:space="preserve" transform="matrix(0.362743, 0, 0, 0.570831, 201.952, 62.3563)">Jump</text>
  <text id="svg_58" fill="#000000" stroke="#ffffff" stroke-width="0" x="989.866387" y="463.737104" font-size="24" font-family="serif" text-anchor="middle" xml:space="preserve" transform="matrix(0.280037, 0, 0, 0.709232, 276.404, -0.530643)">Backward</text>
  <text id="svg_59" fill="#000000" stroke="#ffffff" stroke-width="0" x="1100.177431" y="436.25425" font-size="24" font-family="serif" text-anchor="middle" xml:space="preserve" transform="matrix(0.362743, 0, 0, 0.570831, 201.952, 62.3563)">Jump</text>
  <text id="svg_60" fill="#000000" stroke="#ffffff" stroke-width="0" x="1170.236146" y="464.114045" font-size="24" font-family="serif" text-anchor="middle" xml:space="preserve" transform="matrix(0.280037, 0, 0, 0.709232, 276.404, -0.530643)">Forward</text>
  <text id="svg_63" fill="#000000" stroke="#ffffff" stroke-width="0" x="937.504516" y="199.25014" font-size="24" font-family="serif" text-anchor="middle" xml:space="preserve" transform="matrix(0.688214, 0, 0, 0.508179, -36.0864, 118.365)">2</text>
  <text id="svg_64" fill="#000000" stroke="#ffffff" stroke-width="0" x="941.349309" y="308.964317" font-size="24" font-family="serif" text-anchor="middle" xml:space="preserve" transform="matrix(0.688214, 0, 0, 0.508179, -36.0864, 118.365)">8</text>
  <text id="svg_69" fill="#000000" stroke="#ffffff" stroke-width="0" x="843.911874" y="199.003635" font-size="24" font-family="serif" text-anchor="middle" xml:space="preserve" transform="matrix(0.688214, 0, 0, 0.508179, -36.0864, 118.365)">1</text>
  <text id="svg_70" fill="#000000" stroke="#ffffff" stroke-width="0" x="845.620481" y="303.183943" font-size="24" font-family="serif" text-anchor="middle" xml:space="preserve" transform="matrix(0.688214, 0, 0, 0.508179, -36.0864, 118.365)">4</text>
  <text id="svg_71" fill="#000000" stroke="#ffffff" stroke-width="0" x="469.554804" y="337.096331" font-size="24" font-family="serif" text-anchor="middle" xml:space="preserve" transform="matrix(0.357556, 0, 0, 0.468599, 221.584, 116.637)">Kill Mids</text>
  <text id="svg_72" fill="#000000" stroke="#ffffff" stroke-width="0" x="469.892053" y="223.452714" font-size="24" font-family="serif" text-anchor="middle" xml:space="preserve" transform="matrix(0.350777, 0, 0, 0.50571, 223.995, 101.206)">Kill Highs</text>
  <text id="svg_73" fill="#000000" stroke="#ffffff" stroke-width="0" x="475.219512" y="400.15172" font-size="24" font-family="serif" text-anchor="middle" xml:space="preserve" transform="matrix(0.326585, 0, 0, 0.50571, 233.622, 107.73)">Kill Lows</text>
  <text id="svg_74" fill="#000000" stroke="#ffffff" stroke-width="0" x="532.828761" y="524.188639" font-size="24" font-family="serif" text-anchor="middle" xml:space="preserve" transform="matrix(0.469083, 0, 0, 0.624265, 146.921, 44.7382)">Cue</text>
  <text id="svg_75" fill="#000000" stroke="#ffffff" stroke-width="0" x="304.432737" y="248.894797" font-size="24" font-family="serif" text-anchor="middle" xml:space="preserve" transform="matrix(0.382324, 0, 0, 0.54913, 222.43, 76.5058)">Double</text>
  <text id="svg_76" fill="#000000" stroke="#ffffff" stroke-width="0" x="299.697185" y="330.025035" font-size="24" font-family="serif" text-anchor="middle" xml:space="preserve" transform="matrix(0.383818, 0, 0, 0.530249, 221.924, 92.2827)">Halve</text>
  <text id="svg_81" fill="#000000" stroke="#ffffff" stroke-width="0" x="418.488561" y="524.72084" font-size="24" font-family="serif" text-anchor="middle" xml:space="preserve" transform="matrix(0.412071, 0, 0, 0.657068, 165.759, 27.0783)">Sync</text>
  <text id="svg_83" fill="#000000" stroke="#ffffff" stroke-width="0" x="321.229547" y="343.869563" font-size="24" font-family="serif" text-anchor="middle" xml:space="preserve" transform="matrix(0.357556, 0, 0, 0.468599, 221.584, 116.637)">Loop</text>
  <text id="svg_84" fill="#000000" stroke="#ffffff" stroke-width="0" x="317.937295" y="232.149749" font-size="24" font-family="serif" text-anchor="middle" xml:space="preserve" transform="matrix(0.357556, 0, 0, 0.468599, 221.584, 116.637)">Loop</text>
  <text id="svg_85" fill="#000000" stroke="#ffffff" stroke-width="0" x="380.20571" y="438.314029" font-size="24" font-family="serif" text-anchor="middle" xml:space="preserve" transform="matrix(0.373065, 0, 0, 0.586555, 194.903, 56.0666)">Loop</text>
  <text id="svg_87" fill="#000000" stroke="#ffffff" stroke-width="0" x="200.004791" y="538.567925" font-size="24" font-family="serif" text-anchor="middle" xml:space="preserve" transform="matrix(0.368329, 0, 0, 0.556156, 208.503, 73.6581)">JumpSync</text>
  <text id="svg_88" fill="#000000" stroke="#ffffff" stroke-width="0" x="173.903926" y="539.458375" font-size="24" font-family="serif" text-anchor="middle" xml:space="preserve" transform="matrix(0.401343, 0, 0, 0.589798, 166.353, 55.2865)">Reloop</text>
  <text id="svg_89" fill="#000000" stroke="#ffffff" stroke-width="0" x="78.497987" y="435.277718" font-size="24" font-family="serif" text-anchor="middle" xml:space="preserve" transform="matrix(0.362743, 0, 0, 0.570831, 201.952, 62.3563)">Jump</text>
  <text id="svg_97" fill="#000000" stroke="#ffffff" stroke-width="0" x="-145.179328" y="463.625654" font-size="24" font-family="serif" text-anchor="middle" xml:space="preserve" transform="matrix(0.280037, 0, 0, 0.709232, 276.404, -0.530643)">Backward</text>
  <text id="svg_102" fill="#000000" stroke="#ffffff" stroke-width="0" x="223.924013" y="436.115777" font-size="24" font-family="serif" text-anchor="middle" xml:space="preserve" transform="matrix(0.362743, 0, 0, 0.570831, 201.952, 62.3563)">Jump</text>
  <text id="svg_103" fill="#000000" stroke="#ffffff" stroke-width="0" x="37.290994" y="464.002594" font-size="24" font-family="serif" text-anchor="middle" xml:space="preserve" transform="matrix(0.280037, 0, 0, 0.709232, 276.404, -0.530643)">Forward</text>
  <text id="svg_104" fill="#000000" stroke="#ffffff" stroke-width="0" x="475.649947" y="199.094577" font-size="24" font-family="serif" text-anchor="middle" xml:space="preserve" transform="matrix(0.688214, 0, 0, 0.508179, -36.0864, 118.365)">2</text>
  <text id="svg_106" fill="#000000" stroke="#ffffff" stroke-width="0" x="479.494741" y="308.808754" font-size="24" font-family="serif" text-anchor="middle" xml:space="preserve" transform="matrix(0.688214, 0, 0, 0.508179, -36.0864, 118.365)">8</text>
  <text id="svg_107" fill="#000000" stroke="#ffffff" stroke-width="0" x="382.057305" y="198.848072" font-size="24" font-family="serif" text-anchor="middle" xml:space="preserve" transform="matrix(0.688214, 0, 0, 0.508179, -36.0864, 118.365)">1</text>
  <text id="svg_108" fill="#000000" stroke="#ffffff" stroke-width="0" x="383.765912" y="303.028379" font-size="24" font-family="serif" text-anchor="middle" xml:space="preserve" transform="matrix(0.688214, 0, 0, 0.508179, -36.0864, 118.365)">4</text>
  <text id="svg_115" fill="#000000" stroke="#ffffff" stroke-width="0" opacity="0.85" x="-19.597731" y="418.113009" font-size="24" font-family="serif" text-anchor="middle" xml:space="preserve" transform="matrix(0.652119, 0, 0, 0.486461, 23.0335, 136.924)">1:</text>
  <text id="svg_122" fill="#00007f" stroke="#ffffff" stroke-width="0" x="63.549371" y="262.119434" font-size="24" font-family="serif" text-anchor="middle" xml:space="preserve" transform="matrix(0.667958, 0, 0, 0.680806, 6.96573, 78.365)">Play/</text>
  <text id="svg_124" fill="#7f0000" stroke="#ffffff" stroke-width="0" x="179.139706" y="258.032392" font-size="24" font-family="serif" text-anchor="middle" xml:space="preserve" transform="matrix(0.742972, 0, 0, 0.67711, 21.0204, 80.8891)">Play/</text>
  <text id="svg_128" fill="#000000" stroke="#ffffff" stroke-width="0" opacity="0.85" x="-19.08363" y="493.079976" font-size="24" font-family="serif" text-anchor="middle" xml:space="preserve" transform="matrix(0.652119, 0, 0, 0.486461, 23.0335, 136.924)">2:</text>
  <text id="svg_130" fill="#000000" stroke="#ffffff" stroke-width="0" opacity="0.85" x="-19.083632" y="568.051192" font-size="24" font-family="serif" text-anchor="middle" xml:space="preserve" transform="matrix(0.652119, 0, 0, 0.486461, 23.0335, 136.924)">3:</text>
  <text id="svg_132" fill="#000000" stroke="#ffffff" stroke-width="0" opacity="0.85" x="-17.2806" y="641.814606" font-size="24" font-family="serif" text-anchor="middle" xml:space="preserve" transform="matrix(0.652119, 0, 0, 0.486461, 23.0335, 136.924)">4:</text>
  <text id="svg_135" fill="#000000" stroke="#ffffff" stroke-width="0" x="188.382394" y="419.321187" font-size="24" font-family="serif" text-anchor="middle" xml:space="preserve" transform="matrix(0.652119, 0, 0, 0.486461, 23.0335, 136.924)">Cursors</text>
  <text id="svg_140" fill="#000000" stroke="#ffffff" stroke-width="0" x="55.786389" y="419.316922" font-size="24" font-family="serif" text-anchor="middle" xml:space="preserve" transform="matrix(0.652119, 0, 0, 0.486461, 23.0335, 136.924)">Zooms</text>
  <text id="svg_141" fill="#000000" stroke="#ffffff" stroke-width="0" x="53.978789" y="493.079373" font-size="24" font-family="serif" text-anchor="middle" xml:space="preserve" transform="matrix(0.652119, 0, 0, 0.486461, 23.0335, 136.924)">Gains</text>
  <text id="svg_143" fill="#000000" stroke="#ffffff" stroke-width="0" x="189.285731" y="491.869687" font-size="24" font-family="serif" text-anchor="middle" xml:space="preserve" transform="matrix(0.652119, 0, 0, 0.486461, 23.0335, 136.924)">Rates</text>
  <text id="svg_144" fill="#000000" stroke="#ffffff" stroke-width="0" x="72.508707" y="583.38537" font-size="24" font-family="serif" text-anchor="middle" xml:space="preserve" transform="matrix(0.529758, 0, 0, 0.419723, 21.7909, 174.335)">(VuMeters)</text>
  <text id="svg_145" fill="#000000" stroke="#ffffff" stroke-width="0" x="48.567992" y="640.602932" font-size="24" font-family="serif" text-anchor="middle" xml:space="preserve" transform="matrix(0.652119, 0, 0, 0.486461, 23.0335, 136.924)">Mids</text>
  <text id="svg_146" fill="#000000" stroke="#ffffff" stroke-width="0" x="189.285704" y="568.050137" font-size="24" font-family="serif" text-anchor="middle" xml:space="preserve" transform="matrix(0.652119, 0, 0, 0.486461, 23.0335, 136.924)">Highs</text>
  <text id="svg_147" fill="#000000" stroke="#ffffff" stroke-width="0" x="189.285731" y="640.602945" font-size="24" font-family="serif" text-anchor="middle" xml:space="preserve" transform="matrix(0.652119, 0, 0, 0.486461, 23.0335, 136.924)">Lows</text>
  <text id="svg_148" fill="#000000" stroke="#ffffff" stroke-width="0" x="58.098222" y="557.168105" font-size="24" font-family="serif" text-anchor="middle" xml:space="preserve" transform="matrix(0.652119, 0, 0, 0.486461, 23.0335, 136.924)">Volumes</text>
  <text id="svg_149" fill="#000000" stroke="#ffffff" stroke-width="0" x="156.518268" y="333.244453" font-size="24" font-family="serif" text-anchor="middle" xml:space="preserve" transform="matrix(0.529758, 0, 0, 0.419723, 21.7909, 174.335)">Vertical Sliders</text>
  <text id="svg_150" fill="#00007f" stroke="#ffffff" stroke-width="0" x="77.065392" y="754.93493" font-size="24" font-family="serif" text-anchor="middle" xml:space="preserve" transform="translate(12.0841, 302.233) scale(1.07928, 1.04156) translate(-12.0841, -302.233) translate(12.0129, 302.233) scale(1.04107, 1) translate(-12.0129, -302.233) translate(12.6356, 303.015) scale(0.447638, 0.557364) translate(-12.6356, -303.015) matrix(0.667958, 0, 0, 0.680806, 6.96573, 78.365)">Deck 1</text>
  <text id="svg_151" fill="#00007f" stroke="#ffffff" stroke-width="0" x="350.611133" y="757.438631" font-size="24" font-family="serif" text-anchor="middle" xml:space="preserve" transform="translate(12.0841, 302.233) scale(1.07928, 1.04156) translate(-12.0841, -302.233) translate(12.0129, 302.233) scale(1.04107, 1) translate(-12.0129, -302.233) translate(12.6356, 303.015) scale(0.447638, 0.557364) translate(-12.6356, -303.015) matrix(0.667958, 0, 0, 0.680806, 6.96573, 78.365)">Deck 1</text>
  <text id="svg_152" fill="#7f0000" stroke="#ffffff" stroke-width="0" x="212.295678" y="758.9237" font-size="24" font-family="serif" text-anchor="middle" xml:space="preserve" transform="translate(12.0841, 302.233) scale(1.07928, 1.04156) translate(-12.0841, -302.233) translate(12.0129, 302.233) scale(1.04107, 1) translate(-12.0129, -302.233) translate(12.6356, 303.015) scale(0.447638, 0.557364) translate(-12.6356, -303.015) matrix(0.667958, 0, 0, 0.680806, 6.96573, 78.365)">Deck 2</text>
  <text id="svg_153" fill="#7f0000" stroke="#ffffff" stroke-width="0" x="471.419056" y="758.922834" font-size="24" font-family="serif" text-anchor="middle" xml:space="preserve" transform="translate(12.0841, 302.233) scale(1.07928, 1.04156) translate(-12.0841, -302.233) translate(12.0129, 302.233) scale(1.04107, 1) translate(-12.0129, -302.233) translate(12.6356, 303.015) scale(0.447638, 0.557364) translate(-12.6356, -303.015) matrix(0.667958, 0, 0, 0.680806, 6.96573, 78.365)">Deck 2</text>
 </g>
</svg>