<?xml version="1.0" encoding="UTF-8"?>
<svg width="640" height="480" xmlns="http://www.w3.org/2000/svg">
 <!-- Created with SVG-edit - http://svg-edit.googlecode.com/ -->

 <g display="inline">
  <title>outline</title>
  <path id="svg_32" transform="rotate(-89.3703, 17.0691, 66.2168)" d="m6.02301,75.263474l11.04571,-18.089733l11.046539,18.089733l-22.092249,0z" stroke-width="3" stroke="#000000" fill="#ffffff"/>
  <path id="svg_36" d="m213.612045,426.401459l17.278717,-24.549927l17.279984,24.549927l-34.558701,0z" stroke-width="3" stroke="#000000" fill="#ffffff"/>
  <path id="svg_37" transform="rotate(179.391, 231.025, 446.878)" d="m213.744278,459.152618l17.278717,-24.549927l17.279984,24.549927l-34.558701,0z" stroke-width="3" stroke="#000000" fill="#ffffff"/>
  <path id="svg_38" d="m582.649963,427.62442l17.278748,-24.549927l17.279968,24.549927l-34.558716,0z" stroke-width="3" stroke="#000000" fill="#ffffff"/>
  <path id="svg_39" transform="rotate(179.391, 600.704, 448.101)" d="m583.423279,460.37561l17.278687,-24.549927l17.280029,24.549927l-34.558716,0z" stroke-width="3" stroke="#000000" fill="#ffffff"/>
  <rect id="svg_46" height="82.63489" width="92.215502" y="297.261922" x="214.078154" stroke-width="3" stroke="#000000" fill="none"/>
  <rect id="svg_50" height="82.63489" width="92.215502" y="200.854562" x="213.780073" stroke-width="3" stroke="#000000" fill="none"/>
  <rect id="svg_51" height="82.63489" width="92.215502" y="106.242046" x="213.479473" stroke-width="3" stroke="#000000" fill="#ffffff"/>
  <rect id="svg_52" height="82.63489" width="92.215502" y="11.63187" x="213.180016" stroke-width="3" stroke="#000000" fill="none"/>
  <rect id="svg_53" height="82.63489" width="92.215502" y="296.49714" x="320.085016" stroke-width="3" stroke="#000000" fill="none"/>
  <rect id="svg_54" height="82.63489" width="92.215502" y="200.08978" x="319.786936" stroke-width="3" stroke="#000000" fill="none"/>
  <rect id="svg_55" height="82.63489" width="92.215502" y="105.477264" x="319.486335" stroke-width="3" stroke="#000000" fill="none"/>
  <rect id="svg_56" height="82.63489" width="92.215502" y="10.867088" x="319.186879" stroke-width="3" stroke="#000000" fill="none"/>
  <rect id="svg_65" height="82.63489" width="92.215502" y="296.497983" x="426.842776" stroke-width="3" stroke="#000000" fill="none"/>
  <rect id="svg_66" height="82.63489" width="92.215502" y="200.090623" x="426.544695" stroke-width="3" stroke="#000000" fill="none"/>
  <rect id="svg_67" height="82.63489" width="92.215502" y="105.478107" x="426.244094" stroke-width="3" stroke="#000000" fill="none"/>
  <rect id="svg_68" height="82.63489" width="92.215502" y="10.867931" x="425.944638" stroke-width="3" stroke="#000000" fill="none"/>
  <rect id="svg_77" height="82.63489" width="92.215502" y="296.496873" x="532.248125" stroke-width="3" stroke="#000000" fill="none"/>
  <rect id="svg_78" height="82.63489" width="92.215502" y="200.089513" x="531.950045" stroke-width="3" stroke="#000000" fill="none"/>
  <rect id="svg_79" height="82.63489" width="92.215502" y="105.476997" x="531.649444" stroke-width="3" stroke="#000000" fill="none"/>
  <rect id="svg_80" height="82.63489" width="92.215502" y="10.866821" x="531.349988" stroke-width="3" stroke="#000000" fill="none"/>
  <ellipse transform="rotate(-89.9922, 418.443, 427.495)" ry="152.494271" rx="16.684473" id="svg_82" cy="427.494833" cx="418.443416" stroke-width="3" stroke="#000000" fill="#ffffff"/>
  <path id="svg_86" transform="rotate(90.2301, 45.1023, 66.0645)" d="m34.056412,75.110497l11.045719,-18.089695l11.046539,18.089695l-22.092258,0z" stroke-width="3" stroke="#000000" fill="#ffffff"/>
  <path id="svg_90" transform="rotate(-89.3703, 16.1628, 109.146)" d="m5.11691,118.192863l11.045711,-18.089737l11.046539,18.089737l-22.092251,0l0.000001,0z" stroke-width="3" stroke="#000000" fill="#ffffff"/>
  <path id="svg_91" transform="rotate(90.2301, 44.8495, 109.636)" d="m33.803921,118.680908l11.045708,-18.089691l11.046543,18.089691l-22.092251,0z" stroke-width="3" stroke="#000000" fill="#ffffff"/>
  <path id="svg_92" transform="rotate(-89.3703, 16.1628, 152.736)" d="m5.11707,161.782867l11.045711,-18.089752l11.046539,18.089752l-22.092251,0l0.000001,0z" stroke-width="3" stroke="#000000" fill="#ffffff"/>
  <path id="svg_93" transform="rotate(90.2301, 44.8386, 152.584)" d="m33.791512,161.629883l11.045719,-18.089706l11.046539,18.089706l-22.092258,0z" stroke-width="3" stroke="#000000" fill="#ffffff"/>
  <path id="svg_94" transform="rotate(-89.3703, 16.8184, 196.967)" d="m5.77163,206.013184l11.045711,-18.089752l11.046539,18.089752l-22.092251,0l0.000001,0z" stroke-width="3" stroke="#000000" fill="#ffffff"/>
  <path id="svg_95" transform="rotate(90.2301, 44.8386, 196.814)" d="m33.792469,205.860199l11.045719,-18.089691l11.046543,18.089691l-22.092262,0z" stroke-width="3" stroke="#000000" fill="#ffffff"/>
  <ellipse ry="10.89747" rx="73.076926" id="svg_96" cy="66.153804" cx="132.43585" stroke-width="3" stroke="#000000" fill="#ffffff"/>
  <ellipse id="svg_98" ry="10.89747" rx="73.076926" cy="109.743322" cx="132.114927" stroke-width="3" stroke="#000000" fill="#ffffff"/>
  <ellipse id="svg_99" ry="10.89747" rx="73.076926" cy="153.333326" cx="132.757296" stroke-width="3" stroke="#000000" fill="#ffffff"/>
  <ellipse id="svg_100" ry="10.89747" rx="73.076926" cy="197.563633" cx="132.756689" stroke-width="3" stroke="#000000" fill="#ffffff"/>
  <ellipse ry="37.173201" rx="41.647928" id="svg_101" cy="262.251144" cx="48.983243" stroke-width="3" stroke="#000000" fill="#ffffff"/>
  <ellipse id="svg_105" ry="37.173201" rx="40.994341" cy="261.906684" cx="152.82884" stroke-width="3" stroke="#000000" fill="#ffffff"/>
  <ellipse transform="rotate(-90.0016, 37.2441, 393.076)" id="svg_110" ry="10.89747" rx="73.076926" cy="393.076106" cx="37.244405" stroke-width="3" stroke="#000000" fill="none" opacity="0.5"/>
  <ellipse id="svg_111" transform="rotate(-90.0016, 82.1152, 394.359)" ry="10.89747" rx="73.076926" cy="394.360117" cx="82.115041" stroke-width="3" stroke="#000000" fill="none" opacity="0.5"/>
  <ellipse id="svg_112" transform="rotate(-90.0016, 125.707, 394.359)" ry="10.89747" rx="73.076926" cy="394.358973" cx="125.706288" stroke-width="3" stroke="#000000" fill="none" opacity="0.5"/>
  <ellipse id="svg_113" transform="rotate(-90.0016, 168.014, 393.668)" ry="10.89747" rx="73.076926" cy="393.668483" cx="168.013417" stroke-width="3" stroke="#000000" fill="none" opacity="0.5"/>
  <path id="svg_114" d="m84.90287,302.613342l17.042,-9.525421l17.042252,9.525421l-17.042252,9.525269l-17.042,-9.525269z" stroke-width="3" stroke="#000000" fill="none" opacity="0.5"/>
  <path transform="rotate(-90.0006, 79.5414, 27.7794)" id="svg_116" d="m65.44136,27.779072l14.100914,-14.42734l14.101097,14.42734l-14.101097,14.427109l-14.100914,-14.427109z" stroke-width="3" stroke="#000000" fill="#ffffff"/>
  <path id="svg_117" transform="rotate(134.509, 124.837, 28.3035)" d="m108.63916,28.303152l16.198326,-16.4893l16.198555,16.4893l-16.198555,16.489027l-16.198326,-16.489027z" stroke-width="3" stroke="#000000" fill="#ffffff"/>
  <path id="svg_118" transform="rotate(90.2301, 170.282, 27.2283)" d="m158.262405,37.910858l12.01944,-21.365513l12.02037,21.365513l-24.03981,0z" stroke-width="3" stroke="#000000" fill="#ffffff"/>
  <path id="svg_119" d="m17.4352,20.19718l3.67761,-6.36946l6.369511,-3.677649l7.35533,0l6.369499,3.677649l3.677711,6.36946l0,7.355381l-3.677711,6.369471l-6.369499,3.677689l-7.35533,0l-6.369511,-3.677689l-3.67761,-6.369471l0,-7.355381z" stroke-width="3" stroke="#000000" fill="#ffffff"/>
 </g>
 <g display="inline">
  <title>shading</title>
  <rect opacity="0.5" id="svg_127" height="283.987231" width="213.071886" y="4.967652" x="205.751619" stroke-width="3" stroke="#ffffff" fill="#007fff"/>
  <rect id="svg_129" height="71.24153" width="48.366175" y="395.817274" x="207.058804" opacity="0.45" stroke-width="3" stroke="#ffffff" fill="#7f00ff"/>
  <rect id="svg_133" height="164.052029" width="27.45046" y="49.738878" x="4.117866" opacity="0.5" stroke-width="3" stroke="#ffffff" fill="#007fff"/>
  <rect id="svg_134" height="165.359211" width="26.796836" y="49.41053" x="30.588549" opacity="0.5" stroke-width="3" stroke="#ffffff" fill="#ff7f00"/>
  <rect id="svg_136" height="71.24153" width="48.366175" y="396.144498" x="577.319893" opacity="0.45" stroke-width="3" stroke="#ffffff" fill="#7f00ff"/>
  <rect id="svg_137" opacity="0.5" height="283.398988" width="211.764685" y="4.313816" x="419.479485" stroke-width="3" stroke="#ffffff" fill="#ff7f00"/>
  <ellipse ry="38.562093" rx="43.790851" id="svg_138" cy="261.830035" cx="48.888882" opacity="0.45" stroke-width="3" stroke="#ffffff" fill="#7f00ff"/>
  <ellipse id="svg_139" ry="38.562093" rx="43.790851" cy="261.176429" cx="152.483868" opacity="0.45" stroke-width="3" stroke="#ffffff" fill="#7f00ff"/>
  <ellipse opacity="0.45" ry="23.529292" rx="165.359538" id="svg_213" cy="427.124088" cx="418.562289" stroke="#ffffff" fill="#7f00ff"/>
  <ellipse stroke-width="3" transform="rotate(89.8086, 38.4316, 391.566)" id="svg_221" opacity="0.5" ry="19.256752" rx="74.822449" cy="391.566479" cx="38.431665" stroke="#ffffff" fill="#007fff"/>
  <ellipse stroke-width="3" id="svg_222" transform="rotate(89.8086, 82.877, 392.547)" opacity="0.5" ry="19.256752" rx="74.822449" cy="392.547114" cx="82.877792" stroke="#ffffff" fill="#ff7f00"/>
  <ellipse stroke-width="3" id="svg_223" transform="rotate(89.8086, 124.709, 392.547)" opacity="0.5" ry="19.256752" rx="74.822449" cy="392.547114" cx="124.707856" stroke="#ffffff" fill="#007fff"/>
  <ellipse stroke-width="3" id="svg_224" transform="rotate(89.8086, 167.846, 393.201)" opacity="0.5" ry="19.256752" rx="74.822449" cy="393.200709" cx="167.845119" stroke="#ffffff" fill="#ff7f00"/>
  <ellipse id="svg_225" transform="rotate(-179.999, 133.205, 198.43)" opacity="0.45" ry="19.256752" rx="74.822449" cy="198.429466" cx="133.20459" stroke="#ffffff" fill="#7f00ff"/>
  <ellipse id="svg_227" transform="rotate(-179.999, 133.857, 153.334)" opacity="0.45" ry="19.256752" rx="74.822449" cy="153.335033" cx="133.855717" stroke="#ffffff" fill="#7f00ff"/>
  <ellipse id="svg_228" transform="rotate(-179.999, 133.857, 109.545)" opacity="0.45" ry="19.256752" rx="74.822449" cy="109.544183" cx="133.855717" stroke="#ffffff" fill="#7f00ff"/>
  <ellipse id="svg_229" transform="rotate(-179.999, 131.24, 65.0996)" opacity="0.45" ry="19.256752" rx="74.822449" cy="65.099735" cx="131.241348" stroke="#ffffff" fill="#7f00ff"/>
  <ellipse ry="11.764706" rx="18.954249" id="svg_230" cy="302.352913" cx="102.483655" opacity="0.15" stroke="#ffffff" fill="#7f00ff"/>
  <rect id="svg_233" height="24.70649" width="82.352921" y="452.35238" x="280.0015" opacity="0.5" stroke-width="3" stroke="#ffffff" fill="#007fff"/>
  <rect id="svg_236" height="24.118362" width="84.117633" y="451.470317" x="464.117448" opacity="0.5" stroke-width="3" stroke="#ffffff" fill="#ff7f00"/>
  <rect id="svg_239" height="24.70649" width="82.352921" y="452.353159" x="375.296273" opacity="0.5" stroke-width="3" stroke="#ffffff" fill="#7f00ff"/>
  <rect fill="#7f00ff" stroke="#ffffff" x="109.411741" y="13.529405" width="30.588135" height="29.411763" id="svg_33" opacity="0.45"/>
  <rect fill="#7f00ff" stroke="#ffffff" x="65.350048" y="14.152843" width="28.710402" height="28.163859" opacity="0.45" id="svg_34" transform="rotate(-45, 79.704, 28.234)"/>
  <path fill="#7f00ff" stroke="#ffffff" opacity="0.45" d="m153.722809,42.890041l18.52829,-32.424568l18.52832,32.424568l-37.05661,0z" id="svg_42" transform="rotate(90, 172.251, 26.678)"/>
  <rect id="svg_59" height="20.588837" width="130.000796" y="384.706088" x="347.061512" opacity="0.5" stroke-width="0" stroke="#3f007f" fill="#00ff00"/>
  <rect id="svg_60" opacity="0.5" height="91.046717" width="211.895393" y="292.122227" x="206.995896" stroke-width="0" stroke="#3f007f" fill="#00ff00"/>
  <rect id="svg_61" opacity="0.5" height="91.046717" width="208.954204" y="292.124754" x="420.522769" stroke-width="0" stroke="#3f007f" fill="#00ff00"/>
 </g>
 <g display="inline">
  <title>text</title>
  <text id="svg_154" transform="matrix(0.357556, 0, 0, 0.468599, 221.584, 116.637)" xml:space="preserve" text-anchor="middle" font-family="serif" font-size="24" y="339.465243" x="641.202711" stroke-width="0" stroke="#ffffff" fill="#000000">Kill Mids</text>
  <text id="svg_155" transform="matrix(0.350777, 0, 0, 0.50571, 223.995, 101.206)" xml:space="preserve" text-anchor="middle" font-family="serif" font-size="24" y="225.647782" x="644.857158" stroke-width="0" stroke="#ffffff" fill="#000000">Kill Highs</text>
  <text id="svg_161" transform="matrix(0.382324, 0, 0, 0.54913, 222.43, 76.5058)" xml:space="preserve" text-anchor="middle" font-family="serif" font-size="24" y="249.412421" x="726.079717" stroke-width="0" stroke="#ffffff" fill="#000000">Double</text>
  <text id="svg_162" transform="matrix(0.383818, 0, 0, 0.530249, 221.924, 92.2827)" xml:space="preserve" text-anchor="middle" font-family="serif" font-size="24" y="327.233022" x="725.833301" stroke-width="0" stroke="#ffffff" fill="#000000">Halve</text>
  <text id="svg_166" transform="matrix(0.374979, 0, 0, 0.542271, 224.566, 107.626)" xml:space="preserve" text-anchor="middle" font-family="serif" font-size="24" y="-149.732837" x="16.932742" stroke-width="0" stroke="#ffffff" fill="#000000">Cue 1</text>
  <text id="svg_169" transform="matrix(0.374979, 0, 0, 0.542271, 224.566, 107.626)" xml:space="preserve" text-anchor="middle" font-family="serif" font-size="24" y="-148.416244" x="164.215068" stroke-width="0" stroke="#ffffff" fill="#000000">Cue 2</text>
  <text id="svg_170" transform="matrix(0.374979, 0, 0, 0.542271, 224.566, 107.626)" xml:space="preserve" text-anchor="middle" font-family="serif" font-size="24" y="-150.27898" x="307.147174" stroke-width="0" stroke="#ffffff" fill="#000000">Cue 3</text>
  <text id="svg_173" transform="matrix(0.374979, 0, 0, 0.542271, 224.566, 107.626)" xml:space="preserve" text-anchor="middle" font-family="serif" font-size="24" y="-148.962386" x="454.4295" stroke-width="0" stroke="#ffffff" fill="#000000">Cue 4</text>
  <text id="svg_174" transform="matrix(0.374979, 0, 0, 0.542271, 224.566, 107.626)" xml:space="preserve" text-anchor="middle" font-family="serif" font-size="24" y="-39.273891" x="16.412162" stroke-width="0" stroke="#ffffff" fill="#000000">Cue 5</text>
  <text id="svg_177" transform="matrix(0.374979, 0, 0, 0.542271, 224.566, 107.626)" xml:space="preserve" text-anchor="middle" font-family="serif" font-size="24" y="-39.04206" x="165.263203" stroke-width="0" stroke="#ffffff" fill="#000000">Cue 6</text>
  <text id="svg_178" transform="matrix(0.374979, 0, 0, 0.542271, 224.566, 107.626)" xml:space="preserve" text-anchor="middle" font-family="serif" font-size="24" y="-40.599704" x="301.918371" stroke-width="0" stroke="#ffffff" fill="#000000">Cue 7</text>
  <text id="svg_181" transform="matrix(0.374979, 0, 0, 0.542271, 224.566, 107.626)" xml:space="preserve" text-anchor="middle" font-family="serif" font-size="24" y="-39.283111" x="450.769411" stroke-width="0" stroke="#ffffff" fill="#000000">Cue 8</text>
  <text id="svg_182" transform="matrix(0.374979, 0, 0, 0.542271, 224.566, 107.626)" xml:space="preserve" text-anchor="middle" font-family="serif" font-size="24" y="-153.949748" x="583.850269" stroke-width="0" stroke="#ffffff" fill="#000000">Cue 1</text>
  <text id="svg_185" transform="matrix(0.374979, 0, 0, 0.542271, 224.566, 107.626)" xml:space="preserve" text-anchor="middle" font-family="serif" font-size="24" y="-152.633155" x="731.132594" stroke-width="0" stroke="#ffffff" fill="#000000">Cue 2</text>
  <text id="svg_186" transform="matrix(0.374979, 0, 0, 0.542271, 224.566, 107.626)" xml:space="preserve" text-anchor="middle" font-family="serif" font-size="24" y="-154.495891" x="874.0647" stroke-width="0" stroke="#ffffff" fill="#000000">Cue 3</text>
  <text id="svg_189" transform="matrix(0.374979, 0, 0, 0.542271, 224.566, 107.626)" xml:space="preserve" text-anchor="middle" font-family="serif" font-size="24" y="-153.179298" x="1021.347026" stroke-width="0" stroke="#ffffff" fill="#000000">Cue 4</text>
  <text transform="matrix(0.333265, 0, 0, 0.507533, -24.3719, 23.2327)" xml:space="preserve" text-anchor="middle" font-family="serif" font-size="24" id="svg_198" y="56.566043" x="166.285435" stroke="#7c6666" fill="#000000">Keylock</text>
  <text id="svg_199" transform="matrix(0.333265, 0, 0, 0.507533, -24.3719, 23.2327)" xml:space="preserve" text-anchor="middle" font-family="serif" font-size="24" y="142.371827" x="175.505903" stroke="#7c6666" fill="#000000">Headphones</text>
  <text id="svg_200" transform="matrix(0.333265, 0, 0, 0.507533, -24.3719, 23.2327)" xml:space="preserve" text-anchor="middle" font-family="serif" font-size="24" y="312.36009" x="162.953676" stroke="#7c6666" fill="#000000">Beatgrid</text>
  <text transform="matrix(0.65796, 0, 0, 0.476293, 28.6996, 23.6522)" xml:space="preserve" text-anchor="middle" font-family="serif" font-size="24" id="svg_202" y="94.012812" x="153.7429" stroke="#000000" fill="#3f7f00">Master</text>
  <text id="svg_203" transform="matrix(0.65796, 0, 0, 0.476293, 28.6996, 23.6522)" xml:space="preserve" text-anchor="middle" font-family="serif" font-size="24" y="187.467688" x="156.270408" stroke="#000000" fill="#3f7f00">Flanger LFO</text>
  <text id="svg_204" transform="matrix(0.572687, 0, 0, 0.404134, 35.0417, 48.564)" xml:space="preserve" text-anchor="middle" font-family="serif" font-size="24" y="376.201889" x="165.126463" stroke="#000000" fill="#3f7f00">Flanger Depth</text>
  <text id="svg_205" transform="matrix(0.65796, 0, 0, 0.476293, 28.6996, 23.6522)" xml:space="preserve" text-anchor="middle" font-family="serif" font-size="24" y="279.408676" x="158.257139" stroke="#000000" fill="#3f7f00">Headphones</text>
  <text opacity="0.85" transform="matrix(0.607241, 0, 0, 0.594226, 7.88319, 103.372)" id="svg_206" xml:space="preserve" text-anchor="middle" font-family="serif" font-size="24" y="277.161813" x="66.98283" stroke-width="0" stroke="#ffffff" fill="#00007f">Playlist</text>
  <text opacity="0.85" id="svg_209" transform="matrix(0.571783, 0, 0, 0.561031, 138.66, 88.2876)" xml:space="preserve" text-anchor="middle" font-family="serif" font-size="24" y="550.605894" x="173.346637" stroke-width="0" stroke="#ffffff" fill="#00007f">Playlist Step</text>
  <text transform="matrix(0.652119, 0, 0, 0.486461, 23.0335, 136.924)" xml:space="preserve" text-anchor="middle" font-family="serif" font-size="24" id="svg_232" y="338.876954" x="121.40944" stroke-width="0" stroke="#ffffff" fill="#000000"/>
  <text transform="matrix(0.822304, 0, 0, 0.936975, 48.1244, 24.2312)" xml:space="preserve" text-anchor="middle" font-family="serif" font-size="24" id="svg_235" y="478.040068" x="335.276553" stroke-width="0" stroke="#ffffff" fill="#00007f">DECK 1</text>
  <text id="svg_238" transform="matrix(0.822304, 0, 0, 0.936975, 48.1244, 24.2312)" xml:space="preserve" text-anchor="middle" font-family="serif" font-size="24" y="476.971546" x="557.39441" stroke-width="0" stroke="#ffffff" fill="#7f0000">DECK 2</text>
  <text xml:space="preserve" text-anchor="middle" font-family="serif" font-size="24" id="svg_231" y="436.862722" x="420.52288" opacity="0.85" stroke-width="0" stroke="#ffffff" fill="#00007f">Xfader</text>
  <text id="svg_241" transform="matrix(0.803417, 0, 0, 0.844391, 56.0228, 69.2374)" xml:space="preserve" text-anchor="middle" font-family="serif" font-size="24" y="476.83606" x="450.106148" stroke-width="0" stroke="#ffffff" fill="#00007f">Misc</text>
  <text transform="matrix(0.374979, 0, 0, 0.542271, 224.566, 107.626)" xml:space="preserve" text-anchor="middle" font-family="serif" font-size="24" y="31.298847" x="19.196341" stroke-width="0" stroke="#ffffff" fill="#000000" id="svg_1">Cue 9</text>
  <text transform="matrix(0.374979, 0, 0, 0.542271, 224.566, 107.626)" xml:space="preserve" text-anchor="middle" font-family="serif" font-size="24" y="31.298847" x="163.520926" stroke-width="0" stroke="#ffffff" fill="#000000" id="svg_2">Cue 10</text>
  <text transform="matrix(0.374979, 0, 0, 0.542271, 224.566, 107.626)" xml:space="preserve" text-anchor="middle" font-family="serif" font-size="24" y="29.129322" x="301.561461" stroke-width="0" stroke="#ffffff" fill="#000000" id="svg_3">Cue 11</text>
  <text transform="matrix(0.374979, 0, 0, 0.542271, 224.566, 107.626)" xml:space="preserve" text-anchor="middle" font-family="serif" font-size="24" y="28.043293" x="447.453521" stroke-width="0" stroke="#ffffff" fill="#000000" id="svg_4">Cue 12</text>
  <text transform="matrix(0.374979, 0, 0, 0.542271, 224.566, 107.626)" xml:space="preserve" text-anchor="middle" font-family="serif" font-size="24" y="139.77554" x="23.89886" stroke-width="0" stroke="#ffffff" fill="#000000" id="svg_5">Cue 13</text>
  <text transform="matrix(0.374979, 0, 0, 0.542271, 224.566, 107.626)" xml:space="preserve" text-anchor="middle" font-family="serif" font-size="24" y="139.774699" x="160.384142" stroke-width="0" stroke="#ffffff" fill="#000000" id="svg_6">Cue 14</text>
  <text transform="matrix(0.374979, 0, 0, 0.542271, 224.566, 107.626)" xml:space="preserve" text-anchor="middle" font-family="serif" font-size="24" y="135.433537" x="309.407525" stroke-width="0" stroke="#ffffff" fill="#000000" id="svg_7">Cue 15</text>
  <text transform="matrix(0.374979, 0, 0, 0.542271, 224.566, 107.626)" xml:space="preserve" text-anchor="middle" font-family="serif" font-size="24" y="133.26318" x="442.747414" stroke-width="0" stroke="#ffffff" fill="#000000" id="svg_8">Cue 16</text>
  <text transform="matrix(0.374979, 0, 0, 0.542271, 224.566, 107.626)" xml:space="preserve" text-anchor="middle" font-family="serif" font-size="24" y="-40.207378" x="587.423911" stroke-width="0" stroke="#ffffff" fill="#000000" id="svg_9">Cue 5</text>
  <text transform="matrix(0.374979, 0, 0, 0.542271, 224.566, 107.626)" xml:space="preserve" text-anchor="middle" font-family="serif" font-size="24" y="-39.975547" x="736.274952" stroke-width="0" stroke="#ffffff" fill="#000000" id="svg_10">Cue 6</text>
  <text transform="matrix(0.374979, 0, 0, 0.542271, 224.566, 107.626)" xml:space="preserve" text-anchor="middle" font-family="serif" font-size="24" y="-41.533191" x="872.93012" stroke-width="0" stroke="#ffffff" fill="#000000" id="svg_11">Cue 7</text>
  <text transform="matrix(0.374979, 0, 0, 0.542271, 224.566, 107.626)" xml:space="preserve" text-anchor="middle" font-family="serif" font-size="24" y="-40.216598" x="1021.78116" stroke-width="0" stroke="#ffffff" fill="#000000" id="svg_12">Cue 8</text>
  <text transform="matrix(0.374979, 0, 0, 0.542271, 224.566, 107.626)" xml:space="preserve" text-anchor="middle" font-family="serif" font-size="24" y="30.36536" x="590.208091" stroke-width="0" stroke="#ffffff" fill="#000000" id="svg_13">Cue 9</text>
  <text transform="matrix(0.374979, 0, 0, 0.542271, 224.566, 107.626)" xml:space="preserve" text-anchor="middle" font-family="serif" font-size="24" y="30.36536" x="734.532675" stroke-width="0" stroke="#ffffff" fill="#000000" id="svg_14">Cue 10</text>
  <text transform="matrix(0.374979, 0, 0, 0.542271, 224.566, 107.626)" xml:space="preserve" text-anchor="middle" font-family="serif" font-size="24" y="28.195835" x="872.57321" stroke-width="0" stroke="#ffffff" fill="#000000" id="svg_15">Cue 11</text>
  <text transform="matrix(0.374979, 0, 0, 0.542271, 224.566, 107.626)" xml:space="preserve" text-anchor="middle" font-family="serif" font-size="24" y="27.109806" x="1018.46527" stroke-width="0" stroke="#ffffff" fill="#000000" id="svg_16">Cue 12</text>
  <text transform="matrix(0.374979, 0, 0, 0.542271, 224.566, 107.626)" xml:space="preserve" text-anchor="middle" font-family="serif" font-size="24" y="138.842053" x="594.910609" stroke-width="0" stroke="#ffffff" fill="#000000" id="svg_17">Cue 13</text>
  <text transform="matrix(0.374979, 0, 0, 0.542271, 224.566, 107.626)" xml:space="preserve" text-anchor="middle" font-family="serif" font-size="24" y="138.841212" x="731.395891" stroke-width="0" stroke="#ffffff" fill="#000000" id="svg_18">Cue 14</text>
  <text transform="matrix(0.374979, 0, 0, 0.542271, 224.566, 107.626)" xml:space="preserve" text-anchor="middle" font-family="serif" font-size="24" y="134.50005" x="880.419274" stroke-width="0" stroke="#ffffff" fill="#000000" id="svg_19">Cue 15</text>
  <text transform="matrix(0.374979, 0, 0, 0.542271, 224.566, 107.626)" xml:space="preserve" text-anchor="middle" font-family="serif" font-size="24" y="132.329693" x="1013.759164" stroke-width="0" stroke="#ffffff" fill="#000000" id="svg_20">Cue 16</text>
  <text transform="matrix(0.333265, 0, 0, 0.507533, -24.3719, 23.2327)" xml:space="preserve" text-anchor="middle" font-family="serif" font-size="24" y="226.006547" x="170.212202" stroke="#7c6666" fill="#000000" id="svg_26">Slip Enabled</text>
  <text transform="matrix(0.333265, 0, 0, 0.507533, -24.3719, 23.2327)" xml:space="preserve" text-anchor="middle" font-family="serif" font-size="24" y="9.26719" x="165.99461" stroke="#7c6666" fill="#000000" id="svg_27">Mode</text>
  <text transform="matrix(0.415912, 0, 0, 0.551472, -37.6103, 28.0265)" xml:space="preserve" text-anchor="middle" font-family="serif" font-size="24" y="-30.989721" x="268.633059" stroke="#7c6666" fill="#000000" id="svg_28">Record</text>
  <text transform="matrix(0.329296, 0, 0, 0.572779, -37.7124, 26.5506)" xml:space="preserve" text-anchor="middle" font-family="serif" font-size="24" y="-25.873111" x="496.889263" stroke="#7c6666" fill="#000000" id="svg_29">Assert LEDs</text>
  <text transform="matrix(0.296584, 0, 0, 0.521118, -17.9257, 25.6454)" xml:space="preserve" text-anchor="middle" font-family="serif" font-size="24" y="-26.599615" x="681.985779" stroke="#7c6666" fill="#000000" id="svg_43">Play/Scratch</text>
  <text transform="matrix(0.357556, 0, 0, 0.468599, 221.584, 116.637)" xml:space="preserve" text-anchor="middle" font-family="serif" font-size="24" y="343.220839" x="786.890562" stroke-width="0" stroke="#ffffff" fill="#000000" id="svg_45">Loop</text>
  <text transform="matrix(0.357556, 0, 0, 0.468599, 221.584, 116.637)" xml:space="preserve" text-anchor="middle" font-family="serif" font-size="24" y="232.756331" x="788.533779" stroke-width="0" stroke="#ffffff" fill="#000000" id="svg_47">Loop</text>
  <text transform="matrix(0.357556, 0, 0, 0.468599, 221.584, 116.637)" xml:space="preserve" text-anchor="middle" font-family="serif" font-size="24" y="337.096331" x="469.554804" stroke-width="0" stroke="#ffffff" fill="#000000" id="svg_71">Kill Mids</text>
  <text transform="matrix(0.350777, 0, 0, 0.50571, 223.995, 101.206)" xml:space="preserve" text-anchor="middle" font-family="serif" font-size="24" y="223.452714" x="469.892053" stroke-width="0" stroke="#ffffff" fill="#000000" id="svg_72">Kill Highs</text>
  <text transform="matrix(0.382324, 0, 0, 0.54913, 222.43, 76.5058)" xml:space="preserve" text-anchor="middle" font-family="serif" font-size="24" y="248.894797" x="304.432737" stroke-width="0" stroke="#ffffff" fill="#000000" id="svg_75">Double</text>
  <text transform="matrix(0.383818, 0, 0, 0.530249, 221.924, 92.2827)" xml:space="preserve" text-anchor="middle" font-family="serif" font-size="24" y="330.025035" x="299.697185" stroke-width="0" stroke="#ffffff" fill="#000000" id="svg_76">Halve</text>
  <text transform="matrix(0.357556, 0, 0, 0.468599, 221.584, 116.637)" xml:space="preserve" text-anchor="middle" font-family="serif" font-size="24" y="343.869563" x="321.229547" stroke-width="0" stroke="#ffffff" fill="#000000" id="svg_83">Loop</text>
  <text transform="matrix(0.357556, 0, 0, 0.468599, 221.584, 116.637)" xml:space="preserve" text-anchor="middle" font-family="serif" font-size="24" y="232.149749" x="317.937295" stroke-width="0" stroke="#ffffff" fill="#000000" id="svg_84">Loop</text>
  <text transform="matrix(0.652119, 0, 0, 0.486461, 23.0335, 136.924)" xml:space="preserve" text-anchor="middle" font-family="serif" font-size="24" y="418.113009" x="-19.597731" stroke-width="0" stroke="#ffffff" fill="#000000" id="svg_115">1:</text>
  <text transform="matrix(0.667958, 0, 0, 0.680806, 6.96573, 78.365)" xml:space="preserve" text-anchor="middle" font-family="serif" font-size="24" y="250.887073" x="63.549371" stroke-width="0" stroke="#ffffff" fill="#00007f" id="svg_122">Play/</text>
  <text transform="matrix(0.652119, 0, 0, 0.486461, 23.0335, 136.924)" xml:space="preserve" text-anchor="middle" font-family="serif" font-size="24" y="493.079976" x="-19.08363" stroke-width="0" stroke="#ffffff" fill="#000000" id="svg_128">2:</text>
  <text transform="matrix(0.652119, 0, 0, 0.486461, 23.0335, 136.924)" xml:space="preserve" text-anchor="middle" font-family="serif" font-size="24" y="568.051192" x="-19.083632" stroke-width="0" stroke="#ffffff" fill="#000000" id="svg_130">3:</text>
  <text transform="matrix(0.652119, 0, 0, 0.486461, 23.0335, 136.924)" xml:space="preserve" text-anchor="middle" font-family="serif" font-size="24" y="641.814606" x="-17.2806" stroke-width="0" stroke="#ffffff" fill="#000000" id="svg_132">4:</text>
  <text transform="matrix(0.652119, 0, 0, 0.486461, 23.0335, 136.924)" xml:space="preserve" text-anchor="middle" font-family="serif" font-size="24" y="419.321187" x="188.382394" stroke-width="0" stroke="#ffffff" fill="#000000" id="svg_135">Cursors</text>
  <text transform="matrix(0.652119, 0, 0, 0.486461, 23.0335, 136.924)" xml:space="preserve" text-anchor="middle" font-family="serif" font-size="24" y="419.316922" x="55.786389" stroke-width="0" stroke="#ffffff" fill="#000000" id="svg_140">Zooms</text>
  <text transform="matrix(0.652119, 0, 0, 0.486461, 23.0335, 136.924)" xml:space="preserve" text-anchor="middle" font-family="serif" font-size="24" y="493.079373" x="53.978789" stroke-width="0" stroke="#ffffff" fill="#000000" id="svg_141">Gains</text>
  <text transform="matrix(0.652119, 0, 0, 0.486461, 23.0335, 136.924)" xml:space="preserve" text-anchor="middle" font-family="serif" font-size="24" y="491.869687" x="189.285731" stroke-width="0" stroke="#ffffff" fill="#000000" id="svg_143">Rates</text>
  <text transform="matrix(0.529758, 0, 0, 0.419723, 21.7909, 174.335)" xml:space="preserve" text-anchor="middle" font-family="serif" font-size="24" y="583.38537" x="72.508707" stroke-width="0" stroke="#ffffff" fill="#000000" id="svg_144">(VuMeters)</text>
  <text transform="matrix(0.652119, 0, 0, 0.486461, 23.0335, 136.924)" xml:space="preserve" text-anchor="middle" font-family="serif" font-size="24" y="640.602932" x="48.567992" stroke-width="0" stroke="#ffffff" fill="#000000" id="svg_145">Mids</text>
  <text transform="matrix(0.652119, 0, 0, 0.486461, 23.0335, 136.924)" xml:space="preserve" text-anchor="middle" font-family="serif" font-size="24" y="568.050137" x="189.285704" stroke-width="0" stroke="#ffffff" fill="#000000" id="svg_146">Highs</text>
  <text transform="matrix(0.652119, 0, 0, 0.486461, 23.0335, 136.924)" xml:space="preserve" text-anchor="middle" font-family="serif" font-size="24" y="640.602945" x="189.285731" stroke-width="0" stroke="#ffffff" fill="#000000" id="svg_147">Lows</text>
  <text transform="matrix(0.652119, 0, 0, 0.486461, 23.0335, 136.924)" xml:space="preserve" text-anchor="middle" font-family="serif" font-size="24" y="557.168105" x="58.098222" stroke-width="0" stroke="#ffffff" fill="#000000" id="svg_148">Volumes</text>
  <text transform="matrix(0.529758, 0, 0, 0.419723, 21.7909, 174.335)" xml:space="preserve" text-anchor="middle" font-family="serif" font-size="24" y="333.244453" x="156.518268" stroke-width="0" stroke="#ffffff" fill="#000000" id="svg_149">Vertical Sliders</text>
  <text transform="translate(12.0841, 302.233) scale(1.07928, 1.04156) translate(-12.0841, -302.233) translate(12.0129, 302.233) scale(1.04107, 1) translate(-12.0129, -302.233) translate(12.6356, 303.015) scale(0.447638, 0.557364) translate(-12.6356, -303.015) matrix(0.667958, 0, 0, 0.680806, 6.96573, 78.365)" xml:space="preserve" text-anchor="middle" font-family="serif" font-size="24" y="754.93493" x="77.065392" stroke-width="0" stroke="#ffffff" fill="#00007f" id="svg_150">Deck 1</text>
  <text transform="translate(12.0841, 302.233) scale(1.07928, 1.04156) translate(-12.0841, -302.233) translate(12.0129, 302.233) scale(1.04107, 1) translate(-12.0129, -302.233) translate(12.6356, 303.015) scale(0.447638, 0.557364) translate(-12.6356, -303.015) matrix(0.667958, 0, 0, 0.680806, 6.96573, 78.365)" xml:space="preserve" text-anchor="middle" font-family="serif" font-size="24" y="757.438631" x="350.611133" stroke-width="0" stroke="#ffffff" fill="#00007f" id="svg_151">Deck 1</text>
  <text transform="translate(12.0841, 302.233) scale(1.07928, 1.04156) translate(-12.0841, -302.233) translate(12.0129, 302.233) scale(1.04107, 1) translate(-12.0129, -302.233) translate(12.6356, 303.015) scale(0.447638, 0.557364) translate(-12.6356, -303.015) matrix(0.667958, 0, 0, 0.680806, 6.96573, 78.365)" xml:space="preserve" text-anchor="middle" font-family="serif" font-size="24" y="758.9237" x="212.295678" stroke-width="0" stroke="#ffffff" fill="#7f0000" id="svg_152">Deck 2</text>
  <text transform="translate(12.0841, 302.233) scale(1.07928, 1.04156) translate(-12.0841, -302.233) translate(12.0129, 302.233) scale(1.04107, 1) translate(-12.0129, -302.233) translate(12.6356, 303.015) scale(0.447638, 0.557364) translate(-12.6356, -303.015) matrix(0.667958, 0, 0, 0.680806, 6.96573, 78.365)" xml:space="preserve" text-anchor="middle" font-family="serif" font-size="24" y="758.922834" x="471.419056" stroke-width="0" stroke="#ffffff" fill="#7f0000" id="svg_153">Deck 2</text>
  <text id="svg_21" transform="matrix(0.502061, 0, 0, 0.612491, 147.84, 77.0457)" xml:space="preserve" text-anchor="middle" font-family="serif" font-size="24" y="293.544905" x="224.990295" stroke-width="0" stroke="#ffffff" fill="#000000">Load Selected</text>
  <text id="svg_22" transform="matrix(0.502061, 0, 0, 0.612491, 147.84, 77.0457)" xml:space="preserve" text-anchor="middle" font-family="serif" font-size="24" y="253.046653" x="221.046086" stroke-width="0" stroke="#ffffff" fill="#000000">Deck 1</text>
  <text id="svg_23" transform="matrix(0.502061, 0, 0, 0.612491, 147.84, 77.0457)" xml:space="preserve" text-anchor="middle" font-family="serif" font-size="24" y="289.626217" x="860.768005" stroke-width="0" stroke="#ffffff" fill="#000000">Load Selected</text>
  <text id="svg_24" transform="matrix(0.502061, 0, 0, 0.612491, 147.84, 77.0457)" xml:space="preserve" text-anchor="middle" font-family="serif" font-size="24" y="249.127966" x="856.823796" stroke-width="0" stroke="#ffffff" fill="#000000">Deck 2</text>
  <text id="svg_25" transform="matrix(0.502061, 0, 0, 0.612491, 147.84, 77.0457)" xml:space="preserve" text-anchor="middle" font-family="serif" font-size="24" y="453.854309" x="225.738596" stroke-width="0" stroke="#ffffff" fill="#000000">Load Selected</text>
  <text id="svg_30" transform="matrix(0.502061, 0, 0, 0.612491, 147.84, 77.0457)" xml:space="preserve" text-anchor="middle" font-family="serif" font-size="24" y="409.514466" x="221.794387" stroke-width="0" stroke="#ffffff" fill="#000000">Sampler 1</text>
  <text id="svg_31" transform="matrix(0.502061, 0, 0, 0.612491, 147.84, 77.0457)" xml:space="preserve" text-anchor="middle" font-family="serif" font-size="24" y="447.131705" x="433.115871" stroke-width="0" stroke="#ffffff" fill="#000000">Load Selected</text>
  <text id="svg_35" transform="matrix(0.502061, 0, 0, 0.612491, 147.84, 77.0457)" xml:space="preserve" text-anchor="middle" font-family="serif" font-size="24" y="406.633454" x="429.171662" stroke-width="0" stroke="#ffffff" fill="#000000">Sampler 2</text>
  <text id="svg_40" transform="matrix(0.502061, 0, 0, 0.612491, 147.84, 77.0457)" xml:space="preserve" text-anchor="middle" font-family="serif" font-size="24" y="446.171485" x="647.528457" stroke-width="0" stroke="#ffffff" fill="#000000">Load Selected</text>
  <text id="svg_41" transform="matrix(0.502061, 0, 0, 0.612491, 147.84, 77.0457)" xml:space="preserve" text-anchor="middle" font-family="serif" font-size="24" y="405.673234" x="643.584248" stroke-width="0" stroke="#ffffff" fill="#000000">Sampler 3</text>
  <text id="svg_44" transform="matrix(0.502061, 0, 0, 0.612491, 147.84, 77.0457)" xml:space="preserve" text-anchor="middle" font-family="serif" font-size="24" y="447.131888" x="860.767105" stroke-width="0" stroke="#ffffff" fill="#000000">Load Selected</text>
  <text id="svg_48" transform="matrix(0.502061, 0, 0, 0.612491, 147.84, 77.0457)" xml:space="preserve" text-anchor="middle" font-family="serif" font-size="24" y="406.633637" x="856.822896" stroke-width="0" stroke="#ffffff" fill="#000000">Sampler 4</text>
  <text transform="matrix(0.859835, 0, 0, 0.57841, 49.4969, 162.154)" xml:space="preserve" text-anchor="middle" font-family="serif" font-size="24" id="svg_49" y="411.985638" x="424.743268" stroke-width="0" stroke="#ffffff" fill="#000000">SAMPLERS</text>
  <text id="svg_62" transform="matrix(0.561936, 0, 0, 0.652519, 3.45943, 112.233)" xml:space="preserve" text-anchor="middle" font-family="serif" font-size="24" y="286.287187" x="171.43966" stroke-width="0" stroke="#ffffff" fill="#000000">Bank</text>
  <text id="svg_63" opacity="0.85" transform="matrix(0.599801, 0, 0, 0.646174, 8.67952, 89.2403)" xml:space="preserve" text-anchor="middle" font-family="serif" font-size="24" y="302.589497" x="69.866652" stroke-width="0" stroke="#ffffff" fill="#00007f">Scroll</text>
  <text id="svg_64" transform="matrix(0.607241, 0, 0, 0.594226, 7.88319, 103.372)" xml:space="preserve" text-anchor="middle" font-family="serif" font-size="24" y="275.347474" x="241.785429" stroke-width="0" stroke="#ffffff" fill="#7f0000">Tracklist</text>
  <text id="svg_69" transform="matrix(0.667958, 0, 0, 0.680806, 6.96573, 78.365)" xml:space="preserve" text-anchor="middle" font-family="serif" font-size="24" y="249.30347" x="223.343133" stroke-width="0" stroke="#ffffff" fill="#7f0000">Play/</text>
  <text id="svg_70" transform="matrix(0.599801, 0, 0, 0.646174, 8.67952, 89.2403)" xml:space="preserve" text-anchor="middle" font-family="serif" font-size="24" y="300.921017" x="247.818221" stroke-width="0" stroke="#ffffff" fill="#7f0000">Scroll</text>
  <text id="svg_73" opacity="0.85" transform="matrix(0.571783, 0, 0, 0.561031, 138.66, 88.2876)" xml:space="preserve" text-anchor="middle" font-family="serif" font-size="24" y="549.763213" x="793.470072" stroke-width="0" stroke="#ffffff" fill="#00007f">Tracklist Step</text>
 </g>
</svg>