<?xml version="1.0" encoding="UTF-8"?>
<svg width="1280" height="960" xmlns="http://www.w3.org/2000/svg">
 <!-- Created with SVG-edit - http://svg-edit.googlecode.com/ -->
 <metadata id="metadata5025">image/svg+xml</metadata>

 <g transform="matrix(2,0,0,2,-3.0137493,0.79903157)" id="g4837" display="inline">
  <title>outline</title>
  <path fill="#ffffff" stroke="#000000" stroke-width="3" id="svg_32" d="m25.993832,77.361649l-17.967247,-11.243858l18.210043,-10.847061l-0.242796,22.090919z"/>
  <path fill="#ffffff" stroke="#000000" stroke-width="3" id="svg_36" d="m213.612045,426.401459l17.278717,-24.549927l17.279999,24.549927l-34.558701,0l-0.000015,0z"/>
  <path fill="#ffffff" stroke="#000000" stroke-width="3" id="svg_37" d="m248.174271,434.42038l-17.016785,24.732208l-17.539963,-24.364868l34.556747,-0.36734z"/>
  <path fill="#ffffff" stroke="#000000" stroke-width="3" id="svg_38" d="m582.649963,427.62442l17.278748,-24.549927l17.279968,24.549927l-34.558716,0z"/>
  <path fill="#ffffff" stroke="#000000" stroke-width="3" id="svg_39" d="m617.853271,435.643402l-17.016785,24.732178l-17.539978,-24.364868l34.556763,-0.36731z"/>
  <rect fill="none" stroke="#000000" stroke-width="3" id="svg_46" height="82.634888" width="92.2155" y="297.26193" x="214.07816"/>
  <rect fill="none" stroke="#000000" stroke-width="3" id="svg_50" height="82.634888" width="92.2155" y="200.85457" x="213.78008"/>
  <rect fill="#ffffff" stroke="#000000" stroke-width="3" id="svg_51" height="82.634888" width="92.2155" y="106.24204" x="213.47948"/>
  <rect fill="none" stroke="#000000" stroke-width="3" id="svg_52" height="82.634888" width="92.2155" y="11.63187" x="213.18002"/>
  <rect fill="none" stroke="#000000" stroke-width="3" id="svg_53" height="82.634888" width="92.2155" y="296.49713" x="320.08502"/>
  <rect fill="none" stroke="#000000" stroke-width="3" id="svg_54" height="82.634888" width="92.2155" y="200.08978" x="319.78693"/>
  <rect fill="none" stroke="#000000" stroke-width="3" id="svg_55" height="82.634888" width="92.2155" y="105.47726" x="319.48633"/>
  <rect fill="none" stroke="#000000" stroke-width="3" id="svg_56" height="82.634888" width="92.2155" y="10.867088" x="319.18689"/>
  <rect fill="none" stroke="#000000" stroke-width="3" id="svg_65" height="82.634888" width="92.2155" y="296.49799" x="426.84277"/>
  <rect fill="none" stroke="#000000" stroke-width="3" id="svg_66" height="82.634888" width="92.2155" y="200.09062" x="426.54471"/>
  <rect fill="none" stroke="#000000" stroke-width="3" id="svg_67" height="82.634888" width="92.2155" y="105.4781" x="426.24408"/>
  <rect fill="none" stroke="#000000" stroke-width="3" id="svg_68" height="82.634888" width="92.2155" y="10.867931" x="425.94464"/>
  <rect fill="none" stroke="#000000" stroke-width="3" id="svg_77" height="82.634888" width="92.2155" y="296.49689" x="532.24811"/>
  <rect fill="none" stroke="#000000" stroke-width="3" id="svg_78" height="82.634888" width="92.2155" y="200.08951" x="531.95007"/>
  <rect fill="none" stroke="#000000" stroke-width="3" id="svg_79" height="82.634888" width="92.2155" y="105.477" x="531.64941"/>
  <rect fill="none" stroke="#000000" stroke-width="3" id="svg_80" height="82.634888" width="92.2155" y="10.866821" x="531.34998"/>
  <ellipse fill="#ffffff" stroke="#000000" stroke-width="3" transform="matrix(1.3613568e-4,-0.99999999,0.99999999,1.3613568e-4,-9.1089611,845.8798)" ry="152.49428" rx="16.684473" id="svg_82" cy="427.49484" cx="418.44342"/>
  <path fill="#ffffff" stroke="#000000" stroke-width="3" id="svg_86" d="m36.100735,54.982372l18.045189,11.118282l-18.133911,10.973801l0.088722,-22.092083z"/>
  <path fill="#ffffff" stroke="#000000" stroke-width="3" id="svg_90" d="m25.087727,120.290649l-17.967243,-11.243851l18.210039,-10.847061l-0.242796,22.090912l0,0z"/>
  <path fill="#ffffff" stroke="#000000" stroke-width="3" id="svg_91" d="m35.849026,98.554184l18.045185,11.118271l-18.133907,10.973801l0.088722,-22.092072z"/>
  <path fill="#ffffff" stroke="#000000" stroke-width="3" id="svg_92" d="m25.087729,163.880493l-17.967266,-11.243851l18.210062,-10.847061l-0.242796,22.090912l0,0z"/>
  <path fill="#ffffff" stroke="#000000" stroke-width="3" id="svg_93" d="m35.837151,141.500687l18.045204,11.118271l-18.133926,10.973801l0.088722,-22.092072z"/>
  <path fill="#ffffff" stroke="#000000" stroke-width="3" id="svg_94" d="m25.742641,208.112518l-17.967266,-11.243851l18.210063,-10.847061l-0.242798,22.090912l0,0z"/>
  <path fill="#ffffff" stroke="#000000" stroke-width="3" id="svg_95" d="m35.836834,185.731628l18.045185,11.118271l-18.133907,10.973816l0.088722,-22.092087z"/>
  <ellipse fill="#ffffff" stroke="#000000" stroke-width="3" ry="10.89747" rx="73.076927" id="svg_96" cy="66.153801" cx="132.43585"/>
  <ellipse fill="#ffffff" stroke="#000000" stroke-width="3" id="svg_98" ry="10.89747" rx="73.076927" cy="109.74332" cx="132.11493"/>
  <ellipse fill="#ffffff" stroke="#000000" stroke-width="3" id="svg_99" ry="10.89747" rx="73.076927" cy="153.33333" cx="132.75729"/>
  <ellipse fill="#ffffff" stroke="#000000" stroke-width="3" id="svg_100" ry="10.89747" rx="73.076927" cy="197.56363" cx="132.75668"/>
  <ellipse fill="#ffffff" stroke="#000000" stroke-width="3" ry="37.173203" rx="41.647926" id="svg_101" cy="262.25113" cx="48.983242"/>
  <ellipse fill="#ffffff" stroke="#000000" stroke-width="3" id="svg_105" ry="37.173203" rx="40.994343" cy="261.90668" cx="152.82884"/>
  <ellipse opacity="0.5" fill="none" stroke="#000000" stroke-width="3" transform="matrix(-2.7925268e-5,-1,1,-2.7925268e-5,-355.83086,430.33108)" id="svg_110" ry="10.89747" rx="73.076927" cy="393.07611" cx="37.244404"/>
  <ellipse opacity="0.5" fill="none" stroke="#000000" stroke-width="3" id="svg_111" transform="matrix(-2.7925268e-5,-1,1,-2.7925268e-5,-312.24151,476.48521)" ry="10.89747" rx="73.076927" cy="394.36011" cx="82.115044"/>
  <ellipse opacity="0.5" fill="none" stroke="#000000" stroke-width="3" id="svg_112" transform="matrix(-2.7925268e-5,-1,1,-2.7925268e-5,-268.64849,520.07701)" ry="10.89747" rx="73.076927" cy="394.35898" cx="125.70629"/>
  <ellipse opacity="0.5" fill="none" stroke="#000000" stroke-width="3" id="svg_113" transform="matrix(-2.7925268e-5,-1,1,-2.7925268e-5,-225.64931,561.69299)" ry="10.89747" rx="73.076927" cy="393.66849" cx="168.01341"/>
  <path opacity="0.5" fill="none" stroke="#000000" stroke-width="3" id="svg_114" d="m84.90287,302.613342l17.042,-9.525421l17.042252,9.525421l-17.042252,9.525269l-17.042,-9.525269z"/>
  <path fill="#ffffff" stroke="#000000" stroke-width="3" id="svg_116" d="m79.541222,41.87944l-14.42749,-14.100763l14.427193,-14.101249l14.427254,14.100945l-14.426956,14.101067z"/>
  <path fill="#ffffff" stroke="#000000" stroke-width="3" id="svg_117" d="m136.192276,16.752411l0.403809,23.111031l-23.114716,-0.007507l-0.403458,-23.111002l23.114365,0.007479z"/>
  <path fill="#ffffff" stroke="#000000" stroke-width="3" id="svg_118" d="m159.647797,15.165904l21.317062,12.105147l-21.413605,11.934469l0.096542,-24.039617z"/>
  <path fill="#ffffff" stroke="#000000" stroke-width="3" id="svg_119" d="m17.4352,20.19718l3.67761,-6.36946l6.369511,-3.677649l7.35533,0l6.369499,3.677649l3.677711,6.36946l0,7.355381l-3.677711,6.369471l-6.369499,3.677689l-7.35533,0l-6.369511,-3.677689l-3.67761,-6.369471l0,-7.355381z"/>
 </g>
 <g transform="matrix(2,0,0,2,-3.0137493,0.79903157)" id="g4885" display="inline">
  <title>shading</title>
  <rect opacity="0.5" fill="#007fff" stroke="#ffffff" stroke-width="3" id="svg_127" height="283.98724" width="213.07188" y="4.967652" x="205.75162"/>
  <rect opacity="0.45" fill="#7f00ff" stroke="#ffffff" stroke-width="3" id="svg_129" height="71.241531" width="48.366177" y="395.81726" x="207.05881"/>
  <rect opacity="0.5" fill="#007fff" stroke="#ffffff" stroke-width="3" id="svg_133" height="164.05203" width="27.45046" y="49.738876" x="4.117866"/>
  <rect opacity="0.5" fill="#ff7f00" stroke="#ffffff" stroke-width="3" id="svg_134" height="165.35921" width="26.796837" y="49.41053" x="30.588549"/>
  <rect opacity="0.45" fill="#7f00ff" stroke="#ffffff" stroke-width="3" id="svg_136" height="71.241531" width="48.366177" y="396.1445" x="577.31989"/>
  <rect opacity="0.5" fill="#ff7f00" stroke="#ffffff" stroke-width="3" id="svg_137" height="283.39899" width="211.76468" y="4.313816" x="419.47949"/>
  <ellipse opacity="0.45" fill="#7f00ff" stroke="#ffffff" stroke-width="3" ry="38.562092" rx="43.790852" id="svg_138" cy="261.83005" cx="48.888882"/>
  <ellipse opacity="0.45" fill="#7f00ff" stroke="#ffffff" stroke-width="3" id="svg_139" ry="38.562092" rx="43.790852" cy="261.17642" cx="152.48387"/>
  <ellipse opacity="0.45" fill="#7f00ff" stroke="#ffffff" ry="23.529291" rx="165.35954" id="svg_213" cy="427.12408" cx="418.56229"/>
  <ellipse opacity="0.5" fill="#007fff" stroke="#ffffff" stroke-width="3" transform="matrix(0.00334055,0.99999442,-0.99999442,0.00334055,429.86703,351.82657)" id="svg_221" ry="19.256752" rx="74.822449" cy="391.56647" cx="38.431664"/>
  <ellipse opacity="0.5" fill="#ff7f00" stroke="#ffffff" stroke-width="3" id="svg_222" transform="matrix(0.00334055,0.99999442,-0.99999442,0.00334055,475.14495,308.35914)" ry="19.256752" rx="74.822449" cy="392.54712" cx="82.877792"/>
  <ellipse opacity="0.5" fill="#007fff" stroke="#ffffff" stroke-width="3" id="svg_223" transform="matrix(0.00334055,0.99999442,-0.99999442,0.00334055,516.83721,266.52737)" ry="19.256752" rx="74.822449" cy="392.54712" cx="124.70786"/>
  <ellipse opacity="0.5" fill="#ff7f00" stroke="#ffffff" stroke-width="3" id="svg_224" transform="matrix(0.00334055,0.99999442,-0.99999442,0.00334055,560.48411,224.04243)" ry="19.256752" rx="74.822449" cy="393.20071" cx="167.84512"/>
  <ellipse opacity="0.45" fill="#7f00ff" stroke="#ffffff" id="svg_225" transform="matrix(-1,-1.7453293e-5,1.7453293e-5,-1,266.40654,396.86232)" ry="19.256752" rx="74.822449" cy="198.42946" cx="133.20459"/>
  <ellipse opacity="0.45" fill="#7f00ff" stroke="#ffffff" id="svg_227" transform="matrix(-1,-1.7453293e-5,1.7453293e-5,-1,267.71132,306.67034)" ry="19.256752" rx="74.822449" cy="153.33504" cx="133.85571"/>
  <ellipse opacity="0.45" fill="#7f00ff" stroke="#ffffff" id="svg_228" transform="matrix(-1,-1.7453293e-5,1.7453293e-5,-1,267.71209,219.09234)" ry="19.256752" rx="74.822449" cy="109.54418" cx="133.85571"/>
  <ellipse opacity="0.45" fill="#7f00ff" stroke="#ffffff" id="svg_229" transform="matrix(-1,-1.7453293e-5,1.7453293e-5,-1,262.47886,130.20149)" ry="19.256752" rx="74.822449" cy="65.099731" cx="131.24135"/>
  <ellipse opacity="0.15" fill="#7f00ff" stroke="#ffffff" ry="11.764706" rx="18.954248" id="svg_230" cy="302.35291" cx="102.48366"/>
  <rect opacity="0.5" fill="#007fff" stroke="#ffffff" stroke-width="3" id="svg_233" height="24.70649" width="82.352921" y="452.35239" x="280.0015"/>
  <rect opacity="0.5" fill="#ff7f00" stroke="#ffffff" stroke-width="3" id="svg_236" height="24.118362" width="84.11763" y="451.47031" x="464.11746"/>
  <rect opacity="0.5" fill="#7f00ff" stroke="#ffffff" stroke-width="3" id="svg_239" height="24.70649" width="82.352921" y="452.35315" x="375.29626"/>
  <rect opacity="0.45" fill="#7f00ff" stroke="#ffffff" x="109.41174" y="13.529405" width="30.588135" height="29.411762" id="svg_33"/>
  <rect opacity="0.45" fill="#7f00ff" stroke="#ffffff" x="65.350044" y="14.152843" width="28.710402" height="28.163858" id="svg_34" transform="matrix(0.70710678,-0.70710678,0.70710678,0.70710678,3.3803083,64.628786)"/>
  <path opacity="0.45" fill="#7f00ff" stroke="#ffffff" d="m156.038956,8.149811l32.424576,18.52829l-32.424576,18.52832l0,-37.05661z" id="svg_42"/>
  <rect opacity="0.5" fill="#00ff00" stroke="#3f007f" stroke-width="0" id="svg_59" height="20.588837" width="130.00079" y="384.70609" x="347.06152"/>
  <rect opacity="0.5" fill="#00ff00" stroke="#3f007f" stroke-width="0" id="svg_60" height="91.046715" width="211.89539" y="292.12222" x="206.9959"/>
  <rect opacity="0.5" fill="#00ff00" stroke="#3f007f" stroke-width="0" id="svg_61" height="91.046715" width="208.95421" y="292.12476" x="420.52277"/>
 </g>
 <g transform="matrix(2,0,0,2,-3.0137493,0.79903157)" id="g4916" display="inline">
  <title>text</title>
  <text text-anchor="middle" fill="#000000" stroke="#ffffff" stroke-width="0" font-family="serif" id="svg_154" transform="matrix(0.357556,0,0,0.468599,221.584,116.637)" xml:space="preserve" font-size="24px" y="339.46524" x="641.2027">Kill Mids</text>
  <text text-anchor="middle" fill="#000000" stroke="#ffffff" stroke-width="0" font-family="serif" id="svg_155" transform="matrix(0.350777,0,0,0.50571,223.995,101.206)" xml:space="preserve" font-size="24px" y="225.64778" x="644.85718">Kill Highs</text>
  <text text-anchor="middle" fill="#000000" stroke="#ffffff" stroke-width="0" font-family="serif" id="svg_161" transform="matrix(0.382324,0,0,0.54913,222.43,76.5058)" xml:space="preserve" font-size="24px" y="249.41241" x="726.07971">Double</text>
  <text text-anchor="middle" fill="#000000" stroke="#ffffff" stroke-width="0" font-family="serif" id="svg_162" transform="matrix(0.383818,0,0,0.530249,221.924,92.2827)" xml:space="preserve" font-size="24px" y="327.23303" x="725.83331">Halve</text>
  <text text-anchor="middle" fill="#000000" stroke="#ffffff" stroke-width="0" font-family="serif" id="svg_166" transform="matrix(0.374979,0,0,0.542271,224.566,107.626)" xml:space="preserve" font-size="24px" y="-149.73283" x="16.932741">Cue 1</text>
  <text text-anchor="middle" fill="#000000" stroke="#ffffff" stroke-width="0" font-family="serif" id="svg_169" transform="matrix(0.374979,0,0,0.542271,224.566,107.626)" xml:space="preserve" font-size="24px" y="-148.41624" x="164.21507">Cue 2</text>
  <text text-anchor="middle" fill="#000000" stroke="#ffffff" stroke-width="0" font-family="serif" id="svg_170" transform="matrix(0.374979,0,0,0.542271,224.566,107.626)" xml:space="preserve" font-size="24px" y="-150.27898" x="307.14719">Cue 3</text>
  <text text-anchor="middle" fill="#000000" stroke="#ffffff" stroke-width="0" font-family="serif" id="svg_173" transform="matrix(0.374979,0,0,0.542271,224.566,107.626)" xml:space="preserve" font-size="24px" y="-148.96239" x="454.4295">Cue 4</text>
  <text text-anchor="middle" fill="#000000" stroke="#ffffff" stroke-width="0" font-family="serif" id="svg_174" transform="matrix(0.374979,0,0,0.542271,224.566,107.626)" xml:space="preserve" font-size="24px" y="-39.273891" x="16.412163">Cue 5</text>
  <text text-anchor="middle" fill="#000000" stroke="#ffffff" stroke-width="0" font-family="serif" id="svg_177" transform="matrix(0.374979,0,0,0.542271,224.566,107.626)" xml:space="preserve" font-size="24px" y="-39.042061" x="165.2632">Cue 6</text>
  <text text-anchor="middle" fill="#000000" stroke="#ffffff" stroke-width="0" font-family="serif" id="svg_178" transform="matrix(0.374979,0,0,0.542271,224.566,107.626)" xml:space="preserve" font-size="24px" y="-40.599705" x="301.91837">Cue 7</text>
  <text text-anchor="middle" fill="#000000" stroke="#ffffff" stroke-width="0" font-family="serif" id="svg_181" transform="matrix(0.374979,0,0,0.542271,224.566,107.626)" xml:space="preserve" font-size="24px" y="-39.283112" x="450.76941">Cue 8</text>
  <text text-anchor="middle" fill="#000000" stroke="#ffffff" stroke-width="0" font-family="serif" id="svg_182" transform="matrix(0.374979,0,0,0.542271,224.566,107.626)" xml:space="preserve" font-size="24px" y="-153.94975" x="583.85028">Cue 1</text>
  <text text-anchor="middle" fill="#000000" stroke="#ffffff" stroke-width="0" font-family="serif" id="svg_185" transform="matrix(0.374979,0,0,0.542271,224.566,107.626)" xml:space="preserve" font-size="24px" y="-152.63315" x="731.13257">Cue 2</text>
  <text text-anchor="middle" fill="#000000" stroke="#ffffff" stroke-width="0" font-family="serif" id="svg_186" transform="matrix(0.374979,0,0,0.542271,224.566,107.626)" xml:space="preserve" font-size="24px" y="-154.4959" x="874.0647">Cue 3</text>
  <text text-anchor="middle" fill="#000000" stroke="#ffffff" stroke-width="0" font-family="serif" id="svg_189" transform="matrix(0.374979,0,0,0.542271,224.566,107.626)" xml:space="preserve" font-size="24px" y="-153.17929" x="1021.347">Cue 4</text>
  <text text-anchor="middle" fill="#000000" stroke="#7c6666" font-family="serif" transform="matrix(0.333265,0,0,0.507533,-24.3719,23.2327)" xml:space="preserve" font-size="24px" id="svg_198" y="56.566044" x="166.28543">Keylock</text>
  <text text-anchor="middle" fill="#000000" stroke="#7c6666" font-family="serif" id="svg_199" transform="matrix(0.333265,0,0,0.507533,-24.3719,23.2327)" xml:space="preserve" font-size="24px" y="142.37183" x="175.50591">Headphones</text>
  <text text-anchor="middle" fill="#000000" stroke="#7c6666" font-family="serif" id="svg_200" transform="matrix(0.333265,0,0,0.507533,-24.3719,23.2327)" xml:space="preserve" font-size="24px" y="312.36008" x="162.95367">FX</text>
  <text text-anchor="middle" fill="#3f7f00" stroke="#000000" font-family="serif" transform="matrix(0.65796,0,0,0.476293,28.6996,23.6522)" xml:space="preserve" font-size="24px" id="svg_202" y="94.01281" x="153.7429">Master</text>
  <text text-anchor="middle" fill="#3f7f00" stroke="#000000" font-family="serif" id="svg_203" transform="matrix(0.65796,0,0,0.476293,28.6996,23.6522)" xml:space="preserve" font-size="24px" y="280.09479" x="158.9525">Flanger LFO</text>
  <text text-anchor="middle" fill="#3f7f00" stroke="#000000" font-family="serif" id="svg_204" transform="matrix(0.572687,0,0,0.404134,35.0417,48.564)" xml:space="preserve" font-size="24px" y="376.20187" x="165.12646">Flanger Depth</text>
  <text text-anchor="middle" fill="#3f7f00" stroke="#000000" font-family="serif" id="svg_205" transform="matrix(0.65796,0,0,0.476293,28.6996,23.6522)" xml:space="preserve" font-size="24px" y="184.31152" x="156.46909">Headphones</text>
  <text text-anchor="middle" opacity="0.85" fill="#00007f" stroke="#ffffff" stroke-width="0" font-family="serif" transform="matrix(0.607241,0,0,0.594226,7.88319,103.372)" id="svg_206" xml:space="preserve" font-size="24px" y="277.1618" x="66.982826">Playlist</text>
  <text text-anchor="middle" opacity="0.85" fill="#00007f" stroke="#ffffff" stroke-width="0" font-family="serif" id="svg_209" transform="matrix(0.571783,0,0,0.561031,138.66,88.2876)" xml:space="preserve" font-size="24px" y="550.6059" x="173.34663">Playlist Step</text>
  <text text-anchor="middle" fill="#000000" stroke="#ffffff" stroke-width="0" font-family="serif" transform="matrix(0.652119,0,0,0.486461,23.0335,136.924)" xml:space="preserve" font-size="24px" id="svg_232" y="338.87695" x="121.40944"/>
  <text text-anchor="middle" fill="#00007f" stroke="#ffffff" stroke-width="0" font-family="serif" transform="matrix(0.822304,0,0,0.936975,48.1244,24.2312)" xml:space="preserve" font-size="24px" id="svg_235" y="478.04007" x="335.27655">DECK 1</text>
  <text text-anchor="middle" fill="#7f0000" stroke="#ffffff" stroke-width="0" font-family="serif" id="svg_238" transform="matrix(0.822304,0,0,0.936975,48.1244,24.2312)" xml:space="preserve" font-size="24px" y="476.97156" x="557.39441">DECK 2</text>
  <text text-anchor="middle" opacity="0.85" fill="#00007f" stroke="#ffffff" stroke-width="0" font-family="serif" xml:space="preserve" font-size="24px" id="svg_231" y="436.86273" x="420.52289">Xfader</text>
  <text text-anchor="middle" fill="#00007f" stroke="#ffffff" stroke-width="0" font-family="serif" id="svg_241" transform="matrix(0.803417,0,0,0.844391,56.0228,69.2374)" xml:space="preserve" font-size="24px" y="476.83606" x="450.10614">Misc</text>
  <text text-anchor="middle" fill="#000000" stroke="#ffffff" stroke-width="0" font-family="serif" transform="matrix(0.374979,0,0,0.542271,224.566,107.626)" xml:space="preserve" font-size="24px" y="31.298847" x="19.196341" id="svg_1">Cue 9</text>
  <text text-anchor="middle" fill="#000000" stroke="#ffffff" stroke-width="0" font-family="serif" transform="matrix(0.374979,0,0,0.542271,224.566,107.626)" xml:space="preserve" font-size="24px" y="31.298847" x="163.52092" id="svg_2">Cue 10</text>
  <text text-anchor="middle" fill="#000000" stroke="#ffffff" stroke-width="0" font-family="serif" transform="matrix(0.374979,0,0,0.542271,224.566,107.626)" xml:space="preserve" font-size="24px" y="29.129322" x="301.56146" id="svg_3">Cue 11</text>
  <text text-anchor="middle" fill="#000000" stroke="#ffffff" stroke-width="0" font-family="serif" transform="matrix(0.374979,0,0,0.542271,224.566,107.626)" xml:space="preserve" font-size="24px" y="28.043293" x="447.45352" id="svg_4">Cue 12</text>
  <text text-anchor="middle" fill="#000000" stroke="#ffffff" stroke-width="0" font-family="serif" transform="matrix(0.374979,0,0,0.542271,224.566,107.626)" xml:space="preserve" font-size="24px" y="139.77554" x="23.898861" id="svg_5">Cue 13</text>
  <text text-anchor="middle" fill="#000000" stroke="#ffffff" stroke-width="0" font-family="serif" transform="matrix(0.374979,0,0,0.542271,224.566,107.626)" xml:space="preserve" font-size="24px" y="139.7747" x="160.38414" id="svg_6">Cue 14</text>
  <text text-anchor="middle" fill="#000000" stroke="#ffffff" stroke-width="0" font-family="serif" transform="matrix(0.374979,0,0,0.542271,224.566,107.626)" xml:space="preserve" font-size="24px" y="135.43353" x="309.40753" id="svg_7">Cue 15</text>
  <text text-anchor="middle" fill="#000000" stroke="#ffffff" stroke-width="0" font-family="serif" transform="matrix(0.374979,0,0,0.542271,224.566,107.626)" xml:space="preserve" font-size="24px" y="133.26318" x="442.74741" id="svg_8">Cue 16</text>
  <text text-anchor="middle" fill="#000000" stroke="#ffffff" stroke-width="0" font-family="serif" transform="matrix(0.374979,0,0,0.542271,224.566,107.626)" xml:space="preserve" font-size="24px" y="-40.207378" x="587.42389" id="svg_9">Cue 5</text>
  <text text-anchor="middle" fill="#000000" stroke="#ffffff" stroke-width="0" font-family="serif" transform="matrix(0.374979,0,0,0.542271,224.566,107.626)" xml:space="preserve" font-size="24px" y="-39.975548" x="736.27496" id="svg_10">Cue 6</text>
  <text text-anchor="middle" fill="#000000" stroke="#ffffff" stroke-width="0" font-family="serif" transform="matrix(0.374979,0,0,0.542271,224.566,107.626)" xml:space="preserve" font-size="24px" y="-41.533192" x="872.93011" id="svg_11">Cue 7</text>
  <text text-anchor="middle" fill="#000000" stroke="#ffffff" stroke-width="0" font-family="serif" transform="matrix(0.374979,0,0,0.542271,224.566,107.626)" xml:space="preserve" font-size="24px" y="-40.216599" x="1021.7812" id="svg_12">Cue 8</text>
  <text text-anchor="middle" fill="#000000" stroke="#ffffff" stroke-width="0" font-family="serif" transform="matrix(0.374979,0,0,0.542271,224.566,107.626)" xml:space="preserve" font-size="24px" y="30.36536" x="590.20807" id="svg_13">Cue 9</text>
  <text text-anchor="middle" fill="#000000" stroke="#ffffff" stroke-width="0" font-family="serif" transform="matrix(0.374979,0,0,0.542271,224.566,107.626)" xml:space="preserve" font-size="24px" y="30.36536" x="734.53265" id="svg_14">Cue 10</text>
  <text text-anchor="middle" fill="#000000" stroke="#ffffff" stroke-width="0" font-family="serif" transform="matrix(0.374979,0,0,0.542271,224.566,107.626)" xml:space="preserve" font-size="24px" y="28.195835" x="872.57318" id="svg_15">Cue 11</text>
  <text text-anchor="middle" fill="#000000" stroke="#ffffff" stroke-width="0" font-family="serif" transform="matrix(0.374979,0,0,0.542271,224.566,107.626)" xml:space="preserve" font-size="24px" y="27.109806" x="1018.4653" id="svg_16">Cue 12</text>
  <text text-anchor="middle" fill="#000000" stroke="#ffffff" stroke-width="0" font-family="serif" transform="matrix(0.374979,0,0,0.542271,224.566,107.626)" xml:space="preserve" font-size="24px" y="138.84206" x="594.91058" id="svg_17">Cue 13</text>
  <text text-anchor="middle" fill="#000000" stroke="#ffffff" stroke-width="0" font-family="serif" transform="matrix(0.374979,0,0,0.542271,224.566,107.626)" xml:space="preserve" font-size="24px" y="138.84122" x="731.39587" id="svg_18">Cue 14</text>
  <text text-anchor="middle" fill="#000000" stroke="#ffffff" stroke-width="0" font-family="serif" transform="matrix(0.374979,0,0,0.542271,224.566,107.626)" xml:space="preserve" font-size="24px" y="134.50005" x="880.41925" id="svg_19">Cue 15</text>
  <text text-anchor="middle" fill="#000000" stroke="#ffffff" stroke-width="0" font-family="serif" transform="matrix(0.374979,0,0,0.542271,224.566,107.626)" xml:space="preserve" font-size="24px" y="132.3297" x="1013.7592" id="svg_20">Cue 16</text>
  <text text-anchor="middle" fill="#000000" stroke="#7c6666" font-family="serif" transform="matrix(0.333265,0,0,0.507533,-24.3719,23.2327)" xml:space="preserve" font-size="24px" y="226.00655" x="170.2122" id="svg_26">Slip Enabled</text>
  <text text-anchor="middle" fill="#000000" stroke="#7c6666" font-family="serif" transform="matrix(0.333265,0,0,0.507533,-24.3719,23.2327)" xml:space="preserve" font-size="24px" y="9.26719" x="165.99461" id="svg_27">Mode</text>
  <text text-anchor="middle" fill="#000000" stroke="#7c6666" font-family="serif" transform="matrix(0.415912,0,0,0.551472,-37.6103,28.0265)" xml:space="preserve" font-size="24px" y="-30.989721" x="268.63306" id="svg_28">Record</text>
  <text text-anchor="middle" fill="#000000" stroke="#7c6666" font-family="serif" transform="matrix(0.329296,0,0,0.572779,-37.7124,26.5506)" xml:space="preserve" font-size="24px" y="-25.873112" x="496.88925" id="svg_29">Assert LEDs</text>
  <text text-anchor="middle" fill="#000000" stroke="#7c6666" font-family="serif" transform="matrix(0.296584,0,0,0.521118,-17.9257,25.6454)" xml:space="preserve" font-size="24px" y="-26.599615" x="681.98578" id="svg_43">Play/Scratch</text>
  <text text-anchor="middle" fill="#000000" stroke="#ffffff" stroke-width="0" font-family="serif" transform="matrix(0.357556,0,0,0.468599,221.584,116.637)" xml:space="preserve" font-size="24px" y="343.22083" x="786.89056" id="svg_45">Loop</text>
  <text text-anchor="middle" fill="#000000" stroke="#ffffff" stroke-width="0" font-family="serif" transform="matrix(0.357556,0,0,0.468599,221.584,116.637)" xml:space="preserve" font-size="24px" y="232.75633" x="788.53375" id="svg_47">Loop</text>
  <text text-anchor="middle" fill="#000000" stroke="#ffffff" stroke-width="0" font-family="serif" transform="matrix(0.357556,0,0,0.468599,221.584,116.637)" xml:space="preserve" font-size="24px" y="337.09634" x="469.55481" id="svg_71">Kill Mids</text>
  <text text-anchor="middle" fill="#000000" stroke="#ffffff" stroke-width="0" font-family="serif" transform="matrix(0.350777,0,0,0.50571,223.995,101.206)" xml:space="preserve" font-size="24px" y="223.45271" x="469.89206" id="svg_72">Kill Highs</text>
  <text text-anchor="middle" fill="#000000" stroke="#ffffff" stroke-width="0" font-family="serif" transform="matrix(0.382324,0,0,0.54913,222.43,76.5058)" xml:space="preserve" font-size="24px" y="248.89479" x="304.43274" id="svg_75">Double</text>
  <text text-anchor="middle" fill="#000000" stroke="#ffffff" stroke-width="0" font-family="serif" transform="matrix(0.383818,0,0,0.530249,221.924,92.2827)" xml:space="preserve" font-size="24px" y="330.02502" x="299.69717" id="svg_76">Halve</text>
  <text text-anchor="middle" fill="#000000" stroke="#ffffff" stroke-width="0" font-family="serif" transform="matrix(0.357556,0,0,0.468599,221.584,116.637)" xml:space="preserve" font-size="24px" y="343.86957" x="321.22955" id="svg_83">Loop</text>
  <text text-anchor="middle" fill="#000000" stroke="#ffffff" stroke-width="0" font-family="serif" transform="matrix(0.357556,0,0,0.468599,221.584,116.637)" xml:space="preserve" font-size="24px" y="232.14975" x="317.93729" id="svg_84">Loop</text>
  <text text-anchor="middle" fill="#00007f" stroke="#ffffff" stroke-width="0" font-family="serif" transform="matrix(0.667958,0,0,0.680806,6.96573,78.365)" xml:space="preserve" font-size="24px" y="250.88707" x="63.54937" id="svg_122">Play/</text>
  <text text-anchor="middle" fill="#000000" stroke="#ffffff" stroke-width="0" font-family="serif" id="svg_21" transform="matrix(0.502061,0,0,0.612491,147.84,77.0457)" xml:space="preserve" font-size="24px" y="293.54489" x="224.9903">Load Selected</text>
  <text text-anchor="middle" fill="#000000" stroke="#ffffff" stroke-width="0" font-family="serif" id="svg_22" transform="matrix(0.502061, 0, 0, 0.612491, 147.84, 77.0457)" xml:space="preserve" font-size="24px" y="253.04665" x="221.04608">Deck 1</text>
  <text text-anchor="middle" fill="#000000" stroke="#ffffff" stroke-width="0" font-family="serif" id="svg_23" transform="matrix(0.502061,0,0,0.612491,147.84,77.0457)" xml:space="preserve" font-size="24px" y="289.62622" x="860.76801">Load Selected</text>
  <text text-anchor="middle" fill="#000000" stroke="#ffffff" stroke-width="0" font-family="serif" id="svg_24" transform="matrix(0.502061,0,0,0.612491,147.84,77.0457)" xml:space="preserve" font-size="24px" y="249.12796" x="856.82379">Deck 2</text>
  <text text-anchor="middle" fill="#000000" stroke="#ffffff" stroke-width="0" font-family="serif" id="svg_25" transform="matrix(0.502061,0,0,0.612491,147.84,77.0457)" xml:space="preserve" font-size="24px" y="453.85431" x="225.7386">Load Selected</text>
  <text text-anchor="middle" fill="#000000" stroke="#ffffff" stroke-width="0" font-family="serif" id="svg_30" transform="matrix(0.502061,0,0,0.612491,147.84,77.0457)" xml:space="preserve" font-size="24px" y="409.51447" x="221.79439">Sampler 1</text>
  <text text-anchor="middle" fill="#000000" stroke="#ffffff" stroke-width="0" font-family="serif" id="svg_31" transform="matrix(0.502061,0,0,0.612491,147.84,77.0457)" xml:space="preserve" font-size="24px" y="447.13171" x="433.11588">Load Selected</text>
  <text text-anchor="middle" fill="#000000" stroke="#ffffff" stroke-width="0" font-family="serif" id="svg_35" transform="matrix(0.502061,0,0,0.612491,147.84,77.0457)" xml:space="preserve" font-size="24px" y="406.63345" x="429.17166">Sampler 2</text>
  <text text-anchor="middle" fill="#000000" stroke="#ffffff" stroke-width="0" font-family="serif" id="svg_40" transform="matrix(0.502061,0,0,0.612491,147.84,77.0457)" xml:space="preserve" font-size="24px" y="446.17148" x="647.52844">Load Selected</text>
  <text text-anchor="middle" fill="#000000" stroke="#ffffff" stroke-width="0" font-family="serif" id="svg_41" transform="matrix(0.502061,0,0,0.612491,147.84,77.0457)" xml:space="preserve" font-size="24px" y="405.67325" x="643.58423">Sampler 3</text>
  <text text-anchor="middle" fill="#000000" stroke="#ffffff" stroke-width="0" font-family="serif" id="svg_44" transform="matrix(0.502061,0,0,0.612491,147.84,77.0457)" xml:space="preserve" font-size="24px" y="447.1319" x="860.76709">Load Selected</text>
  <text text-anchor="middle" fill="#000000" stroke="#ffffff" stroke-width="0" font-family="serif" id="svg_48" transform="matrix(0.502061,0,0,0.612491,147.84,77.0457)" xml:space="preserve" font-size="24px" y="406.63364" x="856.82288">Sampler 4</text>
  <text text-anchor="middle" fill="#000000" stroke="#ffffff" stroke-width="0" font-family="serif" transform="matrix(0.859835,0,0,0.57841,49.4969,162.154)" xml:space="preserve" font-size="24px" id="svg_49" y="411.98563" x="424.74326">SAMPLERS</text>
  <text text-anchor="middle" opacity="0.85" fill="#00007f" stroke="#ffffff" stroke-width="0" font-family="serif" id="svg_63" transform="matrix(0.599801,0,0,0.646174,8.67952,89.2403)" xml:space="preserve" font-size="24px" y="302.58951" x="69.866653">Scroll</text>
  <text text-anchor="middle" fill="#7f0000" stroke="#ffffff" stroke-width="0" font-family="serif" id="svg_64" transform="matrix(0.607241,0,0,0.594226,7.88319,103.372)" xml:space="preserve" font-size="24px" y="275.34747" x="241.78543">Tracklist</text>
  <text text-anchor="middle" fill="#7f0000" stroke="#ffffff" stroke-width="0" font-family="serif" id="svg_69" transform="matrix(0.667958,0,0,0.680806,6.96573,78.365)" xml:space="preserve" font-size="24px" y="249.30347" x="223.34314">Play/</text>
  <text text-anchor="middle" fill="#7f0000" stroke="#ffffff" stroke-width="0" font-family="serif" id="svg_70" transform="matrix(0.599801,0,0,0.646174,8.67952,89.2403)" xml:space="preserve" font-size="24px" y="300.92102" x="247.81822">Scroll</text>
  <text text-anchor="middle" opacity="0.85" fill="#00007f" stroke="#ffffff" stroke-width="0" font-family="serif" id="svg_73" transform="matrix(0.571783,0,0,0.561031,138.66,88.2876)" xml:space="preserve" font-size="24px" y="549.76318" x="793.47009">Tracklist Step</text>
  <text transform="matrix(0.672056, 0, 0, 0.638889, 10.7533, 131.341)" id="svg_57" text-anchor="middle" fill="#000000" stroke="#ffffff" stroke-width="0" font-family="serif" xml:space="preserve" font-size="24px" y="371.170984" x="134.782938">Vertical Sliders</text>
  <text id="svg_58" transform="matrix(0.389895, 0, 0, 0.424951, 22.3256, 219.156)" text-anchor="middle" fill="#000000" stroke="#ffffff" stroke-width="0" font-family="serif" xml:space="preserve" font-size="24px" y="388.006852" x="204.330149">(See DJ Mode for Details)</text>
 </g>
</svg>