<?xml version="1.0" encoding="UTF-8" standalone="no"?>
<svg
   xmlns:dc="http://purl.org/dc/elements/1.1/"
   xmlns:cc="http://creativecommons.org/ns#"
   xmlns:rdf="http://www.w3.org/1999/02/22-rdf-syntax-ns#"
   xmlns:svg="http://www.w3.org/2000/svg"
   xmlns="http://www.w3.org/2000/svg"
   xmlns:sodipodi="http://sodipodi.sourceforge.net/DTD/sodipodi-0.dtd"
   xmlns:inkscape="http://www.inkscape.org/namespaces/inkscape"
   width="1280"
   height="960"
   id="svg2"
   version="1.1"
   inkscape:version="0.48.3.1 r9886"
   sodipodi:docname="modes.svg">
  <metadata
     id="metadata102">
    <rdf:RDF>
      <cc:Work
         rdf:about="">
        <dc:format>image/svg+xml</dc:format>
        <dc:type
           rdf:resource="http://purl.org/dc/dcmitype/StillImage" />
      </cc:Work>
    </rdf:RDF>
  </metadata>
  <defs
     id="defs100" />
  <sodipodi:namedview
     pagecolor="#ffffff"
     bordercolor="#666666"
     borderopacity="1"
     objecttolerance="10"
     gridtolerance="10"
     guidetolerance="10"
     inkscape:pageopacity="0"
     inkscape:pageshadow="2"
     inkscape:window-width="1880"
     inkscape:window-height="1058"
     id="namedview98"
     showgrid="false"
     inkscape:zoom="0.48125"
     inkscape:cx="-31.168831"
     inkscape:cy="240"
     inkscape:window-x="1920"
     inkscape:window-y="0"
     inkscape:window-maximized="1"
     inkscape:current-layer="svg2" />
  <!-- Created with SVG-edit - http://svg-edit.googlecode.com/ -->
  <g
     display="inline"
     id="g4"
     style="display:inline"
     transform="matrix(2,0,0,2,3.5260549,-0.05212036)">
    <title
       id="title6">outline</title>
    <path
       id="svg_32"
       transform="matrix(0.01099012,-0.99993961,0.99993961,0.01099012,-49.331292,82.557139)"
       d="m 6.02301,75.263474 11.04571,-18.089733 11.046539,18.089733 -22.092249,0 z"
       inkscape:connector-curvature="0"
       style="fill:#ffffff;stroke:#000000;stroke-width:3" />
    <path
       id="svg_36"
       d="m 213.61204,426.40146 17.27872,-24.54993 17.27999,24.54993 -34.5587,0 z"
       inkscape:connector-curvature="0"
       style="fill:#ffffff;stroke:#000000;stroke-width:3" />
    <path
       id="svg_37"
       transform="matrix(-0.99994351,0.01062886,-0.01062886,-0.99994351,466.78675,891.27523)"
       d="m 213.74428,459.15262 17.27871,-24.54993 17.27999,24.54993 -34.5587,0 z"
       inkscape:connector-curvature="0"
       style="fill:#ffffff;stroke:#000000;stroke-width:3" />
    <path
       id="svg_38"
       d="m 582.64996,427.62442 17.27875,-24.54993 17.27997,24.54993 -34.55872,0 z"
       inkscape:connector-curvature="0"
       style="fill:#ffffff;stroke:#000000;stroke-width:3" />
    <path
       id="svg_39"
       transform="matrix(-0.99994351,0.01062886,-0.01062886,-0.99994351,1206.1369,889.79189)"
       d="m 583.42328,460.37561 17.27869,-24.54993 17.28002,24.54993 -34.55871,0 z"
       inkscape:connector-curvature="0"
       style="fill:#ffffff;stroke:#000000;stroke-width:3" />
    <rect
       id="svg_46"
       height="82.634888"
       width="92.2155"
       y="297.26193"
       x="214.07816"
       style="fill:none;stroke:#000000;stroke-width:3" />
    <rect
       id="svg_50"
       height="82.634888"
       width="92.2155"
       y="200.85457"
       x="213.78008"
       style="fill:none;stroke:#000000;stroke-width:3" />
    <rect
       id="svg_51"
       height="82.634888"
       width="92.2155"
       y="106.24204"
       x="213.47948"
       style="fill:#ffffff;stroke:#000000;stroke-width:3" />
    <rect
       id="svg_52"
       height="82.634888"
       width="92.2155"
       y="11.63187"
       x="213.18002"
       style="fill:none;stroke:#000000;stroke-width:3" />
    <rect
       id="svg_53"
       height="82.634888"
       width="92.2155"
       y="296.49713"
       x="320.08502"
       style="fill:none;stroke:#000000;stroke-width:3" />
    <rect
       id="svg_54"
       height="82.634888"
       width="92.2155"
       y="200.08978"
       x="319.78693"
       style="fill:none;stroke:#000000;stroke-width:3" />
    <rect
       id="svg_55"
       height="82.634888"
       width="92.2155"
       y="105.47726"
       x="319.48633"
       style="fill:none;stroke:#000000;stroke-width:3" />
    <rect
       id="svg_56"
       height="82.634888"
       width="92.2155"
       y="10.867088"
       x="319.18689"
       style="fill:none;stroke:#000000;stroke-width:3" />
    <rect
       id="svg_65"
       height="82.634888"
       width="92.2155"
       y="296.49799"
       x="426.84277"
       style="fill:none;stroke:#000000;stroke-width:3" />
    <rect
       id="svg_66"
       height="82.634888"
       width="92.2155"
       y="200.09062"
       x="426.54471"
       style="fill:none;stroke:#000000;stroke-width:3" />
    <rect
       id="svg_67"
       height="82.634888"
       width="92.2155"
       y="105.4781"
       x="426.24408"
       style="fill:none;stroke:#000000;stroke-width:3" />
    <rect
       id="svg_68"
       height="82.634888"
       width="92.2155"
       y="10.867931"
       x="425.94464"
       style="fill:none;stroke:#000000;stroke-width:3" />
    <rect
       id="svg_77"
       height="82.634888"
       width="92.2155"
       y="296.49689"
       x="532.24811"
       style="fill:none;stroke:#000000;stroke-width:3" />
    <rect
       id="svg_78"
       height="82.634888"
       width="92.2155"
       y="200.08951"
       x="531.95007"
       style="fill:none;stroke:#000000;stroke-width:3" />
    <rect
       id="svg_79"
       height="82.634888"
       width="92.2155"
       y="105.477"
       x="531.64941"
       style="fill:none;stroke:#000000;stroke-width:3" />
    <rect
       id="svg_80"
       height="82.634888"
       width="92.2155"
       y="10.866821"
       x="531.34998"
       style="fill:none;stroke:#000000;stroke-width:3" />
    <ellipse
       transform="matrix(1.3613568e-4,-0.99999999,0.99999999,1.3613568e-4,-9.1089611,845.8798)"
       ry="152.49428"
       rx="16.684473"
       id="svg_82"
       cy="427.49484"
       cx="418.44342"
       sodipodi:cx="418.44342"
       sodipodi:cy="427.49484"
       sodipodi:rx="16.684473"
       sodipodi:ry="152.49428"
       style="fill:#ffffff;stroke:#000000;stroke-width:3"
       d="m 435.12789,427.49484 c 0,84.22027 -7.46989,152.49428 -16.68447,152.49428 -9.21458,0 -16.68447,-68.27401 -16.68447,-152.49428 0,-84.22026 7.46989,-152.49428 16.68447,-152.49428 9.21458,0 16.68447,68.27402 16.68447,152.49428 z" />
    <path
       id="svg_86"
       transform="matrix(-0.00401599,0.99999194,-0.99999194,-0.00401599,111.3474,21.227878)"
       d="m 34.056412,75.110497 11.045719,-18.089695 11.046539,18.089695 -22.092258,0 z"
       inkscape:connector-curvature="0"
       style="fill:#ffffff;stroke:#000000;stroke-width:3" />
    <path
       id="svg_90"
       transform="matrix(0.01099012,-0.99993961,0.99993961,0.01099012,-93.154239,124.1083)"
       d="m 5.11691,118.19286 11.045711,-18.08973 11.046539,18.08973 -22.092251,0 1e-6,0 z"
       inkscape:connector-curvature="0"
       style="fill:#ffffff;stroke:#000000;stroke-width:3" />
    <path
       id="svg_91"
       transform="matrix(-0.00401599,0.99999194,-0.99999194,-0.00401599,154.66473,65.227159)"
       d="m 33.803921,118.68091 11.045708,-18.08969 11.046543,18.08969 -22.092251,0 z"
       inkscape:connector-curvature="0"
       style="fill:#ffffff;stroke:#000000;stroke-width:3" />
    <path
       id="svg_92"
       transform="matrix(0.01099012,-0.99993961,0.99993961,0.01099012,-136.74161,167.21924)"
       d="m 5.11707,161.78287 11.045711,-18.08976 11.046539,18.08976 -22.092251,0 1e-6,0 z"
       inkscape:connector-curvature="0"
       style="fill:#ffffff;stroke:#000000;stroke-width:3" />
    <path
       id="svg_93"
       transform="matrix(-0.00401599,0.99999194,-0.99999194,-0.00401599,197.60144,108.35854)"
       d="m 33.791512,161.62988 11.045719,-18.0897 11.046539,18.0897 -22.092258,0 z"
       inkscape:connector-curvature="0"
       style="fill:#ffffff;stroke:#000000;stroke-width:3" />
    <path
       id="svg_94"
       transform="matrix(0.01099012,-0.99993961,0.99993961,0.01099012,-180.32154,211.61969)"
       d="m 5.77163,206.01318 11.045711,-18.08975 11.046539,18.08975 -22.092251,0 1e-6,0 z"
       inkscape:connector-curvature="0"
       style="fill:#ffffff;stroke:#000000;stroke-width:3" />
    <path
       id="svg_95"
       transform="matrix(-0.00401599,0.99999194,-0.99999194,-0.00401599,241.83108,152.76616)"
       d="m 33.792469,205.8602 11.045719,-18.08969 11.046543,18.08969 -22.092262,0 z"
       inkscape:connector-curvature="0"
       style="fill:#ffffff;stroke:#000000;stroke-width:3" />
    <ellipse
       ry="10.89747"
       rx="73.076927"
       id="svg_96"
       cy="66.153801"
       cx="132.43585"
       sodipodi:cx="132.43585"
       sodipodi:cy="66.153801"
       sodipodi:rx="73.076927"
       sodipodi:ry="10.89747"
       style="fill:#ffffff;stroke:#000000;stroke-width:3"
       d="m 205.51278,66.153801 c 0,6.018507 -32.71766,10.89747 -73.07693,10.89747 -40.35927,0 -73.076925,-4.878963 -73.076925,-10.89747 0,-6.018507 32.717655,-10.897471 73.076925,-10.897471 40.35927,0 73.07693,4.878964 73.07693,10.897471 z" />
    <ellipse
       id="svg_98"
       ry="10.89747"
       rx="73.076927"
       cy="109.74332"
       cx="132.11493"
       sodipodi:cx="132.11493"
       sodipodi:cy="109.74332"
       sodipodi:rx="73.076927"
       sodipodi:ry="10.89747"
       style="fill:#ffffff;stroke:#000000;stroke-width:3"
       d="m 205.19186,109.74332 c 0,6.0185 -32.71766,10.89747 -73.07693,10.89747 -40.359273,0 -73.076928,-4.87897 -73.076928,-10.89747 0,-6.01851 32.717655,-10.897474 73.076928,-10.897474 40.35927,0 73.07693,4.878964 73.07693,10.897474 z" />
    <ellipse
       id="svg_99"
       ry="10.89747"
       rx="73.076927"
       cy="153.33333"
       cx="132.75729"
       sodipodi:cx="132.75729"
       sodipodi:cy="153.33333"
       sodipodi:rx="73.076927"
       sodipodi:ry="10.89747"
       style="fill:#ffffff;stroke:#000000;stroke-width:3"
       d="m 205.83422,153.33333 c 0,6.01851 -32.71765,10.89747 -73.07693,10.89747 -40.359269,0 -73.076923,-4.87896 -73.076923,-10.89747 0,-6.01851 32.717654,-10.89747 73.076923,-10.89747 40.35928,0 73.07693,4.87896 73.07693,10.89747 z" />
    <ellipse
       id="svg_100"
       ry="10.89747"
       rx="73.076927"
       cy="197.56363"
       cx="132.75668"
       sodipodi:cx="132.75668"
       sodipodi:cy="197.56363"
       sodipodi:rx="73.076927"
       sodipodi:ry="10.89747"
       style="fill:#ffffff;stroke:#000000;stroke-width:3"
       d="m 205.83361,197.56363 c 0,6.01851 -32.71765,10.89747 -73.07693,10.89747 -40.359269,0 -73.076924,-4.87896 -73.076924,-10.89747 0,-6.01851 32.717655,-10.89747 73.076924,-10.89747 40.35928,0 73.07693,4.87896 73.07693,10.89747 z" />
    <ellipse
       ry="37.173203"
       rx="41.647926"
       id="svg_101"
       cy="262.25113"
       cx="48.983242"
       sodipodi:cx="48.983242"
       sodipodi:cy="262.25113"
       sodipodi:rx="41.647926"
       sodipodi:ry="37.173203"
       style="fill:#ffffff;stroke:#000000;stroke-width:3"
       d="m 90.631168,262.25113 c 0,20.53019 -18.646411,37.1732 -41.647926,37.1732 -23.001515,0 -41.6479263,-16.64301 -41.6479263,-37.1732 0,-20.53019 18.6464113,-37.1732 41.6479263,-37.1732 23.001515,0 41.647926,16.64301 41.647926,37.1732 z" />
    <ellipse
       id="svg_105"
       ry="37.173203"
       rx="40.994343"
       cy="261.90668"
       cx="152.82884"
       sodipodi:cx="152.82884"
       sodipodi:cy="261.90668"
       sodipodi:rx="40.994343"
       sodipodi:ry="37.173203"
       style="fill:#ffffff;stroke:#000000;stroke-width:3"
       d="m 193.82318,261.90668 c 0,20.53019 -18.35379,37.1732 -40.99434,37.1732 -22.64055,0 -40.99434,-16.64301 -40.99434,-37.1732 0,-20.5302 18.35379,-37.17321 40.99434,-37.17321 22.64055,0 40.99434,16.64301 40.99434,37.17321 z" />
    <ellipse
       transform="matrix(-2.7925268e-5,-1,1,-2.7925268e-5,-355.83086,430.33108)"
       id="svg_110"
       ry="10.89747"
       rx="73.076927"
       cy="393.07611"
       cx="37.244404"
       sodipodi:cx="37.244404"
       sodipodi:cy="393.07611"
       sodipodi:rx="73.076927"
       sodipodi:ry="10.89747"
       style="opacity:0.5;fill:#ffffff;stroke:#000000;stroke-width:3"
       d="m 110.32133,393.07611 c 0,6.01851 -32.717654,10.89747 -73.076926,10.89747 -40.3592726,0 -73.076927,-4.87896 -73.076927,-10.89747 0,-6.01851 32.7176544,-10.89747 73.076927,-10.89747 40.359272,0 73.076926,4.87896 73.076926,10.89747 z" />
    <ellipse
       id="svg_111"
       transform="matrix(-2.7925268e-5,-1,1,-2.7925268e-5,-312.24151,476.48521)"
       ry="10.89747"
       rx="73.076927"
       cy="394.36011"
       cx="82.115044"
       sodipodi:cx="82.115044"
       sodipodi:cy="394.36011"
       sodipodi:rx="73.076927"
       sodipodi:ry="10.89747"
       style="opacity:0.5;fill:#ffffff;stroke:#000000;stroke-width:3"
       d="m 155.19197,394.36011 c 0,6.0185 -32.71765,10.89747 -73.076926,10.89747 -40.359273,0 -73.0769275,-4.87897 -73.0769275,-10.89747 0,-6.01851 32.7176545,-10.89747 73.0769275,-10.89747 40.359276,0 73.076926,4.87896 73.076926,10.89747 z" />
    <ellipse
       id="svg_112"
       transform="matrix(-2.7925268e-5,-1,1,-2.7925268e-5,-268.64849,520.07701)"
       ry="10.89747"
       rx="73.076927"
       cy="394.35898"
       cx="125.70629"
       sodipodi:cx="125.70629"
       sodipodi:cy="394.35898"
       sodipodi:rx="73.076927"
       sodipodi:ry="10.89747"
       style="opacity:0.5;fill:#ffffff;stroke:#000000;stroke-width:3"
       d="m 198.78322,394.35898 c 0,6.01851 -32.71766,10.89747 -73.07693,10.89747 -40.359271,0 -73.076926,-4.87896 -73.076926,-10.89747 0,-6.01851 32.717655,-10.89747 73.076926,-10.89747 40.35927,0 73.07693,4.87896 73.07693,10.89747 z" />
    <ellipse
       id="svg_113"
       transform="matrix(-2.7925268e-5,-1,1,-2.7925268e-5,-225.64931,561.69299)"
       ry="10.89747"
       rx="73.076927"
       cy="393.66849"
       cx="168.01341"
       sodipodi:cx="168.01341"
       sodipodi:cy="393.66849"
       sodipodi:rx="73.076927"
       sodipodi:ry="10.89747"
       style="opacity:0.5;fill:#ffffff;stroke:#000000;stroke-width:3"
       d="m 241.09034,393.66849 c 0,6.0185 -32.71766,10.89747 -73.07693,10.89747 -40.35927,0 -73.076925,-4.87897 -73.076925,-10.89747 0,-6.01851 32.717655,-10.89747 73.076925,-10.89747 40.35927,0 73.07693,4.87896 73.07693,10.89747 z" />
    <path
       id="svg_114"
       d="m 84.90287,302.61334 17.042,-9.52542 17.04225,9.52542 -17.04225,9.52527 -17.042,-9.52527 z"
       inkscape:connector-curvature="0"
       style="opacity:0.5;fill:#ffffff;stroke:#000000;stroke-width:3" />
    <path
       transform="matrix(-1.0471976e-5,-1,1,-1.0471976e-5,51.762833,107.32109)"
       id="svg_116"
       d="M 65.44136,27.779072 79.542274,13.351732 93.643371,27.779072 79.542274,42.206181 65.44136,27.779072 z"
       inkscape:connector-curvature="0"
       style="fill:#ffffff;stroke:#000000;stroke-width:3" />
    <path
       id="svg_117"
       transform="matrix(-0.70102129,0.71314034,-0.71314034,-0.70102129,232.53476,-40.881445)"
       d="m 108.63916,28.303152 16.19833,-16.4893 16.19855,16.4893 -16.19855,16.489027 -16.19833,-16.489027 z"
       inkscape:connector-curvature="0"
       style="fill:#ffffff;stroke:#000000;stroke-width:3" />
    <path
       id="svg_118"
       transform="matrix(-0.00401599,0.99999194,-0.99999194,-0.00401599,198.19393,-142.94298)"
       d="m 158.2624,37.910858 12.01944,-21.365513 12.02037,21.365513 -24.03981,0 z"
       inkscape:connector-curvature="0"
       style="fill:#ffffff;stroke:#000000;stroke-width:3" />
    <path
       id="svg_119"
       d="m 17.4352,20.19718 3.67761,-6.36946 6.369511,-3.677649 7.35533,0 6.369499,3.677649 3.677711,6.36946 0,7.355381 -3.677711,6.369471 -6.369499,3.677689 -7.35533,0 -6.369511,-3.677689 -3.67761,-6.369471 0,-7.355381 z"
       inkscape:connector-curvature="0"
       style="fill:#ffffff;stroke:#000000;stroke-width:3" />
  </g>
  <g
     display="inline"
     id="g52"
     style="display:inline"
     transform="matrix(2,0,0,2,3.5260549,-0.05212036)">
    <title
       id="title54">shading</title>
    <rect
       id="svg_127"
       height="381.04578"
       width="426.60284"
       y="4.9672771"
       x="205.75323"
       style="opacity:0.45;fill:#7f00ff;stroke:#ffffff;stroke-width:3" />
    <rect
       id="svg_129"
       height="71.241531"
       width="48.366177"
       y="395.81726"
       x="207.05881"
       style="opacity:0.5;fill:#007fff;stroke:#ffffff;stroke-width:3" />
    <rect
       id="svg_133"
       height="164.05203"
       width="27.45046"
       y="49.738876"
       x="4.117866"
       style="opacity:0.5;fill:#007fff;stroke:#ffffff;stroke-width:3" />
    <rect
       id="svg_134"
       height="165.35921"
       width="26.796837"
       y="49.41053"
       x="30.588549"
       style="opacity:0.5;fill:#ff7f00;stroke:#ffffff;stroke-width:3" />
    <rect
       id="svg_136"
       height="71.241531"
       width="48.366177"
       y="396.1445"
       x="577.31989"
       style="opacity:0.5;fill:#ff7f00;stroke:#ffffff;stroke-width:3" />
    <ellipse
       ry="38.562092"
       rx="43.790852"
       id="svg_138"
       cy="261.83005"
       cx="48.888882"
       sodipodi:cx="48.888882"
       sodipodi:cy="261.83005"
       sodipodi:rx="43.790852"
       sodipodi:ry="38.562092"
       style="opacity:0.5;fill:#007fff;stroke:#ffffff;stroke-width:3"
       d="m 92.679733,261.83005 c 0,21.29725 -19.605832,38.56209 -43.790851,38.56209 -24.18502,0 -43.7908519,-17.26484 -43.7908519,-38.56209 0,-21.29726 19.6058319,-38.56209 43.7908519,-38.56209 24.185019,0 43.790851,17.26483 43.790851,38.56209 z" />
    <ellipse
       id="svg_139"
       ry="38.562092"
       rx="43.790852"
       cy="261.17642"
       cx="152.48387"
       sodipodi:cx="152.48387"
       sodipodi:cy="261.17642"
       sodipodi:rx="43.790852"
       sodipodi:ry="38.562092"
       style="opacity:0.5;fill:#ff7f00;stroke:#ffffff;stroke-width:3"
       d="m 196.27472,261.17642 c 0,21.29726 -19.60583,38.56209 -43.79085,38.56209 -24.18502,0 -43.79085,-17.26483 -43.79085,-38.56209 0,-21.29725 19.60583,-38.56209 43.79085,-38.56209 24.18502,0 43.79085,17.26484 43.79085,38.56209 z" />
    <ellipse
       ry="23.529291"
       rx="165.35954"
       id="svg_213"
       cy="427.12408"
       cx="418.56229"
       sodipodi:cx="418.56229"
       sodipodi:cy="427.12408"
       sodipodi:rx="165.35954"
       sodipodi:ry="23.529291"
       style="opacity:0.45;fill:#7f00ff;stroke:#ffffff"
       d="m 583.92183,427.12408 c 0,12.99487 -74.03399,23.5293 -165.35954,23.5293 -91.32556,0 -165.35955,-10.53443 -165.35955,-23.5293 0,-12.99486 74.03399,-23.52929 165.35955,-23.52929 91.32555,0 165.35954,10.53443 165.35954,23.52929 z" />
    <ellipse
       transform="matrix(0.00334055,0.99999442,-0.99999442,0.00334055,429.86703,351.82657)"
       id="svg_221"
       ry="19.256752"
       rx="74.822449"
       cy="391.56647"
       cx="38.431664"
       sodipodi:cx="38.431664"
       sodipodi:cy="391.56647"
       sodipodi:rx="74.822449"
       sodipodi:ry="19.256752"
       style="opacity:0.5;fill:#ff7f00;stroke:#ffffff;stroke-width:3"
       d="m 113.25411,391.56647 c 0,10.63521 -33.499149,19.25675 -74.822446,19.25675 -41.3232979,0 -74.822449,-8.62154 -74.822449,-19.25675 0,-10.63521 33.4991511,-19.25675 74.822449,-19.25675 41.323297,0 74.822446,8.62154 74.822446,19.25675 z" />
    <ellipse
       id="svg_222"
       transform="matrix(0.00334055,0.99999442,-0.99999442,0.00334055,475.14495,308.35914)"
       ry="19.256752"
       rx="74.822449"
       cy="392.54712"
       cx="82.877792"
       sodipodi:cx="82.877792"
       sodipodi:cy="392.54712"
       sodipodi:rx="74.822449"
       sodipodi:ry="19.256752"
       style="opacity:0.5;fill:#007fff;stroke:#ffffff;stroke-width:3"
       d="m 157.70024,392.54712 c 0,10.63521 -33.49915,19.25675 -74.822448,19.25675 -41.323297,0 -74.8224484,-8.62154 -74.8224484,-19.25675 0,-10.63521 33.4991514,-19.25675 74.8224484,-19.25675 41.323298,0 74.822448,8.62154 74.822448,19.25675 z" />
    <ellipse
       id="svg_223"
       transform="matrix(0.00334055,0.99999442,-0.99999442,0.00334055,516.83721,266.52737)"
       ry="19.256752"
       rx="74.822449"
       cy="392.54712"
       cx="124.70786"
       sodipodi:cx="124.70786"
       sodipodi:cy="392.54712"
       sodipodi:rx="74.822449"
       sodipodi:ry="19.256752"
       style="opacity:0.5;fill:#ff7f00;stroke:#ffffff;stroke-width:3"
       d="m 199.53031,392.54712 c 0,10.63521 -33.49915,19.25675 -74.82245,19.25675 -41.323295,0 -74.822446,-8.62154 -74.822446,-19.25675 0,-10.63521 33.499151,-19.25675 74.822446,-19.25675 41.3233,0 74.82245,8.62154 74.82245,19.25675 z" />
    <ellipse
       id="svg_224"
       transform="matrix(0.00334055,0.99999442,-0.99999442,0.00334055,560.48411,224.04243)"
       ry="19.256752"
       rx="74.822449"
       cy="393.20071"
       cx="167.84512"
       sodipodi:cx="167.84512"
       sodipodi:cy="393.20071"
       sodipodi:rx="74.822449"
       sodipodi:ry="19.256752"
       style="opacity:0.5;fill:#007fff;stroke:#ffffff;stroke-width:3"
       d="m 242.66757,393.20071 c 0,10.63521 -33.49915,19.25676 -74.82245,19.25676 -41.32329,0 -74.822445,-8.62155 -74.822445,-19.25676 0,-10.63521 33.499155,-19.25675 74.822445,-19.25675 41.3233,0 74.82245,8.62154 74.82245,19.25675 z" />
    <ellipse
       id="svg_225"
       transform="matrix(-1,-1.7453293e-5,1.7453293e-5,-1,266.40654,396.86232)"
       ry="19.256752"
       rx="74.822449"
       cy="198.42946"
       cx="133.20459"
       sodipodi:cx="133.20459"
       sodipodi:cy="198.42946"
       sodipodi:rx="74.822449"
       sodipodi:ry="19.256752"
       style="opacity:0.45;fill:#7f00ff;stroke:#ffffff"
       d="m 208.02704,198.42946 c 0,10.63521 -33.49915,19.25675 -74.82245,19.25675 -41.323298,0 -74.822449,-8.62154 -74.822449,-19.25675 0,-10.63521 33.499151,-19.25675 74.822449,-19.25675 41.3233,0 74.82245,8.62154 74.82245,19.25675 z" />
    <ellipse
       id="svg_227"
       transform="matrix(-1,-1.7453293e-5,1.7453293e-5,-1,267.71132,306.67034)"
       ry="19.256752"
       rx="74.822449"
       cy="153.33504"
       cx="133.85571"
       sodipodi:cx="133.85571"
       sodipodi:cy="153.33504"
       sodipodi:rx="74.822449"
       sodipodi:ry="19.256752"
       style="opacity:0.45;fill:#7f00ff;stroke:#ffffff"
       d="m 208.67816,153.33504 c 0,10.63521 -33.49915,19.25675 -74.82245,19.25675 -41.323294,0 -74.822446,-8.62154 -74.822446,-19.25675 0,-10.63521 33.499152,-19.25675 74.822446,-19.25675 41.3233,0 74.82245,8.62154 74.82245,19.25675 z" />
    <ellipse
       id="svg_228"
       transform="matrix(-1,-1.7453293e-5,1.7453293e-5,-1,267.71209,219.09234)"
       ry="19.256752"
       rx="74.822449"
       cy="109.54418"
       cx="133.85571"
       sodipodi:cx="133.85571"
       sodipodi:cy="109.54418"
       sodipodi:rx="74.822449"
       sodipodi:ry="19.256752"
       style="opacity:0.45;fill:#7f00ff;stroke:#ffffff"
       d="m 208.67816,109.54418 c 0,10.63521 -33.49915,19.25675 -74.82245,19.25675 -41.323294,0 -74.822446,-8.62154 -74.822446,-19.25675 0,-10.635209 33.499152,-19.25675 74.822446,-19.25675 41.3233,0 74.82245,8.621541 74.82245,19.25675 z" />
    <ellipse
       id="svg_229"
       transform="matrix(-1,-1.7453293e-5,1.7453293e-5,-1,262.47886,130.20149)"
       ry="19.256752"
       rx="74.822449"
       cy="65.099731"
       cx="131.24135"
       sodipodi:cx="131.24135"
       sodipodi:cy="65.099731"
       sodipodi:rx="74.822449"
       sodipodi:ry="19.256752"
       style="opacity:0.45;fill:#7f00ff;stroke:#ffffff"
       d="m 206.0638,65.099731 c 0,10.635211 -33.49915,19.256752 -74.82245,19.256752 -41.323299,0 -74.82245,-8.621541 -74.82245,-19.256752 0,-10.63521 33.499151,-19.256752 74.82245,-19.256752 41.3233,0 74.82245,8.621542 74.82245,19.256752 z" />
    <ellipse
       ry="11.764706"
       rx="18.954248"
       id="svg_230"
       cy="302.35291"
       cx="102.48366"
       sodipodi:cx="102.48366"
       sodipodi:cy="302.35291"
       sodipodi:rx="18.954248"
       sodipodi:ry="11.764706"
       style="opacity:0.15;fill:#7f00ff;stroke:#ffffff"
       d="m 121.43791,302.35291 c 0,6.49746 -8.48611,11.7647 -18.95425,11.7647 -10.468145,0 -18.954251,-5.26724 -18.954251,-11.7647 0,-6.49747 8.486106,-11.76471 18.954251,-11.76471 10.46814,0 18.95425,5.26724 18.95425,11.76471 z" />
    <rect
       id="svg_233"
       height="24.70649"
       width="82.352921"
       y="452.35239"
       x="280.0015"
       style="opacity:0.5;fill:#007fff;stroke:#ffffff;stroke-width:3" />
    <rect
       id="svg_236"
       height="24.118362"
       width="84.11763"
       y="451.47031"
       x="464.11746"
       style="opacity:0.5;fill:#ff7f00;stroke:#ffffff;stroke-width:3" />
    <rect
       id="svg_239"
       height="24.70649"
       width="82.352921"
       y="452.35315"
       x="375.29626"
       style="opacity:0.5;fill:#7f00ff;stroke:#ffffff;stroke-width:3" />
    <rect
       x="109.41174"
       y="13.529405"
       width="30.588135"
       height="29.411762"
       id="svg_33"
       style="opacity:0.45;fill:#7f00ff;stroke:#ffffff" />
    <rect
       x="65.350044"
       y="14.152843"
       width="28.710402"
       height="28.163858"
       id="svg_34"
       transform="matrix(0.70710678,-0.70710678,0.70710678,0.70710678,3.3803083,64.628786)"
       style="opacity:0.45;fill:#7f00ff;stroke:#ffffff" />
    <path
       d="m 153.72281,42.890041 18.52829,-32.424568 18.52832,32.424568 -37.05661,0 z"
       id="svg_42"
       transform="matrix(0,1,-1,0,198.929,-145.573)"
       inkscape:connector-curvature="0"
       style="opacity:0.45;fill:#7f00ff;stroke:#ffffff" />
  </g>
  <g
     display="inline"
     id="g79"
     style="display:inline"
     transform="matrix(2,0,0,2,3.5260549,-0.05212036)">
    <title
       id="title81">text</title>
    <text
       transform="matrix(0.822304,0,0,0.936975,48.1244,24.2312)"
       xml:space="preserve"
       font-size="24"
       id="svg_235"
       y="478.04007"
       x="335.27655"
       style="font-size:24px;text-anchor:middle;fill:#00007f;stroke:#ffffff;stroke-width:0;font-family:serif">DECK 1</text>
    <text
       id="svg_238"
       transform="matrix(0.822304,0,0,0.936975,48.1244,24.2312)"
       xml:space="preserve"
       font-size="24"
       y="476.97156"
       x="557.39441"
       style="font-size:24px;text-anchor:middle;fill:#7f0000;stroke:#ffffff;stroke-width:0;font-family:serif">DECK 2</text>
    <text
       id="svg_241"
       transform="matrix(0.803417,0,0,0.844391,56.0228,69.2374)"
       xml:space="preserve"
       font-size="24"
       y="476.83606"
       x="450.10614"
       style="font-size:24px;text-anchor:middle;fill:#00007f;stroke:#ffffff;stroke-width:0;font-family:serif">Misc</text>
    <text
       transform="matrix(0.333265,0,0,0.507533,-24.3719,23.2327)"
       xml:space="preserve"
       font-size="24"
       y="9.26719"
       x="165.99461"
       id="svg_27"
       style="font-size:24px;text-anchor:middle;fill:#000000;stroke:#7c6666;font-family:serif">Mode</text>
    <text
       transform="matrix(0.329296,0,0,0.572779,-37.7124,26.5506)"
       xml:space="preserve"
       font-size="24"
       y="-25.873112"
       x="496.88925"
       id="svg_29"
       style="font-size:24px;text-anchor:middle;fill:#000000;stroke:#7c6666;font-family:serif">Assert LEDs</text>
    <text
       transform="matrix(0.893633,0,0,0.955614,28.6712,24.2467)"
       xml:space="preserve"
       font-size="24"
       y="23.07379"
       x="256.22952"
       id="svg_2"
       style="font-size:24px;text-anchor:middle;fill:#000000;stroke:#ffffff;stroke-width:0;font-family:serif">DJ</text>
    <text
       transform="matrix(0.822304,0,0,0.936975,48.1244,24.2312)"
       xml:space="preserve"
       font-size="24"
       y="55.716827"
       x="257.65994"
       id="svg_3"
       style="font-size:24px;text-anchor:middle;fill:#000000;stroke:#ffffff;stroke-width:0;font-family:serif">Mode</text>
    <text
       transform="matrix(0.773753,0,0,0.844247,67.7741,24.2057)"
       xml:space="preserve"
       font-size="24"
       y="22.084242"
       x="384.54068"
       id="svg_4"
       style="font-size:24px;text-anchor:middle;fill:#000000;stroke:#ffffff;stroke-width:0;font-family:serif">Cue Left</text>
    <text
       transform="matrix(0.822304,0,0,0.936975,48.1244,24.2312)"
       xml:space="preserve"
       font-size="24"
       y="56.343903"
       x="384.2793"
       id="svg_5"
       style="font-size:24px;text-anchor:middle;fill:#000000;stroke:#ffffff;stroke-width:0;font-family:serif">Mode</text>
    <text
       transform="matrix(0.822304,0,0,0.936975,48.1244,24.2312)"
       xml:space="preserve"
       font-size="24"
       y="55.716103"
       x="513.04236"
       id="svg_6"
       style="font-size:24px;text-anchor:middle;fill:#000000;stroke:#ffffff;stroke-width:0;font-family:serif">Mode</text>
    <text
       transform="matrix(0.822304,0,0,0.936975,48.1244,24.2312)"
       xml:space="preserve"
       font-size="24"
       y="54.460495"
       x="644.66675"
       id="svg_7"
       style="font-size:24px;text-anchor:middle;fill:#000000;stroke:#ffffff;stroke-width:0;font-family:serif">Mode</text>
    <text
       transform="matrix(0.822304,0,0,0.936975,48.1244,24.2312)"
       xml:space="preserve"
       font-size="24"
       y="252.21829"
       x="254.08559"
       id="svg_9"
       style="font-size:24px;text-anchor:middle;fill:#000000;stroke:#ffffff;stroke-width:0;font-family:serif">Mode</text>
    <text
       transform="matrix(0.689634,0,0,0.844247,106.272,24.2057)"
       xml:space="preserve"
       font-size="24"
       y="22.183195"
       x="532.54083"
       id="svg_10"
       style="font-size:24px;text-anchor:middle;fill:#000000;stroke:#ffffff;stroke-width:0;font-family:serif">Cue Right</text>
    <text
       transform="matrix(0.773753,0,0,0.844247,67.7741,24.2057)"
       xml:space="preserve"
       font-size="24"
       y="20.789686"
       x="658.20209"
       id="svg_11"
       style="font-size:24px;text-anchor:middle;fill:#000000;stroke:#ffffff;stroke-width:0;font-family:serif">Library</text>
    <text
       transform="matrix(0.708862,0,0,0.808063,79.8035,33.3369)"
       xml:space="preserve"
       font-size="24"
       y="242.99384"
       x="252.51443"
       id="svg_12"
       style="font-size:24px;text-anchor:middle;fill:#000000;stroke:#ffffff;stroke-width:0;font-family:serif">Visualizer</text>
  </g>
</svg>
