<?xml version="1.0" encoding="UTF-8"?>
<svg width="640" height="480" xmlns="http://www.w3.org/2000/svg">
 <!-- Created with SVG-edit - http://svg-edit.googlecode.com/ -->

 <g display="inline">
  <title>outline</title>
  <path id="svg_32" transform="rotate(-89.3703, 17.0691, 66.2168)" d="m6.02301,75.263474l11.04571,-18.089733l11.046539,18.089733l-22.092249,0z" stroke-width="3" stroke="#000000" fill="#ffffff"/>
  <path id="svg_36" d="m213.612045,426.401459l17.278717,-24.549927l17.279984,24.549927l-34.558701,0z" stroke-width="3" stroke="#000000" fill="#ffffff"/>
  <path id="svg_37" transform="rotate(179.391, 231.025, 446.878)" d="m213.744278,459.152618l17.278717,-24.549927l17.279984,24.549927l-34.558701,0z" stroke-width="3" stroke="#000000" fill="#ffffff"/>
  <path id="svg_38" d="m582.649963,427.62442l17.278748,-24.549927l17.279968,24.549927l-34.558716,0z" stroke-width="3" stroke="#000000" fill="#ffffff"/>
  <path id="svg_39" transform="rotate(179.391, 600.704, 448.101)" d="m583.423279,460.37561l17.278687,-24.549927l17.280029,24.549927l-34.558716,0z" stroke-width="3" stroke="#000000" fill="#ffffff"/>
  <rect id="svg_46" height="82.63489" width="92.215502" y="297.261922" x="214.078154" stroke-width="3" stroke="#000000" fill="none"/>
  <rect id="svg_50" height="82.63489" width="92.215502" y="200.854562" x="213.780073" stroke-width="3" stroke="#000000" fill="none"/>
  <rect id="svg_51" height="82.63489" width="92.215502" y="106.242046" x="213.479473" stroke-width="3" stroke="#000000" fill="#ffffff"/>
  <rect id="svg_52" height="82.63489" width="92.215502" y="11.63187" x="213.180016" stroke-width="3" stroke="#000000" fill="none"/>
  <rect id="svg_53" height="82.63489" width="92.215502" y="296.49714" x="320.085016" stroke-width="3" stroke="#000000" fill="none"/>
  <rect id="svg_54" height="82.63489" width="92.215502" y="200.08978" x="319.786936" stroke-width="3" stroke="#000000" fill="none"/>
  <rect id="svg_55" height="82.63489" width="92.215502" y="105.477264" x="319.486335" stroke-width="3" stroke="#000000" fill="none"/>
  <rect id="svg_56" height="82.63489" width="92.215502" y="10.867088" x="319.186879" stroke-width="3" stroke="#000000" fill="none"/>
  <rect id="svg_65" height="82.63489" width="92.215502" y="296.497983" x="426.842776" stroke-width="3" stroke="#000000" fill="none"/>
  <rect id="svg_66" height="82.63489" width="92.215502" y="200.090623" x="426.544695" stroke-width="3" stroke="#000000" fill="none"/>
  <rect id="svg_67" height="82.63489" width="92.215502" y="105.478107" x="426.244094" stroke-width="3" stroke="#000000" fill="none"/>
  <rect id="svg_68" height="82.63489" width="92.215502" y="10.867931" x="425.944638" stroke-width="3" stroke="#000000" fill="none"/>
  <rect id="svg_77" height="82.63489" width="92.215502" y="296.496873" x="532.248125" stroke-width="3" stroke="#000000" fill="none"/>
  <rect id="svg_78" height="82.63489" width="92.215502" y="200.089513" x="531.950045" stroke-width="3" stroke="#000000" fill="none"/>
  <rect id="svg_79" height="82.63489" width="92.215502" y="105.476997" x="531.649444" stroke-width="3" stroke="#000000" fill="none"/>
  <rect id="svg_80" height="82.63489" width="92.215502" y="10.866821" x="531.349988" stroke-width="3" stroke="#000000" fill="none"/>
  <ellipse transform="rotate(-89.9922, 418.443, 427.495)" ry="152.494271" rx="16.684473" id="svg_82" cy="427.494833" cx="418.443416" stroke-width="3" stroke="#000000" fill="#ffffff"/>
  <path id="svg_86" transform="rotate(90.2301, 45.1023, 66.0645)" d="m34.056412,75.110497l11.045719,-18.089695l11.046539,18.089695l-22.092258,0z" stroke-width="3" stroke="#000000" fill="#ffffff"/>
  <path id="svg_90" transform="rotate(-89.3703, 16.1628, 109.146)" d="m5.11691,118.192863l11.045711,-18.089737l11.046539,18.089737l-22.092251,0l0.000001,0z" stroke-width="3" stroke="#000000" fill="#ffffff"/>
  <path id="svg_91" transform="rotate(90.2301, 44.8495, 109.636)" d="m33.803921,118.680908l11.045708,-18.089691l11.046543,18.089691l-22.092251,0z" stroke-width="3" stroke="#000000" fill="#ffffff"/>
  <path id="svg_92" transform="rotate(-89.3703, 16.1628, 152.736)" d="m5.11707,161.782867l11.045711,-18.089752l11.046539,18.089752l-22.092251,0l0.000001,0z" stroke-width="3" stroke="#000000" fill="#ffffff"/>
  <path id="svg_93" transform="rotate(90.2301, 44.8386, 152.584)" d="m33.791512,161.629883l11.045719,-18.089706l11.046539,18.089706l-22.092258,0z" stroke-width="3" stroke="#000000" fill="#ffffff"/>
  <path id="svg_94" transform="rotate(-89.3703, 16.8184, 196.967)" d="m5.77163,206.013184l11.045711,-18.089752l11.046539,18.089752l-22.092251,0l0.000001,0z" stroke-width="3" stroke="#000000" fill="#ffffff"/>
  <path id="svg_95" transform="rotate(90.2301, 44.8386, 196.814)" d="m33.792469,205.860199l11.045719,-18.089691l11.046543,18.089691l-22.092262,0z" stroke-width="3" stroke="#000000" fill="#ffffff"/>
  <ellipse ry="10.89747" rx="73.076926" id="svg_96" cy="66.153804" cx="132.43585" stroke-width="3" stroke="#000000" fill="#ffffff"/>
  <ellipse id="svg_98" ry="10.89747" rx="73.076926" cy="109.743322" cx="132.114927" stroke-width="3" stroke="#000000" fill="#ffffff"/>
  <ellipse id="svg_99" ry="10.89747" rx="73.076926" cy="153.333326" cx="132.757296" stroke-width="3" stroke="#000000" fill="#ffffff"/>
  <ellipse id="svg_100" ry="10.89747" rx="73.076926" cy="197.563633" cx="132.756689" stroke-width="3" stroke="#000000" fill="#ffffff"/>
  <ellipse ry="37.173201" rx="41.647928" id="svg_101" cy="262.251144" cx="48.983243" stroke-width="3" stroke="#000000" fill="#ffffff"/>
  <ellipse id="svg_105" ry="37.173201" rx="40.994341" cy="261.906684" cx="152.82884" stroke-width="3" stroke="#000000" fill="#ffffff"/>
  <ellipse transform="rotate(-90.0016, 37.2441, 393.076)" id="svg_110" ry="10.89747" rx="73.076926" cy="393.076106" cx="37.244405" stroke-width="3" stroke="#000000" fill="#ffffff" opacity="0.5"/>
  <ellipse id="svg_111" transform="rotate(-90.0016, 82.1152, 394.359)" ry="10.89747" rx="73.076926" cy="394.360117" cx="82.115041" stroke-width="3" stroke="#000000" fill="#ffffff" opacity="0.5"/>
  <ellipse id="svg_112" transform="rotate(-90.0016, 125.707, 394.359)" ry="10.89747" rx="73.076926" cy="394.358973" cx="125.706288" stroke-width="3" stroke="#000000" fill="#ffffff" opacity="0.5"/>
  <ellipse id="svg_113" transform="rotate(-90.0016, 168.014, 393.668)" ry="10.89747" rx="73.076926" cy="393.668483" cx="168.013417" stroke-width="3" stroke="#000000" fill="#ffffff" opacity="0.5"/>
  <path id="svg_114" d="m84.90287,302.613342l17.042,-9.525421l17.042252,9.525421l-17.042252,9.525269l-17.042,-9.525269z" stroke-width="3" stroke="#000000" fill="#ffffff" opacity="0.5"/>
  <path transform="rotate(-90.0006, 79.5414, 27.7794)" id="svg_116" d="m65.44136,27.779072l14.100914,-14.42734l14.101097,14.42734l-14.101097,14.427109l-14.100914,-14.427109z" stroke-width="3" stroke="#000000" fill="#ffffff"/>
  <path id="svg_117" transform="rotate(134.509, 124.837, 28.3035)" d="m108.63916,28.303152l16.198326,-16.4893l16.198555,16.4893l-16.198555,16.489027l-16.198326,-16.489027z" stroke-width="3" stroke="#000000" fill="#ffffff"/>
  <path id="svg_118" transform="rotate(90.2301, 170.282, 27.2283)" d="m158.262405,37.910858l12.01944,-21.365513l12.02037,21.365513l-24.03981,0z" stroke-width="3" stroke="#000000" fill="#ffffff"/>
  <path id="svg_119" d="m17.4352,20.19718l3.67761,-6.36946l6.369511,-3.677649l7.35533,0l6.369499,3.677649l3.677711,6.36946l0,7.355381l-3.677711,6.369471l-6.369499,3.677689l-7.35533,0l-6.369511,-3.677689l-3.67761,-6.369471l0,-7.355381z" stroke-width="3" stroke="#000000" fill="#ffffff"/>
 </g>
 <g display="inline">
  <title>shading</title>
  <rect opacity="0.5" id="svg_127" height="381.045768" width="213.071886" y="4.967277" x="205.751619" stroke-width="3" stroke="#ffffff" fill="#007fff"/>
  <rect id="svg_129" height="71.24153" width="48.366175" y="395.817274" x="207.058804" opacity="0.5" stroke-width="3" stroke="#ffffff" fill="#007fff"/>
  <rect id="svg_133" height="164.052029" width="27.45046" y="49.738878" x="4.117866" opacity="0.5" stroke-width="3" stroke="#ffffff" fill="#007fff"/>
  <rect id="svg_134" height="165.359211" width="26.796836" y="49.41053" x="30.588549" opacity="0.5" stroke-width="3" stroke="#ffffff" fill="#ff7f00"/>
  <rect id="svg_136" height="71.24153" width="48.366175" y="396.144498" x="577.319893" opacity="0.5" stroke-width="3" stroke="#ffffff" fill="#ff7f00"/>
  <rect id="svg_137" opacity="0.5" height="381.045768" width="211.764685" y="4.314269" x="419.479485" stroke-width="3" stroke="#ffffff" fill="#ff7f00"/>
  <ellipse ry="38.562093" rx="43.790851" id="svg_138" cy="261.830035" cx="48.888882" opacity="0.5" stroke-width="3" stroke="#ffffff" fill="#007fff"/>
  <ellipse id="svg_139" ry="38.562093" rx="43.790851" cy="261.176429" cx="152.483868" opacity="0.5" stroke-width="3" stroke="#ffffff" fill="#ff7f00"/>
  <ellipse opacity="0.45" ry="23.529292" rx="165.359538" id="svg_213" cy="427.124088" cx="418.562289" stroke="#ffffff" fill="#7f00ff"/>
  <ellipse stroke-width="3" transform="rotate(89.8086, 38.4316, 391.566)" id="svg_221" opacity="0.5" ry="19.256752" rx="74.822449" cy="391.566479" cx="38.431665" stroke="#ffffff" fill="#ff7f00"/>
  <ellipse stroke-width="3" id="svg_222" transform="rotate(89.8086, 82.877, 392.547)" opacity="0.5" ry="19.256752" rx="74.822449" cy="392.547114" cx="82.877792" stroke="#ffffff" fill="#007fff"/>
  <ellipse stroke-width="3" id="svg_223" transform="rotate(89.8086, 124.709, 392.547)" opacity="0.5" ry="19.256752" rx="74.822449" cy="392.547114" cx="124.707856" stroke="#ffffff" fill="#ff7f00"/>
  <ellipse stroke-width="3" id="svg_224" transform="rotate(89.8086, 167.846, 393.201)" opacity="0.5" ry="19.256752" rx="74.822449" cy="393.200709" cx="167.845119" stroke="#ffffff" fill="#007fff"/>
  <ellipse id="svg_225" transform="rotate(-179.999, 133.205, 198.43)" opacity="0.45" ry="19.256752" rx="74.822449" cy="198.429466" cx="133.20459" stroke="#ffffff" fill="#7f00ff"/>
  <ellipse id="svg_227" transform="rotate(-179.999, 133.857, 153.334)" opacity="0.45" ry="19.256752" rx="74.822449" cy="153.335033" cx="133.855717" stroke="#ffffff" fill="#7f00ff"/>
  <ellipse id="svg_228" transform="rotate(-179.999, 133.857, 109.545)" opacity="0.45" ry="19.256752" rx="74.822449" cy="109.544183" cx="133.855717" stroke="#ffffff" fill="#7f00ff"/>
  <ellipse id="svg_229" transform="rotate(-179.999, 131.24, 65.0996)" opacity="0.45" ry="19.256752" rx="74.822449" cy="65.099735" cx="131.241348" stroke="#ffffff" fill="#7f00ff"/>
  <ellipse ry="11.764706" rx="18.954249" id="svg_230" cy="302.352913" cx="102.483655" opacity="0.15" stroke="#ffffff" fill="#7f00ff"/>
  <rect id="svg_233" height="24.70649" width="82.352921" y="452.35238" x="280.0015" opacity="0.5" stroke-width="3" stroke="#ffffff" fill="#007fff"/>
  <rect id="svg_236" height="24.118362" width="84.117633" y="451.470317" x="464.117448" opacity="0.5" stroke-width="3" stroke="#ffffff" fill="#ff7f00"/>
  <rect id="svg_239" height="24.70649" width="82.352921" y="452.353159" x="375.296273" opacity="0.5" stroke-width="3" stroke="#ffffff" fill="#7f00ff"/>
  <rect fill="#7f00ff" stroke="#ffffff" x="109.411741" y="13.529405" width="30.588135" height="29.411763" id="svg_33" opacity="0.45"/>
  <rect fill="#7f00ff" stroke="#ffffff" x="65.350048" y="14.152843" width="28.710402" height="28.163859" opacity="0.45" id="svg_34" transform="rotate(-45, 79.704, 28.234)"/>
  <path fill="#7f00ff" stroke="#ffffff" opacity="0.45" d="m153.722809,42.890041l18.52829,-32.424568l18.52832,32.424568l-37.05661,0z" id="svg_42" transform="rotate(90, 172.251, 26.678)"/>
 </g>
 <g display="inline">
  <title>text</title>
  <text transform="matrix(0.822304, 0, 0, 0.936975, 48.1244, 24.2312)" xml:space="preserve" text-anchor="middle" font-family="serif" font-size="24" id="svg_235" y="477.412266" x="335.276553" stroke-width="0" stroke="#ffffff" fill="#00007f">DECK 1</text>
  <text id="svg_238" transform="matrix(0.822304, 0, 0, 0.936975, 48.1244, 24.2312)" xml:space="preserve" text-anchor="middle" font-family="serif" font-size="24" y="476.971546" x="557.39441" stroke-width="0" stroke="#ffffff" fill="#7f0000">DECK 2</text>
  <text id="svg_241" transform="matrix(0.803417, 0, 0, 0.844391, 56.0228, 69.2374)" xml:space="preserve" text-anchor="middle" font-family="serif" font-size="24" y="476.83606" x="450.106148" stroke-width="0" stroke="#ffffff" fill="#00007f">Misc</text>
  <text transform="matrix(0.412071, 0, 0, 0.657068, 165.759, 27.0783)" xml:space="preserve" text-anchor="middle" font-family="serif" font-size="24" y="525.153434" x="816.834842" stroke-width="0" stroke="#ffffff" fill="#7f0000" id="svg_23">Sync</text>
  <text transform="matrix(0.333265, 0, 0, 0.507533, -24.3719, 23.2327)" xml:space="preserve" text-anchor="middle" font-family="serif" font-size="24" y="9.26719" x="165.99461" stroke="#7c6666" fill="#000000" id="svg_27">Mode</text>
  <text transform="matrix(0.329296, 0, 0, 0.572779, -37.7124, 26.5506)" xml:space="preserve" text-anchor="middle" font-family="serif" font-size="24" y="-25.873111" x="496.889263" stroke="#7c6666" fill="#000000" id="svg_29">Assert LEDs</text>
  <text transform="matrix(0.412071, 0, 0, 0.657068, 165.759, 27.0783)" xml:space="preserve" text-anchor="middle" font-family="serif" font-size="24" y="524.72084" x="418.488561" stroke-width="0" stroke="#ffffff" fill="#00007f" id="svg_81">Sync</text>
  <text transform="matrix(0.523195, 0, 0, 0.538995, 5.81165, 119.206)" xml:space="preserve" text-anchor="middle" font-family="serif" font-size="24" y="271.760493" x="83.056014" stroke-width="0" stroke="#ffffff" fill="#00007f" id="svg_122">Reset Beat</text>
  <text transform="translate(12.0841, 302.233) scale(1.07928, 1.04156) translate(-12.0841, -302.233) translate(12.0129, 302.233) scale(1.04107, 1) translate(-12.0129, -302.233) translate(12.6356, 303.015) scale(0.447638, 0.557364) translate(-12.6356, -303.015) matrix(0.667958, 0, 0, 0.680806, 6.96573, 78.365)" xml:space="preserve" text-anchor="middle" font-family="serif" font-size="24" y="754.93493" x="77.065392" stroke-width="0" stroke="#ffffff" fill="#00007f" id="svg_150">Deck 1</text>
  <text transform="translate(12.0841, 302.233) scale(1.07928, 1.04156) translate(-12.0841, -302.233) translate(12.0129, 302.233) scale(1.04107, 1) translate(-12.0129, -302.233) translate(12.6356, 303.015) scale(0.447638, 0.557364) translate(-12.6356, -303.015) matrix(0.667958, 0, 0, 0.680806, 6.96573, 78.365)" xml:space="preserve" text-anchor="middle" font-family="serif" font-size="24" y="757.438631" x="350.611133" stroke-width="0" stroke="#ffffff" fill="#00007f" id="svg_151">Deck 1</text>
  <text transform="translate(12.0841, 302.233) scale(1.07928, 1.04156) translate(-12.0841, -302.233) translate(12.0129, 302.233) scale(1.04107, 1) translate(-12.0129, -302.233) translate(12.6356, 303.015) scale(0.447638, 0.557364) translate(-12.6356, -303.015) matrix(0.667958, 0, 0, 0.680806, 6.96573, 78.365)" xml:space="preserve" text-anchor="middle" font-family="serif" font-size="24" y="758.9237" x="212.295678" stroke-width="0" stroke="#ffffff" fill="#7f0000" id="svg_152">Deck 2</text>
  <text transform="translate(12.0841, 302.233) scale(1.07928, 1.04156) translate(-12.0841, -302.233) translate(12.0129, 302.233) scale(1.04107, 1) translate(-12.0129, -302.233) translate(12.6356, 303.015) scale(0.447638, 0.557364) translate(-12.6356, -303.015) matrix(0.667958, 0, 0, 0.680806, 6.96573, 78.365)" xml:space="preserve" text-anchor="middle" font-family="serif" font-size="24" y="758.922834" x="471.419056" stroke-width="0" stroke="#ffffff" fill="#7f0000" id="svg_153">Deck 2</text>
  <text id="svg_1" transform="matrix(0.523195, 0, 0, 0.538995, 5.81165, 119.206)" xml:space="preserve" text-anchor="middle" font-family="serif" font-size="24" y="272.635707" x="281.210799" stroke-width="0" stroke="#ffffff" fill="#7f0000">Reset Beat</text>
 </g>
</svg>